<svg xmlns="http://www.w3.org/2000/svg" width="735.22" height="586.36" viewBox="-10.524 -28.718 36.761 29.318"><style>
	.line {
		stroke: #333;
		stroke-width: .09;
		fill: none;
		stroke-linejoin: round;
		stroke-linecap: round;
	}
	.station {
		stroke: none;
	}
	.transit {
		stroke: #555;
		stroke-width: .05;
		fill: #fff;
	}
</style><g><path class="line U8" style="stroke: #0a3c85;" d="M9.924 -11.578L10.751 -12.405"></path><path class="line U1" style="stroke: #55a822;" d="M0.827 -14.131L1.654 -14.131"></path><path class="line U3" style="stroke: #019377;" d="M0.827 -13.988L1.654 -13.988"></path><path class="line U1" style="stroke: #55a822;" d="M1.654 -14.131L2.481 -14.131"></path><path class="line U3" style="stroke: #019377;" d="M1.654 -13.988L2.481 -13.988"></path><path class="line U1" style="stroke: #55a822;" d="M2.38 -14.16L3.207 -14.987"></path><path class="line U2" style="stroke: #ff3300;" d="M2.481 -14.059L3.308 -14.886"></path><path class="line U3" style="stroke: #019377;" d="M2.582 -13.958L3.409 -14.785"></path><path class="line U1" style="stroke: #55a822;" d="M3.308 -14.958L4.135 -14.958"></path><path class="line U3" style="stroke: #019377;" d="M3.308 -14.815L4.135 -14.815"></path><path class="line U1" style="stroke: #55a822;" d="M4.085 -14.937L4.912 -15.764"></path><path class="line U3" style="stroke: #019377;" d="M4.186 -14.836L5.013 -15.663"></path><path class="line U1" style="stroke: #55a822;" d="M4.912 -15.764L5.739 -16.591"></path><path class="line U3" style="stroke: #019377;" d="M5.013 -15.663L5.84 -16.49"></path><path class="line U1" style="stroke: #55a822;" d="M5.789 -16.612L6.616 -16.612"></path><path class="line U3" style="stroke: #019377;" d="M5.789 -16.469L6.616 -16.469"></path><path class="line U1" style="stroke: #55a822;" d="M6.616 -16.612L7.857 -16.612"></path><path class="line U3" style="stroke: #019377;" d="M6.616 -16.469L7.857 -16.469"></path><path class="line U1" style="stroke: #55a822;" d="M7.857 -16.612L9.097 -16.612"></path><path class="line U3" style="stroke: #019377;" d="M7.857 -16.469L9.097 -16.469"></path><path class="line U1" style="stroke: #55a822;" d="M9.097 -16.612L9.924 -16.612"></path><path class="line U3" style="stroke: #019377;" d="M9.097 -16.469L9.924 -16.469"></path><path class="line U1" style="stroke: #55a822;" d="M9.975 -16.591L10.802 -15.764"></path><path class="line U3" style="stroke: #019377;" d="M9.874 -16.49L10.701 -15.663"></path><path class="line U1" style="stroke: #55a822;" d="M10.802 -15.764L11.629 -14.937"></path><path class="line U3" style="stroke: #019377;" d="M10.701 -15.663L11.528 -14.836"></path><path class="line U2" style="stroke: #ff3300;" d="M-6.616 -10.751L-5.789 -11.578"></path><path class="line U2" style="stroke: #ff3300;" d="M-5.789 -11.578L-4.962 -12.405"></path><path class="line U2" style="stroke: #ff3300;" d="M-4.962 -12.405L-4.135 -12.405"></path><path class="line U2" style="stroke: #ff3300;" d="M-4.135 -12.405L-3.308 -12.405"></path><path class="line U2" style="stroke: #ff3300;" d="M-3.308 -12.405L-2.481 -12.405"></path><path class="line U2" style="stroke: #ff3300;" d="M-2.481 -12.405L-1.654 -12.405"></path><path class="line U2" style="stroke: #ff3300;" d="M-1.654 -12.405L-0.827 -12.405"></path><path class="line U2" style="stroke: #ff3300;" d="M-0.827 -12.405L0 -12.405"></path><path class="line U2" style="stroke: #ff3300;" d="M0 -12.405L0.827 -12.405"></path><path class="line U2" style="stroke: #ff3300;" d="M0.827 -12.405L2.481 -14.059"></path><path class="line U2" style="stroke: #ff3300;" d="M3.308 -14.886L4.135 -15.713"></path><path class="line U2" style="stroke: #ff3300;" d="M4.135 -15.713L4.962 -15.713"></path><path class="line U2" style="stroke: #ff3300;" d="M4.962 -15.713L4.962 -14.886"></path><path class="line U2" style="stroke: #ff3300;" d="M4.962 -14.886L4.962 -14.059"></path><path class="line U2" style="stroke: #ff3300;" d="M4.962 -14.059L5.789 -14.059"></path><path class="line U2" style="stroke: #ff3300;" d="M5.789 -14.059L6.616 -14.059"></path><path class="line U2" style="stroke: #ff3300;" d="M6.616 -14.059L7.443 -14.059"></path><path class="line U2" style="stroke: #ff3300;" d="M7.443 -14.059L8.27 -14.059"></path><path class="line U2" style="stroke: #ff3300;" d="M8.27 -14.059L9.097 -13.232"></path><path class="line U2" style="stroke: #ff3300;" d="M9.097 -13.232L9.924 -12.405"></path><path class="line U2" style="stroke: #ff3300;" d="M9.924 -12.405L9.924 -11.578"></path><path class="line U2" style="stroke: #ff3300;" d="M9.924 -11.578L9.924 -10.751"></path><path class="line U2" style="stroke: #ff3300;" d="M9.924 -10.751L9.924 -9.924"></path><path class="line U2" style="stroke: #ff3300;" d="M9.924 -9.924L9.924 -9.097"></path><path class="line U2" style="stroke: #ff3300;" d="M9.924 -9.097L9.924 -8.27"></path><path class="line U2" style="stroke: #ff3300;" d="M9.924 -8.27L9.924 -7.443"></path><path class="line U2" style="stroke: #ff3300;" d="M9.924 -7.443L9.924 -6.616"></path><path class="line U3" style="stroke: #019377;" d="M-5.789 -23.156L-4.962 -22.329"></path><path class="line U3" style="stroke: #019377;" d="M-4.962 -22.329L-4.135 -21.502"></path><path class="line U3" style="stroke: #019377;" d="M-4.135 -21.502L-3.308 -20.675"></path><path class="line U3" style="stroke: #019377;" d="M-3.308 -20.675L-2.481 -19.848"></path><path class="line U3" style="stroke: #019377;" d="M-2.481 -19.848L-1.654 -19.021"></path><path class="line U3" style="stroke: #019377;" d="M-1.654 -19.021L-0.827 -18.194"></path><path class="line U3" style="stroke: #019377;" d="M-0.827 -18.194L-0.827 -17.367"></path><path class="line U3" style="stroke: #019377;" d="M-0.827 -17.367L-0.827 -16.54"></path><path class="line U3" style="stroke: #019377;" d="M-0.827 -16.54L-0.827 -15.713"></path><path class="line U3" style="stroke: #019377;" d="M-0.827 -15.713L0 -14.886"></path><path class="line U3" style="stroke: #019377;" d="M0 -14.886L0.827 -14.059"></path><path class="line U4" style="stroke: #ffd900;" d="M2.481 -18.194L2.481 -17.367"></path><path class="line U4" style="stroke: #ffd900;" d="M2.481 -17.367L2.481 -16.54"></path><path class="line U4" style="stroke: #ffd900;" d="M2.481 -16.54L2.481 -15.713"></path><path class="line U4" style="stroke: #ffd900;" d="M2.481 -15.713L3.308 -14.886"></path><path class="line U5" style="stroke: #672f17;" d="M9.924 -11.578L10.751 -11.578"></path><path class="line U5" style="stroke: #672f17;" d="M10.751 -11.578L11.578 -11.578"></path><path class="line U5" style="stroke: #672f17;" d="M11.578 -11.578L12.405 -11.578"></path><path class="line U5" style="stroke: #672f17;" d="M12.405 -11.578L13.232 -11.578"></path><path class="line U5" style="stroke: #672f17;" d="M13.232 -11.578L14.059 -11.578"></path><path class="line U5" style="stroke: #672f17;" d="M14.059 -11.578L14.886 -11.578"></path><path class="line U5" style="stroke: #672f17;" d="M14.886 -11.578L15.713 -11.578"></path><path class="line U5" style="stroke: #672f17;" d="M15.713 -11.578L16.54 -11.578"></path><path class="line U5" style="stroke: #672f17;" d="M16.54 -11.578L17.367 -12.405"></path><path class="line U5" style="stroke: #672f17;" d="M17.367 -12.405L18.194 -13.232"></path><path class="line U5" style="stroke: #672f17;" d="M18.194 -13.232L19.021 -13.232"></path><path class="line U5" style="stroke: #672f17;" d="M19.021 -13.232L19.848 -12.405"></path><path class="line U5" style="stroke: #672f17;" d="M19.848 -12.405L20.675 -11.578"></path><path class="line U5" style="stroke: #672f17;" d="M20.675 -11.578L21.502 -10.751"></path><path class="line U5" style="stroke: #672f17;" d="M21.502 -10.751L22.329 -9.924"></path><path class="line U5" style="stroke: #672f17;" d="M22.329 -9.924L23.156 -9.097"></path><path class="line U5" style="stroke: #672f17;" d="M23.156 -9.097L23.983 -9.097"></path><path class="line U5" style="stroke: #672f17;" d="M23.983 -9.097L24.81 -9.097"></path><path class="line U5" style="stroke: #672f17;" d="M24.81 -9.097L25.637 -9.097"></path><path class="line U6" style="stroke: #6f4e9c;" d="M6.616 -23.983L6.616 -23.156"></path><path class="line U6" style="stroke: #6f4e9c;" d="M6.616 -23.156L6.616 -22.329"></path><path class="line U6" style="stroke: #6f4e9c;" d="M6.616 -22.329L6.616 -21.502"></path><path class="line U6" style="stroke: #6f4e9c;" d="M6.616 -21.502L6.616 -20.675"></path><path class="line U6" style="stroke: #6f4e9c;" d="M6.616 -20.675L6.616 -19.848"></path><path class="line U6" style="stroke: #6f4e9c;" d="M6.616 -19.848L6.616 -19.021"></path><path class="line U6" style="stroke: #6f4e9c;" d="M6.616 -19.021L6.616 -18.194"></path><path class="line U6" style="stroke: #6f4e9c;" d="M6.616 -18.194L6.616 -17.367"></path><path class="line U6" style="stroke: #6f4e9c;" d="M6.616 -17.367L6.616 -16.54"></path><path class="line U6" style="stroke: #6f4e9c;" d="M6.616 -16.54L6.616 -15.3"></path><path class="line U6" style="stroke: #6f4e9c;" d="M6.616 -15.3L6.616 -14.059"></path><path class="line U6" style="stroke: #6f4e9c;" d="M6.616 -14.059L6.616 -13.232"></path><path class="line U6" style="stroke: #6f4e9c;" d="M6.616 -13.232L6.616 -12.405"></path><path class="line U6" style="stroke: #6f4e9c;" d="M6.616 -12.405L6.616 -11.578"></path><path class="line U6" style="stroke: #6f4e9c;" d="M6.616 -11.578L5.789 -10.751"></path><path class="line U6" style="stroke: #6f4e9c;" d="M5.789 -10.751L4.962 -9.924"></path><path class="line U6" style="stroke: #6f4e9c;" d="M4.962 -9.924L4.135 -9.097"></path><path class="line U6" style="stroke: #6f4e9c;" d="M4.135 -9.097L3.308 -8.27"></path><path class="line U6" style="stroke: #6f4e9c;" d="M3.308 -8.27L2.481 -7.443"></path><path class="line U6" style="stroke: #6f4e9c;" d="M2.481 -7.443L1.654 -6.616"></path><path class="line U6" style="stroke: #6f4e9c;" d="M1.654 -6.616L0.827 -5.789"></path><path class="line U6" style="stroke: #6f4e9c;" d="M0.827 -5.789L0 -4.962"></path><path class="line U6" style="stroke: #6f4e9c;" d="M0 -4.962L-0.827 -4.135"></path><path class="line U6" style="stroke: #6f4e9c;" d="M-0.827 -4.135L-1.654 -3.308"></path><path class="line U6" style="stroke: #6f4e9c;" d="M-1.654 -3.308L-2.481 -2.481"></path><path class="line U6" style="stroke: #6f4e9c;" d="M-2.481 -2.481L-3.308 -1.654"></path><path class="line U6" style="stroke: #6f4e9c;" d="M-3.308 -1.654L-4.135 -0.827"></path><path class="line U6" style="stroke: #6f4e9c;" d="M-4.135 -0.827L-4.962 0"></path><path class="line U7" style="stroke: #3690c0;" d="M14.886 -28.118L14.059 -27.291"></path><path class="line U7" style="stroke: #3690c0;" d="M14.059 -27.291L13.232 -26.464"></path><path class="line U7" style="stroke: #3690c0;" d="M13.232 -26.464L12.405 -25.637"></path><path class="line U7" style="stroke: #3690c0;" d="M12.405 -25.637L11.578 -24.81"></path><path class="line U7" style="stroke: #3690c0;" d="M11.578 -24.81L10.751 -23.983"></path><path class="line U7" style="stroke: #3690c0;" d="M10.751 -23.983L10.751 -23.156"></path><path class="line U7" style="stroke: #3690c0;" d="M10.751 -23.156L10.751 -22.329"></path><path class="line U7" style="stroke: #3690c0;" d="M10.751 -22.329L10.751 -21.502"></path><path class="line U7" style="stroke: #3690c0;" d="M10.751 -21.502L10.751 -20.675"></path><path class="line U7" style="stroke: #3690c0;" d="M10.751 -20.675L10.751 -19.848"></path><path class="line U7" style="stroke: #3690c0;" d="M10.751 -19.848L9.924 -19.021"></path><path class="line U7" style="stroke: #3690c0;" d="M9.924 -19.021L9.097 -18.194"></path><path class="line U7" style="stroke: #3690c0;" d="M9.097 -18.194L8.27 -18.194"></path><path class="line U7" style="stroke: #3690c0;" d="M8.27 -18.194L7.443 -18.194"></path><path class="line U7" style="stroke: #3690c0;" d="M7.443 -18.194L6.616 -17.367"></path><path class="line U7" style="stroke: #3690c0;" d="M6.616 -17.367L5.789 -16.54"></path><path class="line U7" style="stroke: #3690c0;" d="M5.789 -16.54L4.962 -16.54"></path><path class="line U7" style="stroke: #3690c0;" d="M4.962 -16.54L4.135 -16.54"></path><path class="line U7" style="stroke: #3690c0;" d="M4.135 -16.54L3.308 -16.54"></path><path class="line U7" style="stroke: #3690c0;" d="M3.308 -16.54L2.481 -16.54"></path><path class="line U7" style="stroke: #3690c0;" d="M2.481 -16.54L0.827 -16.54"></path><path class="line U7" style="stroke: #3690c0;" d="M0.827 -16.54L0 -16.54"></path><path class="line U7" style="stroke: #3690c0;" d="M0 -16.54L-0.827 -15.713"></path><path class="line U7" style="stroke: #3690c0;" d="M-0.827 -15.713L-1.654 -14.886"></path><path class="line U7" style="stroke: #3690c0;" d="M-1.654 -14.886L-1.654 -14.059"></path><path class="line U7" style="stroke: #3690c0;" d="M-1.654 -14.059L-1.654 -13.232"></path><path class="line U7" style="stroke: #3690c0;" d="M-1.654 -13.232L-1.654 -12.405"></path><path class="line U7" style="stroke: #3690c0;" d="M-1.654 -12.405L-1.654 -11.578"></path><path class="line U7" style="stroke: #3690c0;" d="M-1.654 -11.578L-1.654 -10.751"></path><path class="line U7" style="stroke: #3690c0;" d="M-1.654 -10.751L-2.481 -9.924"></path><path class="line U7" style="stroke: #3690c0;" d="M-2.481 -9.924L-3.308 -9.097"></path><path class="line U7" style="stroke: #3690c0;" d="M-3.308 -9.097L-4.135 -9.097"></path><path class="line U7" style="stroke: #3690c0;" d="M-4.135 -9.097L-4.962 -9.097"></path><path class="line U7" style="stroke: #3690c0;" d="M-4.962 -9.097L-5.789 -9.097"></path><path class="line U7" style="stroke: #3690c0;" d="M-5.789 -9.097L-6.616 -9.097"></path><path class="line U7" style="stroke: #3690c0;" d="M-6.616 -9.097L-7.443 -9.097"></path><path class="line U7" style="stroke: #3690c0;" d="M-7.443 -9.097L-8.27 -9.097"></path><path class="line U7" style="stroke: #3690c0;" d="M-8.27 -9.097L-9.097 -9.097"></path><path class="line U7" style="stroke: #3690c0;" d="M-9.097 -9.097L-9.924 -9.097"></path><path class="line U8" style="stroke: #0a3c85;" d="M9.097 -20.675L9.097 -19.848"></path><path class="line U8" style="stroke: #0a3c85;" d="M9.097 -19.848L9.097 -19.021"></path><path class="line U8" style="stroke: #0a3c85;" d="M9.097 -19.021L9.097 -18.194"></path><path class="line U8" style="stroke: #0a3c85;" d="M9.097 -18.194L9.097 -17.367"></path><path class="line U8" style="stroke: #0a3c85;" d="M9.097 -17.367L9.097 -16.54"></path><path class="line U8" style="stroke: #0a3c85;" d="M9.097 -16.54L9.097 -15.3"></path><path class="line U8" style="stroke: #0a3c85;" d="M9.097 -15.3L10.751 -13.646"></path><path class="line U8" style="stroke: #0a3c85;" d="M10.751 -13.646L10.751 -12.405"></path><path class="line U8" style="stroke: #0a3c85;" d="M9.924 -11.578L9.097 -10.751"></path><path class="line U8" style="stroke: #0a3c85;" d="M9.097 -10.751L8.27 -9.924"></path><path class="line U8" style="stroke: #0a3c85;" d="M8.27 -9.924L7.443 -9.097"></path><path class="line U8" style="stroke: #0a3c85;" d="M7.443 -9.097L6.616 -8.27"></path><path class="line U8" style="stroke: #0a3c85;" d="M6.616 -8.27L5.789 -7.443"></path><path class="line U8" style="stroke: #0a3c85;" d="M5.789 -7.443L4.962 -6.616"></path><path class="line U8" style="stroke: #0a3c85;" d="M4.962 -6.616L4.135 -5.789"></path><path class="line U8" style="stroke: #0a3c85;" d="M4.135 -5.789L3.308 -4.962"></path><path class="line U8" style="stroke: #0a3c85;" d="M3.308 -4.962L2.481 -4.135"></path><path class="line U8" style="stroke: #0a3c85;" d="M2.481 -4.135L1.654 -3.308"></path><path class="line U8" style="stroke: #0a3c85;" d="M1.654 -3.308L0.827 -2.481"></path><path class="line U8" style="stroke: #0a3c85;" d="M0.827 -2.481L0 -1.654"></path><path class="line U8" style="stroke: #0a3c85;" d="M0 -1.654L0 -0.827"></path><path class="line U8" style="stroke: #0a3c85;" d="M0 -0.827L0 0"></path><path class="line U9" style="stroke: #ff7300;" d="M0.827 -20.675L0.827 -19.848"></path><path class="line U9" style="stroke: #ff7300;" d="M0.827 -19.848L0.827 -19.021"></path><path class="line U9" style="stroke: #ff7300;" d="M0.827 -19.021L0.827 -18.194"></path><path class="line U9" style="stroke: #ff7300;" d="M0.827 -18.194L0.827 -17.367"></path><path class="line U9" style="stroke: #ff7300;" d="M0.827 -17.367L0.827 -16.54"></path><path class="line U9" style="stroke: #ff7300;" d="M0.827 -16.54L0.827 -15.713"></path><path class="line U9" style="stroke: #ff7300;" d="M0.827 -15.713L0.827 -14.059"></path><path class="line U9" style="stroke: #ff7300;" d="M0.827 -14.059L0.827 -13.232"></path><path class="line U9" style="stroke: #ff7300;" d="M0.827 -13.232L0.827 -12.405"></path><path class="line U9" style="stroke: #ff7300;" d="M0.827 -12.405L0.827 -11.578"></path><path class="line U9" style="stroke: #ff7300;" d="M0.827 -11.578L0.827 -10.751"></path><path class="line U9" style="stroke: #ff7300;" d="M0.827 -10.751L0.827 -9.924"></path><path class="line U9" style="stroke: #ff7300;" d="M0.827 -9.924L0.827 -9.097"></path><path class="line U9" style="stroke: #ff7300;" d="M0.827 -9.097L1.654 -8.27"></path><path class="line U9" style="stroke: #ff7300;" d="M1.654 -8.27L2.481 -7.443"></path><path class="line U9" style="stroke: #ff7300;" d="M2.481 -7.443L3.308 -6.616"></path><path class="line U9" style="stroke: #ff7300;" d="M3.308 -6.616L4.135 -5.789"></path><circle class="station" data-id="900000096101" data-label="S+U Wittenau" r="0.1" fill="#0a3c85"></circle><circle class="station" data-id="900000007102" data-label="S+U Gesundbrunnen" cx="5.789" cy="-7.443" r="0.1" fill="#0a3c85"></circle><circle class="station" data-id="900000100001" data-label="S+U Friedrichstr." cx="6.616" cy="-12.405" r="0.1" fill="#6f4e9c"></circle><circle class="station" data-id="900000100020" data-label="S+U Potsdamer Platz" cx="4.962" cy="-14.059" r="0.1" fill="#ff3300"></circle><circle class="station" data-id="900000057103" data-label="S+U Yorckstr." cx="4.962" cy="-16.54" r="0.1" fill="#3690c0"></circle><circle class="station" data-id="900000062202" data-label="S+U Rathaus Steglitz" cx="0.827" cy="-20.675" r="0.1" fill="#ff7300"></circle><circle class="station" data-id="900000130002" data-label="S+U Pankow" cx="9.924" cy="-6.616" r="0.1" fill="#ff3300"></circle><circle class="station" data-id="900000089303" data-label="S Tegel" cx="-4.962" r="0.1" fill="#6f4e9c"></circle><circle class="station" data-id="900000096458" data-label="S+U Karl-Bonhoeffer-Nervenklinik" cy="-1.654" r="0.1" fill="#0a3c85"></circle><circle class="station" data-id="900000029101" data-label="S Spandau" cx="-9.924" cy="-9.097" r="0.1" fill="#3690c0"></circle><circle class="station" data-id="900000024101" data-label="S Charlottenburg" cx="-1.654" cy="-13.232" r="0.1" fill="#3690c0"></circle><circle class="station transit" data-id="900000023201" data-label="S+U Zoologischer Garten" cx="0.827" cy="-12.405" r="0.13" fill="#333"></circle><circle class="station transit" data-id="900000100003" data-label="S+U Alexanderplatz" cx="9.924" cy="-11.578" r="0.13" fill="#333"></circle><circle class="station" data-id="900000100004" data-label="S+U Jannowitzbrücke" cx="10.751" cy="-12.405" r="0.1" fill="#0a3c85"></circle><circle class="station transit" data-id="900000120004" data-label="S+U Warschauer Str." cx="11.578" cy="-14.886" r="0.185" fill="#333"></circle><circle class="station" data-id="900000054105" data-label="S+U Innsbrucker Platz" cx="2.481" cy="-18.194" r="0.1" fill="#ffd900"></circle><circle class="station" data-id="900000044202" data-label="S+U Bundesplatz" cx="0.827" cy="-17.367" r="0.1" fill="#ff7300"></circle><circle class="station" data-id="900000045102" data-label="S+U Heidelberger Platz" cx="-0.827" cy="-16.54" r="0.1" fill="#019377"></circle><circle class="station" data-id="900000024106" data-label="S Messe Nord/ICC" cx="-3.308" cy="-12.405" r="0.1" fill="#ff3300"></circle><circle class="station" data-id="900000020201" data-label="S+U Jungfernheide" cx="-2.481" cy="-9.924" r="0.1" fill="#3690c0"></circle><circle class="station" data-id="900000001201" data-label="S+U Westhafen" cx="0.827" cy="-9.097" r="0.1" fill="#ff7300"></circle><circle class="station" data-id="900000009104" data-label="S+U Wedding" cx="3.308" cy="-8.27" r="0.1" fill="#6f4e9c"></circle><circle class="station" data-id="900000110001" data-label="S+U Schönhauser Allee" cx="9.924" cy="-8.27" r="0.1" fill="#ff3300"></circle><circle class="station" data-id="900000120001" data-label="S+U Frankfurter Allee" cx="14.886" cy="-11.578" r="0.1" fill="#672f17"></circle><circle class="station" data-id="900000078201" data-label="S+U Neukölln" cx="10.751" cy="-20.675" r="0.1" fill="#3690c0"></circle><circle class="station" data-id="900000079221" data-label="S+U Hermannstr." cx="9.097" cy="-20.675" r="0.1" fill="#0a3c85"></circle><circle class="station" data-id="900000068201" data-label="S+U Tempelhof" cx="6.616" cy="-19.848" r="0.1" fill="#6f4e9c"></circle><circle class="station" data-id="900000160004" data-label="S+U Lichtenberg" cx="16.54" cy="-11.578" r="0.1" fill="#672f17"></circle><circle class="station" data-id="900000175001" data-label="S+U Wuhletal" cx="20.675" cy="-11.578" r="0.1" fill="#672f17"></circle><circle class="station transit" data-id="900000042101" data-label="U Spichernstr." cx="0.827" cy="-14.059" r="0.185" fill="#333"></circle><circle class="station transit" data-id="900000023202" data-label="U Augsburger Str." cx="1.654" cy="-14.059" r="0.185" fill="#333"></circle><circle class="station transit" data-id="900000056101" data-label="U Wittenbergplatz" cx="2.481" cy="-14.059" r="0.24" fill="#333"></circle><circle class="station transit" data-id="900000056102" data-label="U Nollendorfplatz" cx="3.308" cy="-14.886" r="0.24" fill="#333"></circle><circle class="station transit" data-id="900000005201" data-label="U Kurfürstenstr." cx="4.135" cy="-14.886" r="0.185" fill="#333"></circle><circle class="station transit" data-id="900000017103" data-label="U Gleisdreieck" cx="4.962" cy="-15.713" r="0.185" fill="#333"></circle><circle class="station transit" data-id="900000017104" data-label="U Möckernbrücke" cx="5.789" cy="-16.54" r="0.185" fill="#333"></circle><circle class="station transit" data-id="900000012103" data-label="U Hallesches Tor" cx="6.616" cy="-16.54" r="0.185" fill="#333"></circle><circle class="station transit" data-id="900000013103" data-label="U Prinzenstr." cx="7.857" cy="-16.54" r="0.185" fill="#333"></circle><circle class="station transit" data-id="900000013102" data-label="U Kottbusser Tor" cx="9.097" cy="-16.54" r="0.185" fill="#333"></circle><circle class="station transit" data-id="900000014101" data-label="U Görlitzer Bahnhof" cx="9.924" cy="-16.54" r="0.185" fill="#333"></circle><circle class="station transit" data-id="900000014102" data-label="U Schlesisches Tor" cx="10.751" cy="-15.713" r="0.185" fill="#333"></circle><circle class="station" data-id="900000025202" data-label="U Ruhleben" cx="-6.616" cy="-10.751" r="0.1" fill="#ff3300"></circle><circle class="station" data-id="900000025203" data-label="U Olympia-Stadion" cx="-5.789" cy="-11.578" r="0.1" fill="#ff3300"></circle><circle class="station" data-id="900000026101" data-label="U Neu-Westend" cx="-4.962" cy="-12.405" r="0.1" fill="#ff3300"></circle><circle class="station" data-id="900000026201" data-label="Berlin, U Theodor-Heuss-Platz" cx="-4.135" cy="-12.405" r="0.1" fill="#ff3300"></circle><circle class="station" data-id="900000022101" data-label="U Sophie-Charlotte-Platz" cx="-2.481" cy="-12.405" r="0.1" fill="#ff3300"></circle><circle class="station transit" data-id="900000024201" data-label="U Bismarckstr." cx="-1.654" cy="-12.405" r="0.13" fill="#333"></circle><circle class="station" data-id="900000022201" data-label="U Deutsche Oper" cx="-0.827" cy="-12.405" r="0.1" fill="#ff3300"></circle><circle class="station" data-id="900000023101" data-label="U Ernst-Reuter-Platz" cy="-12.405" r="0.1" fill="#ff3300"></circle><circle class="station" data-id="900000056104" data-label="U Bülowstr." cx="4.135" cy="-15.713" r="0.1" fill="#ff3300"></circle><circle class="station" data-id="900000005252" data-label="U Mendelssohn-Bartholdy-Park" cx="4.962" cy="-14.886" r="0.1" fill="#ff3300"></circle><circle class="station" data-id="900000100010" data-label="U Mohrenstr." cx="5.789" cy="-14.059" r="0.1" fill="#ff3300"></circle><circle class="station" data-id="900000100012" data-label="U Hausvogteiplatz" cx="7.443" cy="-14.059" r="0.1" fill="#ff3300"></circle><circle class="station" data-id="900000100013" data-label="U Spittelmarkt" cx="8.27" cy="-14.059" r="0.1" fill="#ff3300"></circle><circle class="station" data-id="900000100014" data-label="U Märkisches Museum" cx="9.097" cy="-13.232" r="0.1" fill="#ff3300"></circle><circle class="station" data-id="900000100015" data-label="U Klosterstr." cx="9.924" cy="-12.405" r="0.1" fill="#ff3300"></circle><circle class="station" data-id="900000100016" data-label="U Rosa-Luxemburg-Platz" cx="9.924" cy="-10.751" r="0.1" fill="#ff3300"></circle><circle class="station" data-id="900000110005" data-label="U Senefelderplatz" cx="9.924" cy="-9.924" r="0.1" fill="#ff3300"></circle><circle class="station" data-id="900000110006" data-label="U Eberswalder Str." cx="9.924" cy="-9.097" r="0.1" fill="#ff3300"></circle><circle class="station" data-id="900000130011" data-label="U Vinetastr." cx="9.924" cy="-7.443" r="0.1" fill="#ff3300"></circle><circle class="station" data-id="900000054101" data-label="U Rathaus Schöneberg" cx="2.481" cy="-17.367" r="0.1" fill="#ffd900"></circle><circle class="station transit" data-id="900000055102" data-label="U Bayerischer Platz" cx="2.481" cy="-16.54" r="0.13" fill="#333"></circle><circle class="station" data-id="900000055101" data-label="U Viktoria-Luise-Platz" cx="2.481" cy="-15.713" r="0.1" fill="#ffd900"></circle><circle class="station" data-id="900000100017" data-label="U Schillingstr." cx="10.751" cy="-11.578" r="0.1" fill="#672f17"></circle><circle class="station" data-id="900000120006" data-label="U Strausberger Platz" cx="11.578" cy="-11.578" r="0.1" fill="#672f17"></circle><circle class="station" data-id="900000120025" data-label="U Weberwiese" cx="12.405" cy="-11.578" r="0.1" fill="#672f17"></circle><circle class="station" data-id="900000120008" data-label="U Frankfurter Tor" cx="13.232" cy="-11.578" r="0.1" fill="#672f17"></circle><circle class="station" data-id="900000120009" data-label="U Samariterstr." cx="14.059" cy="-11.578" r="0.1" fill="#672f17"></circle><circle class="station" data-id="900000160005" data-label="U Magdalenenstr." cx="15.713" cy="-11.578" r="0.1" fill="#672f17"></circle><circle class="station" data-id="900000161512" data-label="U Friedrichsfelde" cx="17.367" cy="-12.405" r="0.1" fill="#672f17"></circle><circle class="station" data-id="900000161002" data-label="U Tierpark" cx="18.194" cy="-13.232" r="0.1" fill="#672f17"></circle><circle class="station" data-id="900000171005" data-label="U Biesdorf-Süd" cx="19.021" cy="-13.232" r="0.1" fill="#672f17"></circle><circle class="station" data-id="900000171006" data-label="U Elsterwerdaer Platz" cx="19.848" cy="-12.405" r="0.1" fill="#672f17"></circle><circle class="station" data-id="900000175004" data-label="U Kaulsdorf-Nord" cx="21.502" cy="-10.751" r="0.1" fill="#672f17"></circle><circle class="station" data-id="900000175705" data-label="U Kienberg" cx="22.329" cy="-9.924" r="0.1" fill="#672f17"></circle><circle class="station" data-id="900000175006" data-label="U Cottbusser Platz" cx="23.156" cy="-9.097" r="0.1" fill="#672f17"></circle><circle class="station" data-id="900000175007" data-label="U Hellersdorf" cx="23.983" cy="-9.097" r="0.1" fill="#672f17"></circle><circle class="station" data-id="900000175015" data-label="U Louis-Lewin-Str." cx="24.81" cy="-9.097" r="0.1" fill="#672f17"></circle><circle class="station" data-id="900000175010" data-label="U Hönow" cx="25.637" cy="-9.097" r="0.1" fill="#672f17"></circle><circle class="station" data-id="900000070301" data-label="U Alt-Mariendorf" cx="6.616" cy="-23.983" r="0.1" fill="#6f4e9c"></circle><circle class="station" data-id="900000070101" data-label="U Westphalweg" cx="6.616" cy="-23.156" r="0.1" fill="#6f4e9c"></circle><circle class="station" data-id="900000069271" data-label="U Ullsteinstr." cx="6.616" cy="-22.329" r="0.1" fill="#6f4e9c"></circle><circle class="station" data-id="900000068302" data-label="U Kaiserin-Augusta-Str." cx="6.616" cy="-21.502" r="0.1" fill="#6f4e9c"></circle><circle class="station" data-id="900000068202" data-label="U Alt-Tempelhof" cx="6.616" cy="-20.675" r="0.1" fill="#6f4e9c"></circle><circle class="station" data-id="900000068101" data-label="U Paradestr." cx="6.616" cy="-19.021" r="0.1" fill="#6f4e9c"></circle><circle class="station" data-id="900000017102" data-label="U Platz der Luftbrücke" cx="6.616" cy="-18.194" r="0.1" fill="#6f4e9c"></circle><circle class="station transit" data-id="900000017101" data-label="U Mehringdamm" cx="6.616" cy="-17.367" r="0.13" fill="#333"></circle><circle class="station" data-id="900000012102" data-label="U Kochstr./Checkpoint Charlie" cx="6.616" cy="-15.3" r="0.1" fill="#6f4e9c"></circle><circle class="station transit" data-id="900000100011" data-label="U Stadtmitte" cx="6.616" cy="-14.059" r="0.13" fill="#333"></circle><circle class="station" data-id="900000100027" data-label="U Französische Str." cx="6.616" cy="-13.232" r="0.1" fill="#6f4e9c"></circle><circle class="station" data-id="900000100019" data-label="U Oranienburger Tor" cx="6.616" cy="-11.578" r="0.1" fill="#6f4e9c"></circle><circle class="station" data-id="900000100009" data-label="U Naturkundemuseum" cx="5.789" cy="-10.751" r="0.1" fill="#6f4e9c"></circle><circle class="station" data-id="900000100501" data-label="U Schwartzkopffstr." cx="4.962" cy="-9.924" r="0.1" fill="#6f4e9c"></circle><circle class="station" data-id="900000008102" data-label="U Reinickendorfer Str." cx="4.135" cy="-9.097" r="0.1" fill="#6f4e9c"></circle><circle class="station transit" data-id="900000009102" data-label="U Leopoldplatz" cx="2.481" cy="-7.443" r="0.13" fill="#333"></circle><circle class="station" data-id="900000009103" data-label="U Seestr." cx="1.654" cy="-6.616" r="0.1" fill="#6f4e9c"></circle><circle class="station" data-id="900000011101" data-label="U Rehberge" cx="0.827" cy="-5.789" r="0.1" fill="#6f4e9c"></circle><circle class="station" data-id="900000011102" data-label="U Afrikanische Str." cy="-4.962" r="0.1" fill="#6f4e9c"></circle><circle class="station" data-id="900000086102" data-label="U Kurt-Schumacher-Platz" cx="-0.827" cy="-4.135" r="0.1" fill="#6f4e9c"></circle><circle class="station" data-id="900000087101" data-label="U Scharnweberstr." cx="-1.654" cy="-3.308" r="0.1" fill="#6f4e9c"></circle><circle class="station" data-id="900000086101" data-label="U Otisstr." cx="-2.481" cy="-2.481" r="0.1" fill="#6f4e9c"></circle><circle class="station" data-id="900000088201" data-label="U Holzhauser Str." cx="-3.308" cy="-1.654" r="0.1" fill="#6f4e9c"></circle><circle class="station" data-id="900000088202" data-label="U Borsigwerke" cx="-4.135" cy="-0.827" r="0.1" fill="#6f4e9c"></circle><circle class="station" data-id="900000083201" data-label="U Rudow" cx="14.886" cy="-28.118" r="0.1" fill="#3690c0"></circle><circle class="station" data-id="900000083101" data-label="U Zwickauer Damm" cx="14.059" cy="-27.291" r="0.1" fill="#3690c0"></circle><circle class="station" data-id="900000083102" data-label="U Wutzkyallee" cx="13.232" cy="-26.464" r="0.1" fill="#3690c0"></circle><circle class="station" data-id="900000082201" data-label="U Lipschitzallee" cx="12.405" cy="-25.637" r="0.1" fill="#3690c0"></circle><circle class="station" data-id="900000082202" data-label="U Johannisthaler Chaussee" cx="11.578" cy="-24.81" r="0.1" fill="#3690c0"></circle><circle class="station" data-id="900000080402" data-label="U Britz-Süd" cx="10.751" cy="-23.983" r="0.1" fill="#3690c0"></circle><circle class="station" data-id="900000080401" data-label="U Parchimer Allee" cx="10.751" cy="-23.156" r="0.1" fill="#3690c0"></circle><circle class="station" data-id="900000080201" data-label="U Blaschkoallee" cx="10.751" cy="-22.329" r="0.1" fill="#3690c0"></circle><circle class="station" data-id="900000080202" data-label="U Grenzallee" cx="10.751" cy="-21.502" r="0.1" fill="#3690c0"></circle><circle class="station" data-id="900000078103" data-label="U Karl-Marx-Str." cx="10.751" cy="-19.848" r="0.1" fill="#3690c0"></circle><circle class="station" data-id="900000078102" data-label="U Rathaus Neukölln" cx="9.924" cy="-19.021" r="0.1" fill="#3690c0"></circle><circle class="station transit" data-id="900000078101" data-label="U Hermannplatz" cx="9.097" cy="-18.194" r="0.13" fill="#333"></circle><circle class="station" data-id="900000016202" data-label="U Südstern" cx="8.27" cy="-18.194" r="0.1" fill="#3690c0"></circle><circle class="station" data-id="900000016101" data-label="U Gneisenaustr." cx="7.443" cy="-18.194" r="0.1" fill="#3690c0"></circle><circle class="station" data-id="900000054102" data-label="U Kleistpark" cx="4.135" cy="-16.54" r="0.1" fill="#3690c0"></circle><circle class="station" data-id="900000054103" data-label="U Eisenacher Str." cx="3.308" cy="-16.54" r="0.1" fill="#3690c0"></circle><circle class="station transit" data-id="900000044201" data-label="U Berliner Str." cx="0.827" cy="-16.54" r="0.13" fill="#333"></circle><circle class="station" data-id="900000041102" data-label="U Blissestr." cy="-16.54" r="0.1" fill="#3690c0"></circle><circle class="station transit" data-id="900000041101" data-label="U Fehrbelliner Platz" cx="-0.827" cy="-15.713" r="0.13" fill="#333"></circle><circle class="station" data-id="900000041201" data-label="U Konstanzer Str." cx="-1.654" cy="-14.886" r="0.1" fill="#3690c0"></circle><circle class="station" data-id="900000023302" data-label="U Adenauerplatz" cx="-1.654" cy="-14.059" r="0.1" fill="#3690c0"></circle><circle class="station" data-id="900000022202" data-label="U Richard-Wagner-Platz" cx="-1.654" cy="-11.578" r="0.1" fill="#3690c0"></circle><circle class="station" data-id="900000019204" data-label="U Mierendorffplatz" cx="-1.654" cy="-10.751" r="0.1" fill="#3690c0"></circle><circle class="station" data-id="900000018101" data-label="U Jakob-Kaiser-Platz" cx="-3.308" cy="-9.097" r="0.1" fill="#3690c0"></circle><circle class="station" data-id="900000018102" data-label="U Halemweg" cx="-4.135" cy="-9.097" r="0.1" fill="#3690c0"></circle><circle class="station" data-id="900000035101" data-label="U Siemensdamm" cx="-4.962" cy="-9.097" r="0.1" fill="#3690c0"></circle><circle class="station" data-id="900000036101" data-label="U Rohrdamm" cx="-5.789" cy="-9.097" r="0.1" fill="#3690c0"></circle><circle class="station" data-id="900000034101" data-label="U Paulsternstr." cx="-6.616" cy="-9.097" r="0.1" fill="#3690c0"></circle><circle class="station" data-id="900000034102" data-label="U Haselhorst" cx="-7.443" cy="-9.097" r="0.1" fill="#3690c0"></circle><circle class="station" data-id="900000033101" data-label="U Zitadelle" cx="-8.27" cy="-9.097" r="0.1" fill="#3690c0"></circle><circle class="station" data-id="900000029301" data-label="U Altstadt Spandau" cx="-9.097" cy="-9.097" r="0.1" fill="#3690c0"></circle><circle class="station" data-id="900000079201" data-label="U Leinestr." cx="9.097" cy="-19.848" r="0.1" fill="#0a3c85"></circle><circle class="station" data-id="900000079202" data-label="U Boddinstr." cx="9.097" cy="-19.021" r="0.1" fill="#0a3c85"></circle><circle class="station" data-id="900000016201" data-label="U Schönleinstr." cx="9.097" cy="-17.367" r="0.1" fill="#0a3c85"></circle><circle class="station" data-id="900000013101" data-label="U Moritzplatz" cx="9.097" cy="-15.3" r="0.1" fill="#0a3c85"></circle><circle class="station" data-id="900000100008" data-label="U Heinrich-Heine-Str." cx="10.751" cy="-13.646" r="0.1" fill="#0a3c85"></circle><circle class="station" data-id="900000100051" data-label="U Weinmeisterstr." cx="9.097" cy="-10.751" r="0.1" fill="#0a3c85"></circle><circle class="station" data-id="900000100023" data-label="U Rosenthaler Platz" cx="8.27" cy="-9.924" r="0.1" fill="#0a3c85"></circle><circle class="station" data-id="900000007110" data-label="U Bernauer Str." cx="7.443" cy="-9.097" r="0.1" fill="#0a3c85"></circle><circle class="station" data-id="900000007103" data-label="U Voltastr." cx="6.616" cy="-8.27" r="0.1" fill="#0a3c85"></circle><circle class="station" data-id="900000009203" data-label="U Pankstr." cx="4.962" cy="-6.616" r="0.1" fill="#0a3c85"></circle><circle class="station transit" data-id="900000009202" data-label="U Osloer Str." cx="4.135" cy="-5.789" r="0.13" fill="#333"></circle><circle class="station" data-id="900000085202" data-label="U Franz-Neumann-Platz" cx="3.308" cy="-4.962" r="0.1" fill="#0a3c85"></circle><circle class="station" data-id="900000085203" data-label="U Residenzstr." cx="2.481" cy="-4.135" r="0.1" fill="#0a3c85"></circle><circle class="station" data-id="900000085104" data-label="U Paracelsus-Bad" cx="1.654" cy="-3.308" r="0.1" fill="#0a3c85"></circle><circle class="station" data-id="900000086160" data-label="U Lindauer Allee" cx="0.827" cy="-2.481" r="0.1" fill="#0a3c85"></circle><circle class="station" data-id="900000096410" data-label="U Rathaus Reinickendorf" cy="-0.827" r="0.1" fill="#0a3c85"></circle><circle class="station" data-id="900000062203" data-label="U Schloßstr." cx="0.827" cy="-19.848" r="0.1" fill="#ff7300"></circle><circle class="station" data-id="900000061101" data-label="U Walther-Schreiber-Platz" cx="0.827" cy="-19.021" r="0.1" fill="#ff7300"></circle><circle class="station" data-id="900000061102" data-label="U Friedrich-Wilhelm-Platz" cx="0.827" cy="-18.194" r="0.1" fill="#ff7300"></circle><circle class="station" data-id="900000043201" data-label="U Güntzelstr." cx="0.827" cy="-15.713" r="0.1" fill="#ff7300"></circle><circle class="station" data-id="900000023203" data-label="U Kurfürstendamm" cx="0.827" cy="-13.232" r="0.1" fill="#ff7300"></circle><circle class="station" data-id="900000003101" data-label="U Hansaplatz" cx="0.827" cy="-11.578" r="0.1" fill="#ff7300"></circle><circle class="station" data-id="900000003104" data-label="U Turmstr." cx="0.827" cy="-10.751" r="0.1" fill="#ff7300"></circle><circle class="station" data-id="900000002201" data-label="U Birkenstr." cx="0.827" cy="-9.924" r="0.1" fill="#ff7300"></circle><circle class="station" data-id="900000009101" data-label="U Amrumer Str." cx="1.654" cy="-8.27" r="0.1" fill="#ff7300"></circle><circle class="station" data-id="900000009201" data-label="U Nauener Platz" cx="3.308" cy="-6.616" r="0.1" fill="#ff7300"></circle><circle class="station" data-id="900000050201" data-label="U Krumme Lanke" cx="-5.789" cy="-23.156" r="0.1" fill="#019377"></circle><circle class="station" data-id="900000050282" data-label="U Onkel Toms Hütte" cx="-4.962" cy="-22.329" r="0.1" fill="#019377"></circle><circle class="station" data-id="900000051301" data-label="U Oskar-Helene-Heim" cx="-4.135" cy="-21.502" r="0.1" fill="#019377"></circle><circle class="station" data-id="900000051201" data-label="U Freie Universität (Thielplatz)" cx="-3.308" cy="-20.675" r="0.1" fill="#019377"></circle><circle class="station" data-id="900000051303" data-label="U Dahlem-Dorf" cx="-2.481" cy="-19.848" r="0.1" fill="#019377"></circle><circle class="station" data-id="900000051302" data-label="U Podbielskiallee" cx="-1.654" cy="-19.021" r="0.1" fill="#019377"></circle><circle class="station" data-id="900000051202" data-label="U Breitenbachplatz" cx="-0.827" cy="-18.194" r="0.1" fill="#019377"></circle><circle class="station" data-id="900000045101" data-label="U Rüdesheimer Platz" cx="-0.827" cy="-17.367" r="0.1" fill="#019377"></circle><circle class="station" data-id="900000043101" data-label="U Hohenzollernplatz" cy="-14.886" r="0.1" fill="#019377"></circle></g></svg>