<svg xmlns="http://www.w3.org/2000/svg" width="787.26" height="542.7" viewBox="16870.08 -21189.766 39.363 27.135"><style>
	.line {
		stroke: #333;
		stroke-width: .09;
		fill: none;
		stroke-linejoin: round;
		stroke-linecap: round;
	}
	.station {
		stroke: none;
	}
	.transit {
		stroke: #555;
		stroke-width: .05;
		fill: #fff;
	}
</style><g><path class="line U8" style="stroke: #0a3c85;" d="M16889.353 -21178.415L16889.919 -21177.535"></path><path class="line U1" style="stroke: #55a822;" d="M16882.229 -21174.882L16882.795 -21175.447"></path><path class="line U3" style="stroke: #019377;" d="M16882.33 -21174.781L16882.896 -21175.346"></path><path class="line U1" style="stroke: #55a822;" d="M16882.817 -21175.462L16883.32 -21175.682"></path><path class="line U3" style="stroke: #019377;" d="M16882.874 -21175.332L16883.377 -21175.552"></path><path class="line U1" style="stroke: #55a822;" d="M16883.396 -21175.752L16884.371 -21175.406"></path><path class="line U2" style="stroke: #ff3300;" d="M16883.348 -21175.617L16884.323 -21175.271"></path><path class="line U3" style="stroke: #019377;" d="M16883.301 -21175.482L16884.275 -21175.137"></path><path class="line U1" style="stroke: #55a822;" d="M16884.32 -21175.343L16885.106 -21175.374"></path><path class="line U3" style="stroke: #019377;" d="M16884.326 -21175.2L16885.112 -21175.231"></path><path class="line U1" style="stroke: #55a822;" d="M16885.111 -21175.374L16886.117 -21175.343"></path><path class="line U3" style="stroke: #019377;" d="M16885.107 -21175.231L16886.113 -21175.2"></path><path class="line U1" style="stroke: #55a822;" d="M16886.123 -21175.342L16886.909 -21175.248"></path><path class="line U3" style="stroke: #019377;" d="M16886.106 -21175.2L16886.892 -21175.106"></path><path class="line U1" style="stroke: #55a822;" d="M16886.919 -21175.246L16887.642 -21175.057"></path><path class="line U3" style="stroke: #019377;" d="M16886.883 -21175.108L16887.606 -21174.919"></path><path class="line U1" style="stroke: #55a822;" d="M16887.619 -21175.06L16888.907 -21175.154"></path><path class="line U3" style="stroke: #019377;" d="M16887.629 -21174.917L16888.918 -21175.011"></path><path class="line U1" style="stroke: #55a822;" d="M16888.906 -21175.154L16889.912 -21175.248"></path><path class="line U3" style="stroke: #019377;" d="M16888.919 -21175.011L16889.925 -21175.106"></path><path class="line U1" style="stroke: #55a822;" d="M16889.919 -21175.248L16890.83 -21175.248"></path><path class="line U3" style="stroke: #019377;" d="M16889.919 -21175.105L16890.83 -21175.105"></path><path class="line U1" style="stroke: #55a822;" d="M16890.812 -21175.246L16891.975 -21175.56"></path><path class="line U3" style="stroke: #019377;" d="M16890.849 -21175.108L16892.012 -21175.422"></path><path class="line U1" style="stroke: #55a822;" d="M16892.045 -21175.442L16892.674 -21176.102"></path><path class="line U3" style="stroke: #019377;" d="M16891.942 -21175.541L16892.57 -21176.201"></path><path class="line U2" style="stroke: #ff3300;" d="M16874.546 -21178.981L16875.301 -21177.755"></path><path class="line U2" style="stroke: #ff3300;" d="M16875.301 -21177.755L16876.118 -21177.66"></path><path class="line U2" style="stroke: #ff3300;" d="M16876.118 -21177.66L16877.25 -21176.717"></path><path class="line U2" style="stroke: #ff3300;" d="M16877.25 -21176.717L16878.13 -21176.246"></path><path class="line U2" style="stroke: #ff3300;" d="M16878.13 -21176.246L16879.387 -21176.906"></path><path class="line U2" style="stroke: #ff3300;" d="M16879.387 -21176.906L16880.079 -21176.969"></path><path class="line U2" style="stroke: #ff3300;" d="M16880.079 -21176.969L16880.456 -21177"></path><path class="line U2" style="stroke: #ff3300;" d="M16880.456 -21177L16881.588 -21176.969"></path><path class="line U2" style="stroke: #ff3300;" d="M16881.588 -21176.969L16882.468 -21176.309"></path><path class="line U2" style="stroke: #ff3300;" d="M16882.468 -21176.309L16883.348 -21175.617"></path><path class="line U2" style="stroke: #ff3300;" d="M16884.323 -21175.271L16885.077 -21174.988"></path><path class="line U2" style="stroke: #ff3300;" d="M16885.077 -21174.988L16886.115 -21175.271"></path><path class="line U2" style="stroke: #ff3300;" d="M16886.115 -21175.271L16886.146 -21175.869"></path><path class="line U2" style="stroke: #ff3300;" d="M16886.146 -21175.869L16886.303 -21176.654"></path><path class="line U2" style="stroke: #ff3300;" d="M16886.303 -21176.654L16886.932 -21176.969"></path><path class="line U2" style="stroke: #ff3300;" d="M16886.932 -21176.969L16887.467 -21176.969"></path><path class="line U2" style="stroke: #ff3300;" d="M16887.467 -21176.969L16887.938 -21177.22"></path><path class="line U2" style="stroke: #ff3300;" d="M16887.938 -21177.22L16888.567 -21176.937"></path><path class="line U2" style="stroke: #ff3300;" d="M16888.567 -21176.937L16889.133 -21177.032"></path><path class="line U2" style="stroke: #ff3300;" d="M16889.133 -21177.032L16889.447 -21177.786"></path><path class="line U2" style="stroke: #ff3300;" d="M16889.447 -21177.786L16889.353 -21178.415"></path><path class="line U2" style="stroke: #ff3300;" d="M16889.353 -21178.415L16889.259 -21179.358"></path><path class="line U2" style="stroke: #ff3300;" d="M16889.259 -21179.358L16889.447 -21179.987"></path><path class="line U2" style="stroke: #ff3300;" d="M16889.447 -21179.987L16889.416 -21181.213"></path><path class="line U2" style="stroke: #ff3300;" d="M16889.416 -21181.213L16889.667 -21182.407"></path><path class="line U2" style="stroke: #ff3300;" d="M16889.667 -21182.407L16889.541 -21183.853"></path><path class="line U2" style="stroke: #ff3300;" d="M16889.541 -21183.853L16889.416 -21184.985"></path><path class="line U3" style="stroke: #019377;" d="M16874.421 -21167.098L16875.615 -21168.167"></path><path class="line U3" style="stroke: #019377;" d="M16875.615 -21168.167L16876.904 -21168.198"></path><path class="line U3" style="stroke: #019377;" d="M16876.904 -21168.198L16878.004 -21168.292"></path><path class="line U3" style="stroke: #019377;" d="M16878.004 -21168.292L16878.759 -21169.267"></path><path class="line U3" style="stroke: #019377;" d="M16878.759 -21169.267L16879.199 -21170.179"></path><path class="line U3" style="stroke: #019377;" d="M16879.199 -21170.179L16880.425 -21170.65"></path><path class="line U3" style="stroke: #019377;" d="M16880.425 -21170.65L16880.865 -21171.373"></path><path class="line U3" style="stroke: #019377;" d="M16880.865 -21171.373L16880.645 -21172.379"></path><path class="line U3" style="stroke: #019377;" d="M16880.645 -21172.379L16880.896 -21173.919"></path><path class="line U3" style="stroke: #019377;" d="M16880.896 -21173.919L16881.714 -21174.422"></path><path class="line U3" style="stroke: #019377;" d="M16881.714 -21174.422L16882.28 -21174.831"></path><path class="line U4" style="stroke: #ffd900;" d="M16883.38 -21172.19L16883.286 -21172.913"></path><path class="line U4" style="stroke: #ffd900;" d="M16883.286 -21172.913L16883.128 -21173.699"></path><path class="line U4" style="stroke: #ffd900;" d="M16883.128 -21173.699L16883.411 -21174.768"></path><path class="line U4" style="stroke: #ffd900;" d="M16883.411 -21174.768L16884.323 -21175.271"></path><path class="line U5" style="stroke: #672f17;" d="M16889.353 -21178.415L16890.264 -21178.226"></path><path class="line U5" style="stroke: #672f17;" d="M16890.264 -21178.226L16891.176 -21177.912"></path><path class="line U5" style="stroke: #672f17;" d="M16891.176 -21177.912L16892.119 -21177.723"></path><path class="line U5" style="stroke: #672f17;" d="M16892.119 -21177.723L16893.062 -21177.566"></path><path class="line U5" style="stroke: #672f17;" d="M16893.062 -21177.566L16894.068 -21177.409"></path><path class="line U5" style="stroke: #672f17;" d="M16894.068 -21177.409L16894.917 -21177.283"></path><path class="line U5" style="stroke: #672f17;" d="M16894.917 -21177.283L16896.175 -21177.063"></path><path class="line U5" style="stroke: #672f17;" d="M16896.175 -21177.063L16896.929 -21176.874"></path><path class="line U5" style="stroke: #672f17;" d="M16896.929 -21176.874L16898.281 -21176.089"></path><path class="line U5" style="stroke: #672f17;" d="M16898.281 -21176.089L16899.161 -21174.925"></path><path class="line U5" style="stroke: #672f17;" d="M16899.161 -21174.925L16901.204 -21175.24"></path><path class="line U5" style="stroke: #672f17;" d="M16901.204 -21175.24L16902.399 -21175.994"></path><path class="line U5" style="stroke: #672f17;" d="M16902.399 -21175.994L16903.594 -21177.157"></path><path class="line U5" style="stroke: #672f17;" d="M16903.594 -21177.157L16904.851 -21178.383"></path><path class="line U5" style="stroke: #672f17;" d="M16904.851 -21178.383L16904.882 -21179.232"></path><path class="line U5" style="stroke: #672f17;" d="M16904.882 -21179.232L16905.543 -21180.207"></path><path class="line U5" style="stroke: #672f17;" d="M16905.543 -21180.207L16906.328 -21180.49"></path><path class="line U5" style="stroke: #672f17;" d="M16906.328 -21180.49L16907.555 -21180.93"></path><path class="line U5" style="stroke: #672f17;" d="M16907.555 -21180.93L16908.843 -21180.773"></path><path class="line U6" style="stroke: #6f4e9c;" d="M16887.247 -21166.658L16887.089 -21167.538"></path><path class="line U6" style="stroke: #6f4e9c;" d="M16887.089 -21167.538L16887.027 -21168.638"></path><path class="line U6" style="stroke: #6f4e9c;" d="M16887.027 -21168.638L16887.027 -21169.644"></path><path class="line U6" style="stroke: #6f4e9c;" d="M16887.027 -21169.644L16887.121 -21170.43"></path><path class="line U6" style="stroke: #6f4e9c;" d="M16887.121 -21170.43L16887.121 -21171.122"></path><path class="line U6" style="stroke: #6f4e9c;" d="M16887.121 -21171.122L16887.184 -21172.19"></path><path class="line U6" style="stroke: #6f4e9c;" d="M16887.184 -21172.19L16887.152 -21173.165"></path><path class="line U6" style="stroke: #6f4e9c;" d="M16887.152 -21173.165L16887.309 -21174.391"></path><path class="line U6" style="stroke: #6f4e9c;" d="M16887.309 -21174.391L16887.624 -21174.988"></path><path class="line U6" style="stroke: #6f4e9c;" d="M16887.624 -21174.988L16887.561 -21176.277"></path><path class="line U6" style="stroke: #6f4e9c;" d="M16887.561 -21176.277L16887.467 -21176.969"></path><path class="line U6" style="stroke: #6f4e9c;" d="M16887.467 -21176.969L16887.498 -21177.44"></path><path class="line U6" style="stroke: #6f4e9c;" d="M16887.498 -21177.44L16887.247 -21178.226"></path><path class="line U6" style="stroke: #6f4e9c;" d="M16887.247 -21178.226L16887.278 -21178.918"></path><path class="line U6" style="stroke: #6f4e9c;" d="M16887.278 -21178.918L16886.806 -21179.798"></path><path class="line U6" style="stroke: #6f4e9c;" d="M16886.806 -21179.798L16886.335 -21180.395"></path><path class="line U6" style="stroke: #6f4e9c;" d="M16886.335 -21180.395L16885.769 -21181.056"></path><path class="line U6" style="stroke: #6f4e9c;" d="M16885.769 -21181.056L16885.392 -21181.464"></path><path class="line U6" style="stroke: #6f4e9c;" d="M16885.392 -21181.464L16884.795 -21181.999"></path><path class="line U6" style="stroke: #6f4e9c;" d="M16884.795 -21181.999L16884.166 -21182.564"></path><path class="line U6" style="stroke: #6f4e9c;" d="M16884.166 -21182.564L16883.191 -21183.445"></path><path class="line U6" style="stroke: #6f4e9c;" d="M16883.191 -21183.445L16882.563 -21184.042"></path><path class="line U6" style="stroke: #6f4e9c;" d="M16882.563 -21184.042L16881.997 -21184.419"></path><path class="line U6" style="stroke: #6f4e9c;" d="M16881.997 -21184.419L16880.613 -21184.954"></path><path class="line U6" style="stroke: #6f4e9c;" d="M16880.613 -21184.954L16879.89 -21185.52"></path><path class="line U6" style="stroke: #6f4e9c;" d="M16879.89 -21185.52L16879.199 -21186.274"></path><path class="line U6" style="stroke: #6f4e9c;" d="M16879.199 -21186.274L16878.759 -21187.123"></path><path class="line U6" style="stroke: #6f4e9c;" d="M16878.759 -21187.123L16878.633 -21188.066"></path><path class="line U7" style="stroke: #3690c0;" d="M16896.772 -21163.231L16895.734 -21164.3"></path><path class="line U7" style="stroke: #3690c0;" d="M16895.734 -21164.3L16894.886 -21164.3"></path><path class="line U7" style="stroke: #3690c0;" d="M16894.886 -21164.3L16893.88 -21164.52"></path><path class="line U7" style="stroke: #3690c0;" d="M16893.88 -21164.52L16893.062 -21165.18"></path><path class="line U7" style="stroke: #3690c0;" d="M16893.062 -21165.18L16892.528 -21166.312"></path><path class="line U7" style="stroke: #3690c0;" d="M16892.528 -21166.312L16892.717 -21167.475"></path><path class="line U7" style="stroke: #3690c0;" d="M16892.717 -21167.475L16892.622 -21168.544"></path><path class="line U7" style="stroke: #3690c0;" d="M16892.622 -21168.544L16892.276 -21170.084"></path><path class="line U7" style="stroke: #3690c0;" d="M16892.276 -21170.084L16892.182 -21170.902"></path><path class="line U7" style="stroke: #3690c0;" d="M16892.182 -21170.902L16891.836 -21171.939"></path><path class="line U7" style="stroke: #3690c0;" d="M16891.836 -21171.939L16891.396 -21172.599"></path><path class="line U7" style="stroke: #3690c0;" d="M16891.396 -21172.599L16890.516 -21173.448"></path><path class="line U7" style="stroke: #3690c0;" d="M16890.516 -21173.448L16889.038 -21173.762"></path><path class="line U7" style="stroke: #3690c0;" d="M16889.038 -21173.762L16887.938 -21174.077"></path><path class="line U7" style="stroke: #3690c0;" d="M16887.938 -21174.077L16887.309 -21174.391"></path><path class="line U7" style="stroke: #3690c0;" d="M16887.309 -21174.391L16886.901 -21175.177"></path><path class="line U7" style="stroke: #3690c0;" d="M16886.901 -21175.177L16885.769 -21174.265"></path><path class="line U7" style="stroke: #3690c0;" d="M16885.769 -21174.265L16884.952 -21174.014"></path><path class="line U7" style="stroke: #3690c0;" d="M16884.952 -21174.014L16884.009 -21173.825"></path><path class="line U7" style="stroke: #3690c0;" d="M16884.009 -21173.825L16883.128 -21173.699"></path><path class="line U7" style="stroke: #3690c0;" d="M16883.128 -21173.699L16882.374 -21173.448"></path><path class="line U7" style="stroke: #3690c0;" d="M16882.374 -21173.448L16881.431 -21173.385"></path><path class="line U7" style="stroke: #3690c0;" d="M16881.431 -21173.385L16880.896 -21173.919"></path><path class="line U7" style="stroke: #3690c0;" d="M16880.896 -21173.919L16880.488 -21174.391"></path><path class="line U7" style="stroke: #3690c0;" d="M16880.488 -21174.391L16880.268 -21175.334"></path><path class="line U7" style="stroke: #3690c0;" d="M16880.268 -21175.334L16879.953 -21175.994"></path><path class="line U7" style="stroke: #3690c0;" d="M16879.953 -21175.994L16880.079 -21176.969"></path><path class="line U7" style="stroke: #3690c0;" d="M16880.079 -21176.969L16880.268 -21177.786"></path><path class="line U7" style="stroke: #3690c0;" d="M16880.268 -21177.786L16880.111 -21179.044"></path><path class="line U7" style="stroke: #3690c0;" d="M16880.111 -21179.044L16879.545 -21179.672"></path><path class="line U7" style="stroke: #3690c0;" d="M16879.545 -21179.672L16879.073 -21180.615"></path><path class="line U7" style="stroke: #3690c0;" d="M16879.073 -21180.615L16878.444 -21180.584"></path><path class="line U7" style="stroke: #3690c0;" d="M16878.444 -21180.584L16877.281 -21180.615"></path><path class="line U7" style="stroke: #3690c0;" d="M16877.281 -21180.615L16876.37 -21180.615"></path><path class="line U7" style="stroke: #3690c0;" d="M16876.37 -21180.615L16875.144 -21180.773"></path><path class="line U7" style="stroke: #3690c0;" d="M16875.144 -21180.773L16873.697 -21180.867"></path><path class="line U7" style="stroke: #3690c0;" d="M16873.697 -21180.867L16872.44 -21180.71"></path><path class="line U7" style="stroke: #3690c0;" d="M16872.44 -21180.71L16871.465 -21180.93"></path><path class="line U7" style="stroke: #3690c0;" d="M16871.465 -21180.93L16870.68 -21180.301"></path><path class="line U8" style="stroke: #0a3c85;" d="M16891.113 -21170.619L16890.83 -21171.436"></path><path class="line U8" style="stroke: #0a3c85;" d="M16890.83 -21171.436L16890.61 -21172.411"></path><path class="line U8" style="stroke: #0a3c85;" d="M16890.61 -21172.411L16890.516 -21173.448"></path><path class="line U8" style="stroke: #0a3c85;" d="M16890.516 -21173.448L16890.296 -21174.328"></path><path class="line U8" style="stroke: #0a3c85;" d="M16890.296 -21174.328L16889.919 -21175.177"></path><path class="line U8" style="stroke: #0a3c85;" d="M16889.919 -21175.177L16889.321 -21175.869"></path><path class="line U8" style="stroke: #0a3c85;" d="M16889.321 -21175.869L16889.761 -21176.874"></path><path class="line U8" style="stroke: #0a3c85;" d="M16889.761 -21176.874L16889.919 -21177.535"></path><path class="line U8" style="stroke: #0a3c85;" d="M16889.353 -21178.415L16888.818 -21178.949"></path><path class="line U8" style="stroke: #0a3c85;" d="M16888.818 -21178.949L16888.473 -21179.578"></path><path class="line U8" style="stroke: #0a3c85;" d="M16888.473 -21179.578L16888.032 -21180.773"></path><path class="line U8" style="stroke: #0a3c85;" d="M16888.032 -21180.773L16887.75 -21181.338"></path><path class="line U8" style="stroke: #0a3c85;" d="M16887.75 -21181.338L16887.341 -21182.313"></path><path class="line U8" style="stroke: #0a3c85;" d="M16887.341 -21182.313L16886.775 -21182.816"></path><path class="line U8" style="stroke: #0a3c85;" d="M16886.775 -21182.816L16886.021 -21183.476"></path><path class="line U8" style="stroke: #0a3c85;" d="M16886.021 -21183.476L16885.235 -21184.482"></path><path class="line U8" style="stroke: #0a3c85;" d="M16885.235 -21184.482L16884.92 -21185.488"></path><path class="line U8" style="stroke: #0a3c85;" d="M16884.92 -21185.488L16883.757 -21186.022"></path><path class="line U8" style="stroke: #0a3c85;" d="M16883.757 -21186.022L16883.034 -21186.148"></path><path class="line U8" style="stroke: #0a3c85;" d="M16883.034 -21186.148L16882.5 -21186.525"></path><path class="line U8" style="stroke: #0a3c85;" d="M16882.5 -21186.525L16881.84 -21187.972"></path><path class="line U8" style="stroke: #0a3c85;" d="M16881.84 -21187.972L16882.72 -21189.166"></path><path class="line U9" style="stroke: #ff7300;" d="M16881.557 -21168.89L16881.777 -21169.738"></path><path class="line U9" style="stroke: #ff7300;" d="M16881.777 -21169.738L16882.091 -21170.304"></path><path class="line U9" style="stroke: #ff7300;" d="M16882.091 -21170.304L16882.122 -21171.216"></path><path class="line U9" style="stroke: #ff7300;" d="M16882.122 -21171.216L16882.154 -21172.065"></path><path class="line U9" style="stroke: #ff7300;" d="M16882.154 -21172.065L16882.374 -21173.448"></path><path class="line U9" style="stroke: #ff7300;" d="M16882.374 -21173.448L16882.342 -21174.171"></path><path class="line U9" style="stroke: #ff7300;" d="M16882.342 -21174.171L16882.28 -21174.831"></path><path class="line U9" style="stroke: #ff7300;" d="M16882.28 -21174.831L16882.374 -21175.869"></path><path class="line U9" style="stroke: #ff7300;" d="M16882.374 -21175.869L16882.468 -21176.309"></path><path class="line U9" style="stroke: #ff7300;" d="M16882.468 -21176.309L16883.317 -21177.912"></path><path class="line U9" style="stroke: #ff7300;" d="M16883.317 -21177.912L16883.223 -21179.044"></path><path class="line U9" style="stroke: #ff7300;" d="M16883.223 -21179.044L16883.223 -21179.955"></path><path class="line U9" style="stroke: #ff7300;" d="M16883.223 -21179.955L16883.443 -21180.521"></path><path class="line U9" style="stroke: #ff7300;" d="M16883.443 -21180.521L16883.946 -21181.37"></path><path class="line U9" style="stroke: #ff7300;" d="M16883.946 -21181.37L16884.795 -21181.999"></path><path class="line U9" style="stroke: #ff7300;" d="M16884.795 -21181.999L16885.518 -21182.722"></path><path class="line U9" style="stroke: #ff7300;" d="M16885.518 -21182.722L16886.021 -21183.476"></path><circle class="station" data-id="900000096101" data-label="S+U Wittenau" cx="16882.72" cy="-21189.166" r="0.1" fill="#0a3c85"></circle><circle class="station" data-id="900000007102" data-label="S+U Gesundbrunnen" cx="16887.341" cy="-21182.313" r="0.1" fill="#0a3c85"></circle><circle class="station" data-id="900000100001" data-label="S+U Friedrichstr." cx="16887.247" cy="-21178.226" r="0.1" fill="#6f4e9c"></circle><circle class="station" data-id="900000100020" data-label="S+U Potsdamer Platz" cx="16886.303" cy="-21176.654" r="0.1" fill="#ff3300"></circle><circle class="station" data-id="900000057103" data-label="S+U Yorckstr." cx="16885.769" cy="-21174.265" r="0.1" fill="#3690c0"></circle><circle class="station" data-id="900000062202" data-label="S+U Rathaus Steglitz" cx="16881.557" cy="-21168.89" r="0.1" fill="#ff7300"></circle><circle class="station" data-id="900000130002" data-label="S+U Pankow" cx="16889.416" cy="-21184.985" r="0.1" fill="#ff3300"></circle><circle class="station" data-id="900000089303" data-label="S Tegel" cx="16878.633" cy="-21188.066" r="0.1" fill="#6f4e9c"></circle><circle class="station" data-id="900000096458" data-label="S+U Karl-Bonhoeffer-Nervenklinik" cx="16882.5" cy="-21186.525" r="0.1" fill="#0a3c85"></circle><circle class="station" data-id="900000029101" data-label="S Spandau" cx="16870.68" cy="-21180.301" r="0.1" fill="#3690c0"></circle><circle class="station" data-id="900000024101" data-label="S Charlottenburg" cx="16879.953" cy="-21175.994" r="0.1" fill="#3690c0"></circle><circle class="station transit" data-id="900000023201" data-label="S+U Zoologischer Garten" cx="16882.468" cy="-21176.309" r="0.13" fill="#333"></circle><circle class="station transit" data-id="900000100003" data-label="S+U Alexanderplatz" cx="16889.353" cy="-21178.415" r="0.13" fill="#333"></circle><circle class="station" data-id="900000100004" data-label="S+U Jannowitzbrücke" cx="16889.919" cy="-21177.535" r="0.1" fill="#0a3c85"></circle><circle class="station transit" data-id="900000120004" data-label="S+U Warschauer Str." cx="16892.622" cy="-21176.151" r="0.185" fill="#333"></circle><circle class="station" data-id="900000054105" data-label="S+U Innsbrucker Platz" cx="16883.38" cy="-21172.19" r="0.1" fill="#ffd900"></circle><circle class="station" data-id="900000044202" data-label="S+U Bundesplatz" cx="16882.154" cy="-21172.065" r="0.1" fill="#ff7300"></circle><circle class="station" data-id="900000045102" data-label="S+U Heidelberger Platz" cx="16880.645" cy="-21172.379" r="0.1" fill="#019377"></circle><circle class="station" data-id="900000024106" data-label="S Messe Nord/ICC" cx="16878.13" cy="-21176.246" r="0.1" fill="#ff3300"></circle><circle class="station" data-id="900000020201" data-label="S+U Jungfernheide" cx="16879.545" cy="-21179.672" r="0.1" fill="#3690c0"></circle><circle class="station" data-id="900000001201" data-label="S+U Westhafen" cx="16883.443" cy="-21180.521" r="0.1" fill="#ff7300"></circle><circle class="station" data-id="900000009104" data-label="S+U Wedding" cx="16885.392" cy="-21181.464" r="0.1" fill="#6f4e9c"></circle><circle class="station" data-id="900000110001" data-label="S+U Schönhauser Allee" cx="16889.667" cy="-21182.407" r="0.1" fill="#ff3300"></circle><circle class="station" data-id="900000120001" data-label="S+U Frankfurter Allee" cx="16894.917" cy="-21177.283" r="0.1" fill="#672f17"></circle><circle class="station" data-id="900000078201" data-label="S+U Neukölln" cx="16892.182" cy="-21170.902" r="0.1" fill="#3690c0"></circle><circle class="station" data-id="900000079221" data-label="S+U Hermannstr." cx="16891.113" cy="-21170.619" r="0.1" fill="#0a3c85"></circle><circle class="station" data-id="900000068201" data-label="S+U Tempelhof" cx="16887.121" cy="-21171.122" r="0.1" fill="#6f4e9c"></circle><circle class="station" data-id="900000160004" data-label="S+U Lichtenberg" cx="16896.929" cy="-21176.874" r="0.1" fill="#672f17"></circle><circle class="station" data-id="900000175001" data-label="S+U Wuhletal" cx="16903.594" cy="-21177.157" r="0.1" fill="#672f17"></circle><circle class="station transit" data-id="900000042101" data-label="U Spichernstr." cx="16882.28" cy="-21174.831" r="0.185" fill="#333"></circle><circle class="station transit" data-id="900000023202" data-label="U Augsburger Str." cx="16882.845" cy="-21175.397" r="0.185" fill="#333"></circle><circle class="station transit" data-id="900000056101" data-label="U Wittenbergplatz" cx="16883.348" cy="-21175.617" r="0.24" fill="#333"></circle><circle class="station transit" data-id="900000056102" data-label="U Nollendorfplatz" cx="16884.323" cy="-21175.271" r="0.24" fill="#333"></circle><circle class="station transit" data-id="900000005201" data-label="U Kurfürstenstr." cx="16885.109" cy="-21175.303" r="0.185" fill="#333"></circle><circle class="station transit" data-id="900000017103" data-label="U Gleisdreieck" cx="16886.115" cy="-21175.271" r="0.185" fill="#333"></circle><circle class="station transit" data-id="900000017104" data-label="U Möckernbrücke" cx="16886.901" cy="-21175.177" r="0.185" fill="#333"></circle><circle class="station transit" data-id="900000012103" data-label="U Hallesches Tor" cx="16887.624" cy="-21174.988" r="0.185" fill="#333"></circle><circle class="station transit" data-id="900000013103" data-label="U Prinzenstr." cx="16888.913" cy="-21175.083" r="0.185" fill="#333"></circle><circle class="station transit" data-id="900000013102" data-label="U Kottbusser Tor" cx="16889.919" cy="-21175.177" r="0.185" fill="#333"></circle><circle class="station transit" data-id="900000014101" data-label="U Görlitzer Bahnhof" cx="16890.83" cy="-21175.177" r="0.185" fill="#333"></circle><circle class="station transit" data-id="900000014102" data-label="U Schlesisches Tor" cx="16891.993" cy="-21175.491" r="0.185" fill="#333"></circle><circle class="station" data-id="900000025202" data-label="U Ruhleben" cx="16874.546" cy="-21178.981" r="0.1" fill="#ff3300"></circle><circle class="station" data-id="900000025203" data-label="U Olympia-Stadion" cx="16875.301" cy="-21177.755" r="0.1" fill="#ff3300"></circle><circle class="station" data-id="900000026101" data-label="U Neu-Westend" cx="16876.118" cy="-21177.66" r="0.1" fill="#ff3300"></circle><circle class="station" data-id="900000026201" data-label="Berlin, U Theodor-Heuss-Platz" cx="16877.25" cy="-21176.717" r="0.1" fill="#ff3300"></circle><circle class="station" data-id="900000022101" data-label="U Sophie-Charlotte-Platz" cx="16879.387" cy="-21176.906" r="0.1" fill="#ff3300"></circle><circle class="station transit" data-id="900000024201" data-label="U Bismarckstr." cx="16880.079" cy="-21176.969" r="0.13" fill="#333"></circle><circle class="station" data-id="900000022201" data-label="U Deutsche Oper" cx="16880.456" cy="-21177" r="0.1" fill="#ff3300"></circle><circle class="station" data-id="900000023101" data-label="U Ernst-Reuter-Platz" cx="16881.588" cy="-21176.969" r="0.1" fill="#ff3300"></circle><circle class="station" data-id="900000056104" data-label="U Bülowstr." cx="16885.077" cy="-21174.988" r="0.1" fill="#ff3300"></circle><circle class="station" data-id="900000005252" data-label="U Mendelssohn-Bartholdy-Park" cx="16886.146" cy="-21175.869" r="0.1" fill="#ff3300"></circle><circle class="station" data-id="900000100010" data-label="U Mohrenstr." cx="16886.932" cy="-21176.969" r="0.1" fill="#ff3300"></circle><circle class="station" data-id="900000100012" data-label="U Hausvogteiplatz" cx="16887.938" cy="-21177.22" r="0.1" fill="#ff3300"></circle><circle class="station" data-id="900000100013" data-label="U Spittelmarkt" cx="16888.567" cy="-21176.937" r="0.1" fill="#ff3300"></circle><circle class="station" data-id="900000100014" data-label="U Märkisches Museum" cx="16889.133" cy="-21177.032" r="0.1" fill="#ff3300"></circle><circle class="station" data-id="900000100015" data-label="U Klosterstr." cx="16889.447" cy="-21177.786" r="0.1" fill="#ff3300"></circle><circle class="station" data-id="900000100016" data-label="U Rosa-Luxemburg-Platz" cx="16889.259" cy="-21179.358" r="0.1" fill="#ff3300"></circle><circle class="station" data-id="900000110005" data-label="U Senefelderplatz" cx="16889.447" cy="-21179.987" r="0.1" fill="#ff3300"></circle><circle class="station" data-id="900000110006" data-label="U Eberswalder Str." cx="16889.416" cy="-21181.213" r="0.1" fill="#ff3300"></circle><circle class="station" data-id="900000130011" data-label="U Vinetastr." cx="16889.541" cy="-21183.853" r="0.1" fill="#ff3300"></circle><circle class="station" data-id="900000054101" data-label="U Rathaus Schöneberg" cx="16883.286" cy="-21172.913" r="0.1" fill="#ffd900"></circle><circle class="station transit" data-id="900000055102" data-label="U Bayerischer Platz" cx="16883.128" cy="-21173.699" r="0.13" fill="#333"></circle><circle class="station" data-id="900000055101" data-label="U Viktoria-Luise-Platz" cx="16883.411" cy="-21174.768" r="0.1" fill="#ffd900"></circle><circle class="station" data-id="900000100017" data-label="U Schillingstr." cx="16890.264" cy="-21178.226" r="0.1" fill="#672f17"></circle><circle class="station" data-id="900000120006" data-label="U Strausberger Platz" cx="16891.176" cy="-21177.912" r="0.1" fill="#672f17"></circle><circle class="station" data-id="900000120025" data-label="U Weberwiese" cx="16892.119" cy="-21177.723" r="0.1" fill="#672f17"></circle><circle class="station" data-id="900000120008" data-label="U Frankfurter Tor" cx="16893.062" cy="-21177.566" r="0.1" fill="#672f17"></circle><circle class="station" data-id="900000120009" data-label="U Samariterstr." cx="16894.068" cy="-21177.409" r="0.1" fill="#672f17"></circle><circle class="station" data-id="900000160005" data-label="U Magdalenenstr." cx="16896.175" cy="-21177.063" r="0.1" fill="#672f17"></circle><circle class="station" data-id="900000161512" data-label="U Friedrichsfelde" cx="16898.281" cy="-21176.089" r="0.1" fill="#672f17"></circle><circle class="station" data-id="900000161002" data-label="U Tierpark" cx="16899.161" cy="-21174.925" r="0.1" fill="#672f17"></circle><circle class="station" data-id="900000171005" data-label="U Biesdorf-Süd" cx="16901.204" cy="-21175.24" r="0.1" fill="#672f17"></circle><circle class="station" data-id="900000171006" data-label="U Elsterwerdaer Platz" cx="16902.399" cy="-21175.994" r="0.1" fill="#672f17"></circle><circle class="station" data-id="900000175004" data-label="U Kaulsdorf-Nord" cx="16904.851" cy="-21178.383" r="0.1" fill="#672f17"></circle><circle class="station" data-id="900000175705" data-label="U Kienberg" cx="16904.882" cy="-21179.232" r="0.1" fill="#672f17"></circle><circle class="station" data-id="900000175006" data-label="U Cottbusser Platz" cx="16905.543" cy="-21180.207" r="0.1" fill="#672f17"></circle><circle class="station" data-id="900000175007" data-label="U Hellersdorf" cx="16906.328" cy="-21180.49" r="0.1" fill="#672f17"></circle><circle class="station" data-id="900000175015" data-label="U Louis-Lewin-Str." cx="16907.555" cy="-21180.93" r="0.1" fill="#672f17"></circle><circle class="station" data-id="900000175010" data-label="U Hönow" cx="16908.843" cy="-21180.773" r="0.1" fill="#672f17"></circle><circle class="station" data-id="900000070301" data-label="U Alt-Mariendorf" cx="16887.247" cy="-21166.658" r="0.1" fill="#6f4e9c"></circle><circle class="station" data-id="900000070101" data-label="U Westphalweg" cx="16887.089" cy="-21167.538" r="0.1" fill="#6f4e9c"></circle><circle class="station" data-id="900000069271" data-label="U Ullsteinstr." cx="16887.027" cy="-21168.638" r="0.1" fill="#6f4e9c"></circle><circle class="station" data-id="900000068302" data-label="U Kaiserin-Augusta-Str." cx="16887.027" cy="-21169.644" r="0.1" fill="#6f4e9c"></circle><circle class="station" data-id="900000068202" data-label="U Alt-Tempelhof" cx="16887.121" cy="-21170.43" r="0.1" fill="#6f4e9c"></circle><circle class="station" data-id="900000068101" data-label="U Paradestr." cx="16887.184" cy="-21172.19" r="0.1" fill="#6f4e9c"></circle><circle class="station" data-id="900000017102" data-label="U Platz der Luftbrücke" cx="16887.152" cy="-21173.165" r="0.1" fill="#6f4e9c"></circle><circle class="station transit" data-id="900000017101" data-label="U Mehringdamm" cx="16887.309" cy="-21174.391" r="0.13" fill="#333"></circle><circle class="station" data-id="900000012102" data-label="U Kochstr./Checkpoint Charlie" cx="16887.561" cy="-21176.277" r="0.1" fill="#6f4e9c"></circle><circle class="station transit" data-id="900000100011" data-label="U Stadtmitte" cx="16887.467" cy="-21176.969" r="0.13" fill="#333"></circle><circle class="station" data-id="900000100027" data-label="U Französische Str." cx="16887.498" cy="-21177.44" r="0.1" fill="#6f4e9c"></circle><circle class="station" data-id="900000100019" data-label="U Oranienburger Tor" cx="16887.278" cy="-21178.918" r="0.1" fill="#6f4e9c"></circle><circle class="station" data-id="900000100009" data-label="U Naturkundemuseum" cx="16886.806" cy="-21179.798" r="0.1" fill="#6f4e9c"></circle><circle class="station" data-id="900000100501" data-label="U Schwartzkopffstr." cx="16886.335" cy="-21180.395" r="0.1" fill="#6f4e9c"></circle><circle class="station" data-id="900000008102" data-label="U Reinickendorfer Str." cx="16885.769" cy="-21181.056" r="0.1" fill="#6f4e9c"></circle><circle class="station transit" data-id="900000009102" data-label="U Leopoldplatz" cx="16884.795" cy="-21181.999" r="0.13" fill="#333"></circle><circle class="station" data-id="900000009103" data-label="U Seestr." cx="16884.166" cy="-21182.564" r="0.1" fill="#6f4e9c"></circle><circle class="station" data-id="900000011101" data-label="U Rehberge" cx="16883.191" cy="-21183.445" r="0.1" fill="#6f4e9c"></circle><circle class="station" data-id="900000011102" data-label="U Afrikanische Str." cx="16882.563" cy="-21184.042" r="0.1" fill="#6f4e9c"></circle><circle class="station" data-id="900000086102" data-label="U Kurt-Schumacher-Platz" cx="16881.997" cy="-21184.419" r="0.1" fill="#6f4e9c"></circle><circle class="station" data-id="900000087101" data-label="U Scharnweberstr." cx="16880.613" cy="-21184.954" r="0.1" fill="#6f4e9c"></circle><circle class="station" data-id="900000086101" data-label="U Otisstr." cx="16879.89" cy="-21185.52" r="0.1" fill="#6f4e9c"></circle><circle class="station" data-id="900000088201" data-label="U Holzhauser Str." cx="16879.199" cy="-21186.274" r="0.1" fill="#6f4e9c"></circle><circle class="station" data-id="900000088202" data-label="U Borsigwerke" cx="16878.759" cy="-21187.123" r="0.1" fill="#6f4e9c"></circle><circle class="station" data-id="900000083201" data-label="U Rudow" cx="16896.772" cy="-21163.231" r="0.1" fill="#3690c0"></circle><circle class="station" data-id="900000083101" data-label="U Zwickauer Damm" cx="16895.734" cy="-21164.3" r="0.1" fill="#3690c0"></circle><circle class="station" data-id="900000083102" data-label="U Wutzkyallee" cx="16894.886" cy="-21164.3" r="0.1" fill="#3690c0"></circle><circle class="station" data-id="900000082201" data-label="U Lipschitzallee" cx="16893.88" cy="-21164.52" r="0.1" fill="#3690c0"></circle><circle class="station" data-id="900000082202" data-label="U Johannisthaler Chaussee" cx="16893.062" cy="-21165.18" r="0.1" fill="#3690c0"></circle><circle class="station" data-id="900000080402" data-label="U Britz-Süd" cx="16892.528" cy="-21166.312" r="0.1" fill="#3690c0"></circle><circle class="station" data-id="900000080401" data-label="U Parchimer Allee" cx="16892.717" cy="-21167.475" r="0.1" fill="#3690c0"></circle><circle class="station" data-id="900000080201" data-label="U Blaschkoallee" cx="16892.622" cy="-21168.544" r="0.1" fill="#3690c0"></circle><circle class="station" data-id="900000080202" data-label="U Grenzallee" cx="16892.276" cy="-21170.084" r="0.1" fill="#3690c0"></circle><circle class="station" data-id="900000078103" data-label="U Karl-Marx-Str." cx="16891.836" cy="-21171.939" r="0.1" fill="#3690c0"></circle><circle class="station" data-id="900000078102" data-label="U Rathaus Neukölln" cx="16891.396" cy="-21172.599" r="0.1" fill="#3690c0"></circle><circle class="station transit" data-id="900000078101" data-label="U Hermannplatz" cx="16890.516" cy="-21173.448" r="0.13" fill="#333"></circle><circle class="station" data-id="900000016202" data-label="U Südstern" cx="16889.038" cy="-21173.762" r="0.1" fill="#3690c0"></circle><circle class="station" data-id="900000016101" data-label="U Gneisenaustr." cx="16887.938" cy="-21174.077" r="0.1" fill="#3690c0"></circle><circle class="station" data-id="900000054102" data-label="U Kleistpark" cx="16884.952" cy="-21174.014" r="0.1" fill="#3690c0"></circle><circle class="station" data-id="900000054103" data-label="U Eisenacher Str." cx="16884.009" cy="-21173.825" r="0.1" fill="#3690c0"></circle><circle class="station transit" data-id="900000044201" data-label="U Berliner Str." cx="16882.374" cy="-21173.448" r="0.13" fill="#333"></circle><circle class="station" data-id="900000041102" data-label="U Blissestr." cx="16881.431" cy="-21173.385" r="0.1" fill="#3690c0"></circle><circle class="station transit" data-id="900000041101" data-label="U Fehrbelliner Platz" cx="16880.896" cy="-21173.919" r="0.13" fill="#333"></circle><circle class="station" data-id="900000041201" data-label="U Konstanzer Str." cx="16880.488" cy="-21174.391" r="0.1" fill="#3690c0"></circle><circle class="station" data-id="900000023302" data-label="U Adenauerplatz" cx="16880.268" cy="-21175.334" r="0.1" fill="#3690c0"></circle><circle class="station" data-id="900000022202" data-label="U Richard-Wagner-Platz" cx="16880.268" cy="-21177.786" r="0.1" fill="#3690c0"></circle><circle class="station" data-id="900000019204" data-label="U Mierendorffplatz" cx="16880.111" cy="-21179.044" r="0.1" fill="#3690c0"></circle><circle class="station" data-id="900000018101" data-label="U Jakob-Kaiser-Platz" cx="16879.073" cy="-21180.615" r="0.1" fill="#3690c0"></circle><circle class="station" data-id="900000018102" data-label="U Halemweg" cx="16878.444" cy="-21180.584" r="0.1" fill="#3690c0"></circle><circle class="station" data-id="900000035101" data-label="U Siemensdamm" cx="16877.281" cy="-21180.615" r="0.1" fill="#3690c0"></circle><circle class="station" data-id="900000036101" data-label="U Rohrdamm" cx="16876.37" cy="-21180.615" r="0.1" fill="#3690c0"></circle><circle class="station" data-id="900000034101" data-label="U Paulsternstr." cx="16875.144" cy="-21180.773" r="0.1" fill="#3690c0"></circle><circle class="station" data-id="900000034102" data-label="U Haselhorst" cx="16873.697" cy="-21180.867" r="0.1" fill="#3690c0"></circle><circle class="station" data-id="900000033101" data-label="U Zitadelle" cx="16872.44" cy="-21180.71" r="0.1" fill="#3690c0"></circle><circle class="station" data-id="900000029301" data-label="U Altstadt Spandau" cx="16871.465" cy="-21180.93" r="0.1" fill="#3690c0"></circle><circle class="station" data-id="900000079201" data-label="U Leinestr." cx="16890.83" cy="-21171.436" r="0.1" fill="#0a3c85"></circle><circle class="station" data-id="900000079202" data-label="U Boddinstr." cx="16890.61" cy="-21172.411" r="0.1" fill="#0a3c85"></circle><circle class="station" data-id="900000016201" data-label="U Schönleinstr." cx="16890.296" cy="-21174.328" r="0.1" fill="#0a3c85"></circle><circle class="station" data-id="900000013101" data-label="U Moritzplatz" cx="16889.321" cy="-21175.869" r="0.1" fill="#0a3c85"></circle><circle class="station" data-id="900000100008" data-label="U Heinrich-Heine-Str." cx="16889.761" cy="-21176.874" r="0.1" fill="#0a3c85"></circle><circle class="station" data-id="900000100051" data-label="U Weinmeisterstr." cx="16888.818" cy="-21178.949" r="0.1" fill="#0a3c85"></circle><circle class="station" data-id="900000100023" data-label="U Rosenthaler Platz" cx="16888.473" cy="-21179.578" r="0.1" fill="#0a3c85"></circle><circle class="station" data-id="900000007110" data-label="U Bernauer Str." cx="16888.032" cy="-21180.773" r="0.1" fill="#0a3c85"></circle><circle class="station" data-id="900000007103" data-label="U Voltastr." cx="16887.75" cy="-21181.338" r="0.1" fill="#0a3c85"></circle><circle class="station" data-id="900000009203" data-label="U Pankstr." cx="16886.775" cy="-21182.816" r="0.1" fill="#0a3c85"></circle><circle class="station transit" data-id="900000009202" data-label="U Osloer Str." cx="16886.021" cy="-21183.476" r="0.13" fill="#333"></circle><circle class="station" data-id="900000085202" data-label="U Franz-Neumann-Platz" cx="16885.235" cy="-21184.482" r="0.1" fill="#0a3c85"></circle><circle class="station" data-id="900000085203" data-label="U Residenzstr." cx="16884.92" cy="-21185.488" r="0.1" fill="#0a3c85"></circle><circle class="station" data-id="900000085104" data-label="U Paracelsus-Bad" cx="16883.757" cy="-21186.022" r="0.1" fill="#0a3c85"></circle><circle class="station" data-id="900000086160" data-label="U Lindauer Allee" cx="16883.034" cy="-21186.148" r="0.1" fill="#0a3c85"></circle><circle class="station" data-id="900000096410" data-label="U Rathaus Reinickendorf" cx="16881.84" cy="-21187.972" r="0.1" fill="#0a3c85"></circle><circle class="station" data-id="900000062203" data-label="U Schloßstr." cx="16881.777" cy="-21169.738" r="0.1" fill="#ff7300"></circle><circle class="station" data-id="900000061101" data-label="U Walther-Schreiber-Platz" cx="16882.091" cy="-21170.304" r="0.1" fill="#ff7300"></circle><circle class="station" data-id="900000061102" data-label="U Friedrich-Wilhelm-Platz" cx="16882.122" cy="-21171.216" r="0.1" fill="#ff7300"></circle><circle class="station" data-id="900000043201" data-label="U Güntzelstr." cx="16882.342" cy="-21174.171" r="0.1" fill="#ff7300"></circle><circle class="station" data-id="900000023203" data-label="U Kurfürstendamm" cx="16882.374" cy="-21175.869" r="0.1" fill="#ff7300"></circle><circle class="station" data-id="900000003101" data-label="U Hansaplatz" cx="16883.317" cy="-21177.912" r="0.1" fill="#ff7300"></circle><circle class="station" data-id="900000003104" data-label="U Turmstr." cx="16883.223" cy="-21179.044" r="0.1" fill="#ff7300"></circle><circle class="station" data-id="900000002201" data-label="U Birkenstr." cx="16883.223" cy="-21179.955" r="0.1" fill="#ff7300"></circle><circle class="station" data-id="900000009101" data-label="U Amrumer Str." cx="16883.946" cy="-21181.37" r="0.1" fill="#ff7300"></circle><circle class="station" data-id="900000009201" data-label="U Nauener Platz" cx="16885.518" cy="-21182.722" r="0.1" fill="#ff7300"></circle><circle class="station" data-id="900000050201" data-label="U Krumme Lanke" cx="16874.421" cy="-21167.098" r="0.1" fill="#019377"></circle><circle class="station" data-id="900000050282" data-label="U Onkel Toms Hütte" cx="16875.615" cy="-21168.167" r="0.1" fill="#019377"></circle><circle class="station" data-id="900000051301" data-label="U Oskar-Helene-Heim" cx="16876.904" cy="-21168.198" r="0.1" fill="#019377"></circle><circle class="station" data-id="900000051201" data-label="U Freie Universität (Thielplatz)" cx="16878.004" cy="-21168.292" r="0.1" fill="#019377"></circle><circle class="station" data-id="900000051303" data-label="U Dahlem-Dorf" cx="16878.759" cy="-21169.267" r="0.1" fill="#019377"></circle><circle class="station" data-id="900000051302" data-label="U Podbielskiallee" cx="16879.199" cy="-21170.179" r="0.1" fill="#019377"></circle><circle class="station" data-id="900000051202" data-label="U Breitenbachplatz" cx="16880.425" cy="-21170.65" r="0.1" fill="#019377"></circle><circle class="station" data-id="900000045101" data-label="U Rüdesheimer Platz" cx="16880.865" cy="-21171.373" r="0.1" fill="#019377"></circle><circle class="station" data-id="900000043101" data-label="U Hohenzollernplatz" cx="16881.714" cy="-21174.422" r="0.1" fill="#019377"></circle></g></svg>