<svg xmlns="http://www.w3.org/2000/svg" width="746.28" height="582.12" viewBox="-11.27 -28.506 37.314 29.106"><style>
	.line {
		stroke: #333;
		stroke-width: .09;
		fill: none;
		stroke-linejoin: round;
		stroke-linecap: round;
	}
	.station {
		stroke: none;
	}
	.transit {
		stroke: #555;
		stroke-width: .05;
		fill: #fff;
	}
</style><g><path class="line U8" style="stroke: #0a3c85;" d="M9.849 -11.491L10.67 -12.311"></path><path class="line U1" style="stroke: #55a822;" d="M0.821 -14.024L1.642 -14.024"></path><path class="line U3" style="stroke: #019377;" d="M0.821 -13.882L1.642 -13.882"></path><path class="line U1" style="stroke: #55a822;" d="M1.642 -14.024L2.462 -14.024"></path><path class="line U3" style="stroke: #019377;" d="M1.642 -13.882L2.462 -13.882"></path><path class="line U1" style="stroke: #55a822;" d="M2.361 -14.054L3.182 -14.875"></path><path class="line U2" style="stroke: #ff3300;" d="M2.462 -13.953L3.283 -14.774"></path><path class="line U3" style="stroke: #019377;" d="M2.563 -13.852L3.384 -14.673"></path><path class="line U1" style="stroke: #55a822;" d="M3.283 -14.845L4.104 -14.845"></path><path class="line U3" style="stroke: #019377;" d="M3.283 -14.702L4.104 -14.702"></path><path class="line U1" style="stroke: #55a822;" d="M4.053 -14.824L4.874 -15.645"></path><path class="line U3" style="stroke: #019377;" d="M4.154 -14.723L4.975 -15.544"></path><path class="line U1" style="stroke: #55a822;" d="M4.874 -15.645L5.695 -16.466"></path><path class="line U3" style="stroke: #019377;" d="M4.975 -15.544L5.796 -16.365"></path><path class="line U1" style="stroke: #55a822;" d="M5.745 -16.487L6.566 -16.487"></path><path class="line U3" style="stroke: #019377;" d="M5.745 -16.344L6.566 -16.344"></path><path class="line U1" style="stroke: #55a822;" d="M6.566 -16.487L7.797 -16.487"></path><path class="line U3" style="stroke: #019377;" d="M6.566 -16.344L7.797 -16.344"></path><path class="line U1" style="stroke: #55a822;" d="M7.797 -16.487L9.028 -16.487"></path><path class="line U3" style="stroke: #019377;" d="M7.797 -16.344L9.028 -16.344"></path><path class="line U1" style="stroke: #55a822;" d="M9.028 -16.487L9.849 -16.487"></path><path class="line U3" style="stroke: #019377;" d="M9.028 -16.344L9.849 -16.344"></path><path class="line U1" style="stroke: #55a822;" d="M9.9 -16.466L10.72 -15.645"></path><path class="line U3" style="stroke: #019377;" d="M9.799 -16.365L10.619 -15.544"></path><path class="line U1" style="stroke: #55a822;" d="M10.72 -15.645L11.541 -14.824"></path><path class="line U3" style="stroke: #019377;" d="M10.619 -15.544L11.44 -14.723"></path><path class="line U2" style="stroke: #ff3300;" d="M-6.566 -10.67L-5.745 -11.491"></path><path class="line U2" style="stroke: #ff3300;" d="M-5.745 -11.491L-4.925 -12.311"></path><path class="line U2" style="stroke: #ff3300;" d="M-4.925 -12.311L-4.104 -12.311"></path><path class="line U2" style="stroke: #ff3300;" d="M-4.104 -12.311L-3.283 -12.311"></path><path class="line U2" style="stroke: #ff3300;" d="M-3.283 -12.311L-2.462 -12.311"></path><path class="line U2" style="stroke: #ff3300;" d="M-2.462 -12.311L-1.642 -12.311"></path><path class="line U2" style="stroke: #ff3300;" d="M-1.642 -12.311L-0.821 -12.311"></path><path class="line U2" style="stroke: #ff3300;" d="M-0.821 -12.311L0 -12.311"></path><path class="line U2" style="stroke: #ff3300;" d="M0 -12.311L0.821 -12.311"></path><path class="line U2" style="stroke: #ff3300;" d="M0.821 -12.311L2.462 -13.953"></path><path class="line U2" style="stroke: #ff3300;" d="M3.283 -14.774L4.104 -15.594"></path><path class="line U2" style="stroke: #ff3300;" d="M4.104 -15.594L4.925 -15.594"></path><path class="line U2" style="stroke: #ff3300;" d="M4.925 -15.594L4.925 -14.774"></path><path class="line U2" style="stroke: #ff3300;" d="M4.925 -14.774L4.925 -13.953"></path><path class="line U2" style="stroke: #ff3300;" d="M4.925 -13.953L5.745 -13.953"></path><path class="line U2" style="stroke: #ff3300;" d="M5.745 -13.953L6.566 -13.953"></path><path class="line U2" style="stroke: #ff3300;" d="M6.566 -13.953L7.387 -13.953"></path><path class="line U2" style="stroke: #ff3300;" d="M7.387 -13.953L8.208 -13.953"></path><path class="line U2" style="stroke: #ff3300;" d="M8.208 -13.953L9.028 -13.132"></path><path class="line U2" style="stroke: #ff3300;" d="M9.028 -13.132L9.849 -12.311"></path><path class="line U2" style="stroke: #ff3300;" d="M9.849 -12.311L9.849 -11.491"></path><path class="line U2" style="stroke: #ff3300;" d="M9.849 -11.491L9.849 -10.67"></path><path class="line U2" style="stroke: #ff3300;" d="M9.849 -10.67L9.849 -9.849"></path><path class="line U2" style="stroke: #ff3300;" d="M9.849 -9.849L9.849 -9.028"></path><path class="line U2" style="stroke: #ff3300;" d="M9.849 -9.028L9.849 -8.208"></path><path class="line U2" style="stroke: #ff3300;" d="M9.849 -8.208L9.849 -7.387"></path><path class="line U2" style="stroke: #ff3300;" d="M9.849 -7.387L9.849 -6.566"></path><path class="line U3" style="stroke: #019377;" d="M-5.745 -22.981L-4.925 -22.161"></path><path class="line U3" style="stroke: #019377;" d="M-4.925 -22.161L-4.104 -21.34"></path><path class="line U3" style="stroke: #019377;" d="M-4.104 -21.34L-3.283 -20.519"></path><path class="line U3" style="stroke: #019377;" d="M-3.283 -20.519L-2.462 -19.698"></path><path class="line U3" style="stroke: #019377;" d="M-2.462 -19.698L-1.642 -18.878"></path><path class="line U3" style="stroke: #019377;" d="M-1.642 -18.878L-0.821 -18.057"></path><path class="line U3" style="stroke: #019377;" d="M-0.821 -18.057L-0.821 -17.236"></path><path class="line U3" style="stroke: #019377;" d="M-0.821 -17.236L-0.821 -16.415"></path><path class="line U3" style="stroke: #019377;" d="M-0.821 -16.415L-0.821 -15.594"></path><path class="line U3" style="stroke: #019377;" d="M-0.821 -15.594L0 -14.774"></path><path class="line U3" style="stroke: #019377;" d="M0 -14.774L0.821 -13.953"></path><path class="line U4" style="stroke: #ffd900;" d="M2.462 -18.057L2.462 -17.236"></path><path class="line U4" style="stroke: #ffd900;" d="M2.462 -17.236L2.462 -16.415"></path><path class="line U4" style="stroke: #ffd900;" d="M2.462 -16.415L2.462 -15.594"></path><path class="line U4" style="stroke: #ffd900;" d="M2.462 -15.594L3.283 -14.774"></path><path class="line U5" style="stroke: #672f17;" d="M9.849 -11.491L10.67 -11.491"></path><path class="line U5" style="stroke: #672f17;" d="M10.67 -11.491L11.491 -11.491"></path><path class="line U5" style="stroke: #672f17;" d="M11.491 -11.491L12.311 -11.491"></path><path class="line U5" style="stroke: #672f17;" d="M12.311 -11.491L13.132 -11.491"></path><path class="line U5" style="stroke: #672f17;" d="M13.132 -11.491L13.953 -11.491"></path><path class="line U5" style="stroke: #672f17;" d="M13.953 -11.491L14.774 -11.491"></path><path class="line U5" style="stroke: #672f17;" d="M14.774 -11.491L15.594 -11.491"></path><path class="line U5" style="stroke: #672f17;" d="M15.594 -11.491L16.415 -11.491"></path><path class="line U5" style="stroke: #672f17;" d="M16.415 -11.491L17.236 -12.311"></path><path class="line U5" style="stroke: #672f17;" d="M17.236 -12.311L18.057 -13.132"></path><path class="line U5" style="stroke: #672f17;" d="M18.057 -13.132L18.878 -13.132"></path><path class="line U5" style="stroke: #672f17;" d="M18.878 -13.132L19.698 -12.311"></path><path class="line U5" style="stroke: #672f17;" d="M19.698 -12.311L20.519 -11.491"></path><path class="line U5" style="stroke: #672f17;" d="M20.519 -11.491L21.34 -10.67"></path><path class="line U5" style="stroke: #672f17;" d="M21.34 -10.67L22.161 -9.849"></path><path class="line U5" style="stroke: #672f17;" d="M22.161 -9.849L22.981 -9.028"></path><path class="line U5" style="stroke: #672f17;" d="M22.981 -9.028L23.802 -9.028"></path><path class="line U5" style="stroke: #672f17;" d="M23.802 -9.028L24.623 -9.028"></path><path class="line U5" style="stroke: #672f17;" d="M24.623 -9.028L25.444 -9.028"></path><path class="line U6" style="stroke: #6f4e9c;" d="M6.566 -23.802L6.566 -22.981"></path><path class="line U6" style="stroke: #6f4e9c;" d="M6.566 -22.981L6.566 -22.161"></path><path class="line U6" style="stroke: #6f4e9c;" d="M6.566 -22.161L6.566 -21.34"></path><path class="line U6" style="stroke: #6f4e9c;" d="M6.566 -21.34L6.566 -20.519"></path><path class="line U6" style="stroke: #6f4e9c;" d="M6.566 -20.519L6.566 -19.698"></path><path class="line U6" style="stroke: #6f4e9c;" d="M6.566 -19.698L6.566 -18.878"></path><path class="line U6" style="stroke: #6f4e9c;" d="M6.566 -18.878L6.566 -18.057"></path><path class="line U6" style="stroke: #6f4e9c;" d="M6.566 -18.057L6.566 -17.236"></path><path class="line U6" style="stroke: #6f4e9c;" d="M6.566 -17.236L6.566 -16.415"></path><path class="line U6" style="stroke: #6f4e9c;" d="M6.566 -16.415L6.566 -15.184"></path><path class="line U6" style="stroke: #6f4e9c;" d="M6.566 -15.184L6.566 -13.953"></path><path class="line U6" style="stroke: #6f4e9c;" d="M6.566 -13.953L6.566 -13.132"></path><path class="line U6" style="stroke: #6f4e9c;" d="M6.566 -13.132L6.566 -12.311"></path><path class="line U6" style="stroke: #6f4e9c;" d="M6.566 -12.311L6.566 -11.491"></path><path class="line U6" style="stroke: #6f4e9c;" d="M6.566 -11.491L5.745 -10.67"></path><path class="line U6" style="stroke: #6f4e9c;" d="M5.745 -10.67L4.925 -9.849"></path><path class="line U6" style="stroke: #6f4e9c;" d="M4.925 -9.849L4.104 -9.028"></path><path class="line U6" style="stroke: #6f4e9c;" d="M4.104 -9.028L3.283 -8.208"></path><path class="line U6" style="stroke: #6f4e9c;" d="M3.283 -8.208L2.462 -7.387"></path><path class="line U6" style="stroke: #6f4e9c;" d="M2.462 -7.387L1.642 -6.566"></path><path class="line U6" style="stroke: #6f4e9c;" d="M1.642 -6.566L0.821 -5.745"></path><path class="line U6" style="stroke: #6f4e9c;" d="M0.821 -5.745L0 -4.925"></path><path class="line U6" style="stroke: #6f4e9c;" d="M0 -4.925L-0.821 -4.104"></path><path class="line U6" style="stroke: #6f4e9c;" d="M-0.821 -4.104L-1.642 -3.283"></path><path class="line U6" style="stroke: #6f4e9c;" d="M-1.642 -3.283L-2.462 -2.462"></path><path class="line U6" style="stroke: #6f4e9c;" d="M-2.462 -2.462L-3.283 -1.642"></path><path class="line U6" style="stroke: #6f4e9c;" d="M-3.283 -1.642L-4.104 -0.821"></path><path class="line U6" style="stroke: #6f4e9c;" d="M-4.104 -0.821L-4.925 0"></path><path class="line U7" style="stroke: #3690c0;" d="M17.236 -27.906L16.415 -27.085"></path><path class="line U7" style="stroke: #3690c0;" d="M16.415 -27.085L15.594 -26.264"></path><path class="line U7" style="stroke: #3690c0;" d="M15.594 -26.264L14.774 -25.444"></path><path class="line U7" style="stroke: #3690c0;" d="M14.774 -25.444L13.953 -24.623"></path><path class="line U7" style="stroke: #3690c0;" d="M13.953 -24.623L13.953 -23.802"></path><path class="line U7" style="stroke: #3690c0;" d="M13.953 -23.802L13.953 -22.981"></path><path class="line U7" style="stroke: #3690c0;" d="M13.953 -22.981L13.132 -22.161"></path><path class="line U7" style="stroke: #3690c0;" d="M13.132 -22.161L12.311 -21.34"></path><path class="line U7" style="stroke: #3690c0;" d="M12.311 -21.34L11.491 -20.519"></path><path class="line U7" style="stroke: #3690c0;" d="M11.491 -20.519L10.67 -19.698"></path><path class="line U7" style="stroke: #3690c0;" d="M10.67 -19.698L9.849 -18.878"></path><path class="line U7" style="stroke: #3690c0;" d="M9.849 -18.878L9.028 -18.057"></path><path class="line U7" style="stroke: #3690c0;" d="M9.028 -18.057L8.208 -18.057"></path><path class="line U7" style="stroke: #3690c0;" d="M8.208 -18.057L7.387 -18.057"></path><path class="line U7" style="stroke: #3690c0;" d="M7.387 -18.057L6.566 -17.236"></path><path class="line U7" style="stroke: #3690c0;" d="M6.566 -17.236L5.745 -16.415"></path><path class="line U7" style="stroke: #3690c0;" d="M5.745 -16.415L4.925 -16.415"></path><path class="line U7" style="stroke: #3690c0;" d="M4.925 -16.415L4.104 -16.415"></path><path class="line U7" style="stroke: #3690c0;" d="M4.104 -16.415L3.283 -16.415"></path><path class="line U7" style="stroke: #3690c0;" d="M3.283 -16.415L2.462 -16.415"></path><path class="line U7" style="stroke: #3690c0;" d="M2.462 -16.415L0.821 -16.415"></path><path class="line U7" style="stroke: #3690c0;" d="M0.821 -16.415L0 -16.415"></path><path class="line U7" style="stroke: #3690c0;" d="M0 -16.415L-0.821 -15.594"></path><path class="line U7" style="stroke: #3690c0;" d="M-0.821 -15.594L-1.642 -14.774"></path><path class="line U7" style="stroke: #3690c0;" d="M-1.642 -14.774L-1.642 -13.953"></path><path class="line U7" style="stroke: #3690c0;" d="M-1.642 -13.953L-1.642 -13.132"></path><path class="line U7" style="stroke: #3690c0;" d="M-1.642 -13.132L-1.642 -12.311"></path><path class="line U7" style="stroke: #3690c0;" d="M-1.642 -12.311L-1.642 -11.491"></path><path class="line U7" style="stroke: #3690c0;" d="M-1.642 -11.491L-2.462 -10.67"></path><path class="line U7" style="stroke: #3690c0;" d="M-2.462 -10.67L-3.283 -9.849"></path><path class="line U7" style="stroke: #3690c0;" d="M-3.283 -9.849L-4.104 -9.028"></path><path class="line U7" style="stroke: #3690c0;" d="M-4.104 -9.028L-4.925 -9.028"></path><path class="line U7" style="stroke: #3690c0;" d="M-4.925 -9.028L-5.745 -9.028"></path><path class="line U7" style="stroke: #3690c0;" d="M-5.745 -9.028L-6.566 -9.028"></path><path class="line U7" style="stroke: #3690c0;" d="M-6.566 -9.028L-7.387 -9.028"></path><path class="line U7" style="stroke: #3690c0;" d="M-7.387 -9.028L-8.208 -9.028"></path><path class="line U7" style="stroke: #3690c0;" d="M-8.208 -9.028L-9.028 -9.028"></path><path class="line U7" style="stroke: #3690c0;" d="M-9.028 -9.028L-9.849 -9.028"></path><path class="line U7" style="stroke: #3690c0;" d="M-9.849 -9.028L-10.67 -9.028"></path><path class="line U8" style="stroke: #0a3c85;" d="M9.028 -20.519L9.028 -19.698"></path><path class="line U8" style="stroke: #0a3c85;" d="M9.028 -19.698L9.028 -18.878"></path><path class="line U8" style="stroke: #0a3c85;" d="M9.028 -18.878L9.028 -18.057"></path><path class="line U8" style="stroke: #0a3c85;" d="M9.028 -18.057L9.028 -17.236"></path><path class="line U8" style="stroke: #0a3c85;" d="M9.028 -17.236L9.028 -16.415"></path><path class="line U8" style="stroke: #0a3c85;" d="M9.028 -16.415L9.028 -15.184"></path><path class="line U8" style="stroke: #0a3c85;" d="M9.028 -15.184L10.67 -13.543"></path><path class="line U8" style="stroke: #0a3c85;" d="M10.67 -13.543L10.67 -12.311"></path><path class="line U8" style="stroke: #0a3c85;" d="M9.849 -11.491L9.028 -10.67"></path><path class="line U8" style="stroke: #0a3c85;" d="M9.028 -10.67L8.208 -9.849"></path><path class="line U8" style="stroke: #0a3c85;" d="M8.208 -9.849L7.387 -9.028"></path><path class="line U8" style="stroke: #0a3c85;" d="M7.387 -9.028L6.566 -8.208"></path><path class="line U8" style="stroke: #0a3c85;" d="M6.566 -8.208L5.745 -7.387"></path><path class="line U8" style="stroke: #0a3c85;" d="M5.745 -7.387L4.925 -6.566"></path><path class="line U8" style="stroke: #0a3c85;" d="M4.925 -6.566L4.104 -5.745"></path><path class="line U8" style="stroke: #0a3c85;" d="M4.104 -5.745L3.283 -4.925"></path><path class="line U8" style="stroke: #0a3c85;" d="M3.283 -4.925L2.462 -4.104"></path><path class="line U8" style="stroke: #0a3c85;" d="M2.462 -4.104L1.642 -3.283"></path><path class="line U8" style="stroke: #0a3c85;" d="M1.642 -3.283L0.821 -2.462"></path><path class="line U8" style="stroke: #0a3c85;" d="M0.821 -2.462L0 -1.642"></path><path class="line U8" style="stroke: #0a3c85;" d="M0 -1.642L0 -0.821"></path><path class="line U8" style="stroke: #0a3c85;" d="M0 -0.821L0 0"></path><path class="line U9" style="stroke: #ff7300;" d="M0.821 -20.519L0.821 -19.698"></path><path class="line U9" style="stroke: #ff7300;" d="M0.821 -19.698L0.821 -18.878"></path><path class="line U9" style="stroke: #ff7300;" d="M0.821 -18.878L0.821 -18.057"></path><path class="line U9" style="stroke: #ff7300;" d="M0.821 -18.057L0.821 -17.236"></path><path class="line U9" style="stroke: #ff7300;" d="M0.821 -17.236L0.821 -16.415"></path><path class="line U9" style="stroke: #ff7300;" d="M0.821 -16.415L0.821 -15.594"></path><path class="line U9" style="stroke: #ff7300;" d="M0.821 -15.594L0.821 -13.953"></path><path class="line U9" style="stroke: #ff7300;" d="M0.821 -13.953L0.821 -13.132"></path><path class="line U9" style="stroke: #ff7300;" d="M0.821 -13.132L0.821 -12.311"></path><path class="line U9" style="stroke: #ff7300;" d="M0.821 -12.311L0.821 -11.491"></path><path class="line U9" style="stroke: #ff7300;" d="M0.821 -11.491L0.821 -10.67"></path><path class="line U9" style="stroke: #ff7300;" d="M0.821 -10.67L0.821 -9.849"></path><path class="line U9" style="stroke: #ff7300;" d="M0.821 -9.849L0.821 -9.028"></path><path class="line U9" style="stroke: #ff7300;" d="M0.821 -9.028L1.642 -8.208"></path><path class="line U9" style="stroke: #ff7300;" d="M1.642 -8.208L2.462 -7.387"></path><path class="line U9" style="stroke: #ff7300;" d="M2.462 -7.387L3.283 -6.566"></path><path class="line U9" style="stroke: #ff7300;" d="M3.283 -6.566L4.104 -5.745"></path><circle class="station" data-id="900000096101" data-label="S+U Wittenau" r="0.1" fill="#0a3c85"></circle><circle class="station" data-id="900000007102" data-label="S+U Gesundbrunnen" cx="5.745" cy="-7.387" r="0.1" fill="#0a3c85"></circle><circle class="station" data-id="900000100001" data-label="S+U Friedrichstr." cx="6.566" cy="-12.311" r="0.1" fill="#6f4e9c"></circle><circle class="station" data-id="900000100020" data-label="S+U Potsdamer Platz" cx="4.925" cy="-13.953" r="0.1" fill="#ff3300"></circle><circle class="station" data-id="900000057103" data-label="S+U Yorckstr." cx="4.925" cy="-16.415" r="0.1" fill="#3690c0"></circle><circle class="station" data-id="900000062202" data-label="S+U Rathaus Steglitz" cx="0.821" cy="-20.519" r="0.1" fill="#ff7300"></circle><circle class="station" data-id="900000130002" data-label="S+U Pankow" cx="9.849" cy="-6.566" r="0.1" fill="#ff3300"></circle><circle class="station" data-id="900000089303" data-label="S Tegel" cx="-4.925" r="0.1" fill="#6f4e9c"></circle><circle class="station" data-id="900000096458" data-label="S+U Karl-Bonhoeffer-Nervenklinik" cy="-1.642" r="0.1" fill="#0a3c85"></circle><circle class="station" data-id="900000029101" data-label="S Spandau" cx="-10.67" cy="-9.028" r="0.1" fill="#3690c0"></circle><circle class="station" data-id="900000024101" data-label="S Charlottenburg" cx="-1.642" cy="-13.132" r="0.1" fill="#3690c0"></circle><circle class="station transit" data-id="900000023201" data-label="S+U Zoologischer Garten" cx="0.821" cy="-12.311" r="0.13" fill="#333"></circle><circle class="station transit" data-id="900000100003" data-label="S+U Alexanderplatz" cx="9.849" cy="-11.491" r="0.13" fill="#333"></circle><circle class="station" data-id="900000100004" data-label="S+U Jannowitzbrücke" cx="10.67" cy="-12.311" r="0.1" fill="#0a3c85"></circle><circle class="station transit" data-id="900000120004" data-label="S+U Warschauer Str." cx="11.491" cy="-14.774" r="0.185" fill="#333"></circle><circle class="station" data-id="900000054105" data-label="S+U Innsbrucker Platz" cx="2.462" cy="-18.057" r="0.1" fill="#ffd900"></circle><circle class="station" data-id="900000044202" data-label="S+U Bundesplatz" cx="0.821" cy="-17.236" r="0.1" fill="#ff7300"></circle><circle class="station" data-id="900000045102" data-label="S+U Heidelberger Platz" cx="-0.821" cy="-16.415" r="0.1" fill="#019377"></circle><circle class="station" data-id="900000024106" data-label="S Messe Nord/ICC" cx="-3.283" cy="-12.311" r="0.1" fill="#ff3300"></circle><circle class="station" data-id="900000020201" data-label="S+U Jungfernheide" cx="-3.283" cy="-9.849" r="0.1" fill="#3690c0"></circle><circle class="station" data-id="900000001201" data-label="S+U Westhafen" cx="0.821" cy="-9.028" r="0.1" fill="#ff7300"></circle><circle class="station" data-id="900000009104" data-label="S+U Wedding" cx="3.283" cy="-8.208" r="0.1" fill="#6f4e9c"></circle><circle class="station" data-id="900000110001" data-label="S+U Schönhauser Allee" cx="9.849" cy="-8.208" r="0.1" fill="#ff3300"></circle><circle class="station" data-id="900000120001" data-label="S+U Frankfurter Allee" cx="14.774" cy="-11.491" r="0.1" fill="#672f17"></circle><circle class="station" data-id="900000078201" data-label="S+U Neukölln" cx="11.491" cy="-20.519" r="0.1" fill="#3690c0"></circle><circle class="station" data-id="900000079221" data-label="S+U Hermannstr." cx="9.028" cy="-20.519" r="0.1" fill="#0a3c85"></circle><circle class="station" data-id="900000068201" data-label="S+U Tempelhof" cx="6.566" cy="-19.698" r="0.1" fill="#6f4e9c"></circle><circle class="station" data-id="900000160004" data-label="S+U Lichtenberg" cx="16.415" cy="-11.491" r="0.1" fill="#672f17"></circle><circle class="station" data-id="900000175001" data-label="S+U Wuhletal" cx="20.519" cy="-11.491" r="0.1" fill="#672f17"></circle><circle class="station transit" data-id="900000042101" data-label="U Spichernstr." cx="0.821" cy="-13.953" r="0.185" fill="#333"></circle><circle class="station transit" data-id="900000023202" data-label="U Augsburger Str." cx="1.642" cy="-13.953" r="0.185" fill="#333"></circle><circle class="station transit" data-id="900000056101" data-label="U Wittenbergplatz" cx="2.462" cy="-13.953" r="0.24" fill="#333"></circle><circle class="station transit" data-id="900000056102" data-label="U Nollendorfplatz" cx="3.283" cy="-14.774" r="0.24" fill="#333"></circle><circle class="station transit" data-id="900000005201" data-label="U Kurfürstenstr." cx="4.104" cy="-14.774" r="0.185" fill="#333"></circle><circle class="station transit" data-id="900000017103" data-label="U Gleisdreieck" cx="4.925" cy="-15.594" r="0.185" fill="#333"></circle><circle class="station transit" data-id="900000017104" data-label="U Möckernbrücke" cx="5.745" cy="-16.415" r="0.185" fill="#333"></circle><circle class="station transit" data-id="900000012103" data-label="U Hallesches Tor" cx="6.566" cy="-16.415" r="0.185" fill="#333"></circle><circle class="station transit" data-id="900000013103" data-label="U Prinzenstr." cx="7.797" cy="-16.415" r="0.185" fill="#333"></circle><circle class="station transit" data-id="900000013102" data-label="U Kottbusser Tor" cx="9.028" cy="-16.415" r="0.185" fill="#333"></circle><circle class="station transit" data-id="900000014101" data-label="U Görlitzer Bahnhof" cx="9.849" cy="-16.415" r="0.185" fill="#333"></circle><circle class="station transit" data-id="900000014102" data-label="U Schlesisches Tor" cx="10.67" cy="-15.594" r="0.185" fill="#333"></circle><circle class="station" data-id="900000025202" data-label="U Ruhleben" cx="-6.566" cy="-10.67" r="0.1" fill="#ff3300"></circle><circle class="station" data-id="900000025203" data-label="U Olympia-Stadion" cx="-5.745" cy="-11.491" r="0.1" fill="#ff3300"></circle><circle class="station" data-id="900000026101" data-label="U Neu-Westend" cx="-4.925" cy="-12.311" r="0.1" fill="#ff3300"></circle><circle class="station" data-id="900000026201" data-label="Berlin, U Theodor-Heuss-Platz" cx="-4.104" cy="-12.311" r="0.1" fill="#ff3300"></circle><circle class="station" data-id="900000022101" data-label="U Sophie-Charlotte-Platz" cx="-2.462" cy="-12.311" r="0.1" fill="#ff3300"></circle><circle class="station transit" data-id="900000024201" data-label="U Bismarckstr." cx="-1.642" cy="-12.311" r="0.13" fill="#333"></circle><circle class="station" data-id="900000022201" data-label="U Deutsche Oper" cx="-0.821" cy="-12.311" r="0.1" fill="#ff3300"></circle><circle class="station" data-id="900000023101" data-label="U Ernst-Reuter-Platz" cy="-12.311" r="0.1" fill="#ff3300"></circle><circle class="station" data-id="900000056104" data-label="U Bülowstr." cx="4.104" cy="-15.594" r="0.1" fill="#ff3300"></circle><circle class="station" data-id="900000005252" data-label="U Mendelssohn-Bartholdy-Park" cx="4.925" cy="-14.774" r="0.1" fill="#ff3300"></circle><circle class="station" data-id="900000100010" data-label="U Mohrenstr." cx="5.745" cy="-13.953" r="0.1" fill="#ff3300"></circle><circle class="station" data-id="900000100012" data-label="U Hausvogteiplatz" cx="7.387" cy="-13.953" r="0.1" fill="#ff3300"></circle><circle class="station" data-id="900000100013" data-label="U Spittelmarkt" cx="8.208" cy="-13.953" r="0.1" fill="#ff3300"></circle><circle class="station" data-id="900000100014" data-label="U Märkisches Museum" cx="9.028" cy="-13.132" r="0.1" fill="#ff3300"></circle><circle class="station" data-id="900000100015" data-label="U Klosterstr." cx="9.849" cy="-12.311" r="0.1" fill="#ff3300"></circle><circle class="station" data-id="900000100016" data-label="U Rosa-Luxemburg-Platz" cx="9.849" cy="-10.67" r="0.1" fill="#ff3300"></circle><circle class="station" data-id="900000110005" data-label="U Senefelderplatz" cx="9.849" cy="-9.849" r="0.1" fill="#ff3300"></circle><circle class="station" data-id="900000110006" data-label="U Eberswalder Str." cx="9.849" cy="-9.028" r="0.1" fill="#ff3300"></circle><circle class="station" data-id="900000130011" data-label="U Vinetastr." cx="9.849" cy="-7.387" r="0.1" fill="#ff3300"></circle><circle class="station" data-id="900000054101" data-label="U Rathaus Schöneberg" cx="2.462" cy="-17.236" r="0.1" fill="#ffd900"></circle><circle class="station transit" data-id="900000055102" data-label="U Bayerischer Platz" cx="2.462" cy="-16.415" r="0.13" fill="#333"></circle><circle class="station" data-id="900000055101" data-label="U Viktoria-Luise-Platz" cx="2.462" cy="-15.594" r="0.1" fill="#ffd900"></circle><circle class="station" data-id="900000100017" data-label="U Schillingstr." cx="10.67" cy="-11.491" r="0.1" fill="#672f17"></circle><circle class="station" data-id="900000120006" data-label="U Strausberger Platz" cx="11.491" cy="-11.491" r="0.1" fill="#672f17"></circle><circle class="station" data-id="900000120025" data-label="U Weberwiese" cx="12.311" cy="-11.491" r="0.1" fill="#672f17"></circle><circle class="station" data-id="900000120008" data-label="U Frankfurter Tor" cx="13.132" cy="-11.491" r="0.1" fill="#672f17"></circle><circle class="station" data-id="900000120009" data-label="U Samariterstr." cx="13.953" cy="-11.491" r="0.1" fill="#672f17"></circle><circle class="station" data-id="900000160005" data-label="U Magdalenenstr." cx="15.594" cy="-11.491" r="0.1" fill="#672f17"></circle><circle class="station" data-id="900000161512" data-label="U Friedrichsfelde" cx="17.236" cy="-12.311" r="0.1" fill="#672f17"></circle><circle class="station" data-id="900000161002" data-label="U Tierpark" cx="18.057" cy="-13.132" r="0.1" fill="#672f17"></circle><circle class="station" data-id="900000171005" data-label="U Biesdorf-Süd" cx="18.878" cy="-13.132" r="0.1" fill="#672f17"></circle><circle class="station" data-id="900000171006" data-label="U Elsterwerdaer Platz" cx="19.698" cy="-12.311" r="0.1" fill="#672f17"></circle><circle class="station" data-id="900000175004" data-label="U Kaulsdorf-Nord" cx="21.34" cy="-10.67" r="0.1" fill="#672f17"></circle><circle class="station" data-id="900000175705" data-label="U Kienberg" cx="22.161" cy="-9.849" r="0.1" fill="#672f17"></circle><circle class="station" data-id="900000175006" data-label="U Cottbusser Platz" cx="22.981" cy="-9.028" r="0.1" fill="#672f17"></circle><circle class="station" data-id="900000175007" data-label="U Hellersdorf" cx="23.802" cy="-9.028" r="0.1" fill="#672f17"></circle><circle class="station" data-id="900000175015" data-label="U Louis-Lewin-Str." cx="24.623" cy="-9.028" r="0.1" fill="#672f17"></circle><circle class="station" data-id="900000175010" data-label="U Hönow" cx="25.444" cy="-9.028" r="0.1" fill="#672f17"></circle><circle class="station" data-id="900000070301" data-label="U Alt-Mariendorf" cx="6.566" cy="-23.802" r="0.1" fill="#6f4e9c"></circle><circle class="station" data-id="900000070101" data-label="U Westphalweg" cx="6.566" cy="-22.981" r="0.1" fill="#6f4e9c"></circle><circle class="station" data-id="900000069271" data-label="U Ullsteinstr." cx="6.566" cy="-22.161" r="0.1" fill="#6f4e9c"></circle><circle class="station" data-id="900000068302" data-label="U Kaiserin-Augusta-Str." cx="6.566" cy="-21.34" r="0.1" fill="#6f4e9c"></circle><circle class="station" data-id="900000068202" data-label="U Alt-Tempelhof" cx="6.566" cy="-20.519" r="0.1" fill="#6f4e9c"></circle><circle class="station" data-id="900000068101" data-label="U Paradestr." cx="6.566" cy="-18.878" r="0.1" fill="#6f4e9c"></circle><circle class="station" data-id="900000017102" data-label="U Platz der Luftbrücke" cx="6.566" cy="-18.057" r="0.1" fill="#6f4e9c"></circle><circle class="station transit" data-id="900000017101" data-label="U Mehringdamm" cx="6.566" cy="-17.236" r="0.13" fill="#333"></circle><circle class="station" data-id="900000012102" data-label="U Kochstr./Checkpoint Charlie" cx="6.566" cy="-15.184" r="0.1" fill="#6f4e9c"></circle><circle class="station transit" data-id="900000100011" data-label="U Stadtmitte" cx="6.566" cy="-13.953" r="0.13" fill="#333"></circle><circle class="station" data-id="900000100027" data-label="U Französische Str." cx="6.566" cy="-13.132" r="0.1" fill="#6f4e9c"></circle><circle class="station" data-id="900000100019" data-label="U Oranienburger Tor" cx="6.566" cy="-11.491" r="0.1" fill="#6f4e9c"></circle><circle class="station" data-id="900000100009" data-label="U Naturkundemuseum" cx="5.745" cy="-10.67" r="0.1" fill="#6f4e9c"></circle><circle class="station" data-id="900000100501" data-label="U Schwartzkopffstr." cx="4.925" cy="-9.849" r="0.1" fill="#6f4e9c"></circle><circle class="station" data-id="900000008102" data-label="U Reinickendorfer Str." cx="4.104" cy="-9.028" r="0.1" fill="#6f4e9c"></circle><circle class="station transit" data-id="900000009102" data-label="U Leopoldplatz" cx="2.462" cy="-7.387" r="0.13" fill="#333"></circle><circle class="station" data-id="900000009103" data-label="U Seestr." cx="1.642" cy="-6.566" r="0.1" fill="#6f4e9c"></circle><circle class="station" data-id="900000011101" data-label="U Rehberge" cx="0.821" cy="-5.745" r="0.1" fill="#6f4e9c"></circle><circle class="station" data-id="900000011102" data-label="U Afrikanische Str." cy="-4.925" r="0.1" fill="#6f4e9c"></circle><circle class="station" data-id="900000086102" data-label="U Kurt-Schumacher-Platz" cx="-0.821" cy="-4.104" r="0.1" fill="#6f4e9c"></circle><circle class="station" data-id="900000087101" data-label="U Scharnweberstr." cx="-1.642" cy="-3.283" r="0.1" fill="#6f4e9c"></circle><circle class="station" data-id="900000086101" data-label="U Otisstr." cx="-2.462" cy="-2.462" r="0.1" fill="#6f4e9c"></circle><circle class="station" data-id="900000088201" data-label="U Holzhauser Str." cx="-3.283" cy="-1.642" r="0.1" fill="#6f4e9c"></circle><circle class="station" data-id="900000088202" data-label="U Borsigwerke" cx="-4.104" cy="-0.821" r="0.1" fill="#6f4e9c"></circle><circle class="station" data-id="900000083201" data-label="U Rudow" cx="17.236" cy="-27.906" r="0.1" fill="#3690c0"></circle><circle class="station" data-id="900000083101" data-label="U Zwickauer Damm" cx="16.415" cy="-27.085" r="0.1" fill="#3690c0"></circle><circle class="station" data-id="900000083102" data-label="U Wutzkyallee" cx="15.594" cy="-26.264" r="0.1" fill="#3690c0"></circle><circle class="station" data-id="900000082201" data-label="U Lipschitzallee" cx="14.774" cy="-25.444" r="0.1" fill="#3690c0"></circle><circle class="station" data-id="900000082202" data-label="U Johannisthaler Chaussee" cx="13.953" cy="-24.623" r="0.1" fill="#3690c0"></circle><circle class="station" data-id="900000080402" data-label="U Britz-Süd" cx="13.953" cy="-23.802" r="0.1" fill="#3690c0"></circle><circle class="station" data-id="900000080401" data-label="U Parchimer Allee" cx="13.953" cy="-22.981" r="0.1" fill="#3690c0"></circle><circle class="station" data-id="900000080201" data-label="U Blaschkoallee" cx="13.132" cy="-22.161" r="0.1" fill="#3690c0"></circle><circle class="station" data-id="900000080202" data-label="U Grenzallee" cx="12.311" cy="-21.34" r="0.1" fill="#3690c0"></circle><circle class="station" data-id="900000078103" data-label="U Karl-Marx-Str." cx="10.67" cy="-19.698" r="0.1" fill="#3690c0"></circle><circle class="station" data-id="900000078102" data-label="U Rathaus Neukölln" cx="9.849" cy="-18.878" r="0.1" fill="#3690c0"></circle><circle class="station transit" data-id="900000078101" data-label="U Hermannplatz" cx="9.028" cy="-18.057" r="0.13" fill="#333"></circle><circle class="station" data-id="900000016202" data-label="U Südstern" cx="8.208" cy="-18.057" r="0.1" fill="#3690c0"></circle><circle class="station" data-id="900000016101" data-label="U Gneisenaustr." cx="7.387" cy="-18.057" r="0.1" fill="#3690c0"></circle><circle class="station" data-id="900000054102" data-label="U Kleistpark" cx="4.104" cy="-16.415" r="0.1" fill="#3690c0"></circle><circle class="station" data-id="900000054103" data-label="U Eisenacher Str." cx="3.283" cy="-16.415" r="0.1" fill="#3690c0"></circle><circle class="station transit" data-id="900000044201" data-label="U Berliner Str." cx="0.821" cy="-16.415" r="0.13" fill="#333"></circle><circle class="station" data-id="900000041102" data-label="U Blissestr." cy="-16.415" r="0.1" fill="#3690c0"></circle><circle class="station transit" data-id="900000041101" data-label="U Fehrbelliner Platz" cx="-0.821" cy="-15.594" r="0.13" fill="#333"></circle><circle class="station" data-id="900000041201" data-label="U Konstanzer Str." cx="-1.642" cy="-14.774" r="0.1" fill="#3690c0"></circle><circle class="station" data-id="900000023302" data-label="U Adenauerplatz" cx="-1.642" cy="-13.953" r="0.1" fill="#3690c0"></circle><circle class="station" data-id="900000022202" data-label="U Richard-Wagner-Platz" cx="-1.642" cy="-11.491" r="0.1" fill="#3690c0"></circle><circle class="station" data-id="900000019204" data-label="U Mierendorffplatz" cx="-2.462" cy="-10.67" r="0.1" fill="#3690c0"></circle><circle class="station" data-id="900000018101" data-label="U Jakob-Kaiser-Platz" cx="-4.104" cy="-9.028" r="0.1" fill="#3690c0"></circle><circle class="station" data-id="900000018102" data-label="U Halemweg" cx="-4.925" cy="-9.028" r="0.1" fill="#3690c0"></circle><circle class="station" data-id="900000035101" data-label="U Siemensdamm" cx="-5.745" cy="-9.028" r="0.1" fill="#3690c0"></circle><circle class="station" data-id="900000036101" data-label="U Rohrdamm" cx="-6.566" cy="-9.028" r="0.1" fill="#3690c0"></circle><circle class="station" data-id="900000034101" data-label="U Paulsternstr." cx="-7.387" cy="-9.028" r="0.1" fill="#3690c0"></circle><circle class="station" data-id="900000034102" data-label="U Haselhorst" cx="-8.208" cy="-9.028" r="0.1" fill="#3690c0"></circle><circle class="station" data-id="900000033101" data-label="U Zitadelle" cx="-9.028" cy="-9.028" r="0.1" fill="#3690c0"></circle><circle class="station" data-id="900000029301" data-label="U Altstadt Spandau" cx="-9.849" cy="-9.028" r="0.1" fill="#3690c0"></circle><circle class="station" data-id="900000079201" data-label="U Leinestr." cx="9.028" cy="-19.698" r="0.1" fill="#0a3c85"></circle><circle class="station" data-id="900000079202" data-label="U Boddinstr." cx="9.028" cy="-18.878" r="0.1" fill="#0a3c85"></circle><circle class="station" data-id="900000016201" data-label="U Schönleinstr." cx="9.028" cy="-17.236" r="0.1" fill="#0a3c85"></circle><circle class="station" data-id="900000013101" data-label="U Moritzplatz" cx="9.028" cy="-15.184" r="0.1" fill="#0a3c85"></circle><circle class="station" data-id="900000100008" data-label="U Heinrich-Heine-Str." cx="10.67" cy="-13.543" r="0.1" fill="#0a3c85"></circle><circle class="station" data-id="900000100051" data-label="U Weinmeisterstr." cx="9.028" cy="-10.67" r="0.1" fill="#0a3c85"></circle><circle class="station" data-id="900000100023" data-label="U Rosenthaler Platz" cx="8.208" cy="-9.849" r="0.1" fill="#0a3c85"></circle><circle class="station" data-id="900000007110" data-label="U Bernauer Str." cx="7.387" cy="-9.028" r="0.1" fill="#0a3c85"></circle><circle class="station" data-id="900000007103" data-label="U Voltastr." cx="6.566" cy="-8.208" r="0.1" fill="#0a3c85"></circle><circle class="station" data-id="900000009203" data-label="U Pankstr." cx="4.925" cy="-6.566" r="0.1" fill="#0a3c85"></circle><circle class="station transit" data-id="900000009202" data-label="U Osloer Str." cx="4.104" cy="-5.745" r="0.13" fill="#333"></circle><circle class="station" data-id="900000085202" data-label="U Franz-Neumann-Platz" cx="3.283" cy="-4.925" r="0.1" fill="#0a3c85"></circle><circle class="station" data-id="900000085203" data-label="U Residenzstr." cx="2.462" cy="-4.104" r="0.1" fill="#0a3c85"></circle><circle class="station" data-id="900000085104" data-label="U Paracelsus-Bad" cx="1.642" cy="-3.283" r="0.1" fill="#0a3c85"></circle><circle class="station" data-id="900000086160" data-label="U Lindauer Allee" cx="0.821" cy="-2.462" r="0.1" fill="#0a3c85"></circle><circle class="station" data-id="900000096410" data-label="U Rathaus Reinickendorf" cy="-0.821" r="0.1" fill="#0a3c85"></circle><circle class="station" data-id="900000062203" data-label="U Schloßstr." cx="0.821" cy="-19.698" r="0.1" fill="#ff7300"></circle><circle class="station" data-id="900000061101" data-label="U Walther-Schreiber-Platz" cx="0.821" cy="-18.878" r="0.1" fill="#ff7300"></circle><circle class="station" data-id="900000061102" data-label="U Friedrich-Wilhelm-Platz" cx="0.821" cy="-18.057" r="0.1" fill="#ff7300"></circle><circle class="station" data-id="900000043201" data-label="U Güntzelstr." cx="0.821" cy="-15.594" r="0.1" fill="#ff7300"></circle><circle class="station" data-id="900000023203" data-label="U Kurfürstendamm" cx="0.821" cy="-13.132" r="0.1" fill="#ff7300"></circle><circle class="station" data-id="900000003101" data-label="U Hansaplatz" cx="0.821" cy="-11.491" r="0.1" fill="#ff7300"></circle><circle class="station" data-id="900000003104" data-label="U Turmstr." cx="0.821" cy="-10.67" r="0.1" fill="#ff7300"></circle><circle class="station" data-id="900000002201" data-label="U Birkenstr." cx="0.821" cy="-9.849" r="0.1" fill="#ff7300"></circle><circle class="station" data-id="900000009101" data-label="U Amrumer Str." cx="1.642" cy="-8.208" r="0.1" fill="#ff7300"></circle><circle class="station" data-id="900000009201" data-label="U Nauener Platz" cx="3.283" cy="-6.566" r="0.1" fill="#ff7300"></circle><circle class="station" data-id="900000050201" data-label="U Krumme Lanke" cx="-5.745" cy="-22.981" r="0.1" fill="#019377"></circle><circle class="station" data-id="900000050282" data-label="U Onkel Toms Hütte" cx="-4.925" cy="-22.161" r="0.1" fill="#019377"></circle><circle class="station" data-id="900000051301" data-label="U Oskar-Helene-Heim" cx="-4.104" cy="-21.34" r="0.1" fill="#019377"></circle><circle class="station" data-id="900000051201" data-label="U Freie Universität (Thielplatz)" cx="-3.283" cy="-20.519" r="0.1" fill="#019377"></circle><circle class="station" data-id="900000051303" data-label="U Dahlem-Dorf" cx="-2.462" cy="-19.698" r="0.1" fill="#019377"></circle><circle class="station" data-id="900000051302" data-label="U Podbielskiallee" cx="-1.642" cy="-18.878" r="0.1" fill="#019377"></circle><circle class="station" data-id="900000051202" data-label="U Breitenbachplatz" cx="-0.821" cy="-18.057" r="0.1" fill="#019377"></circle><circle class="station" data-id="900000045101" data-label="U Rüdesheimer Platz" cx="-0.821" cy="-17.236" r="0.1" fill="#019377"></circle><circle class="station" data-id="900000043101" data-label="U Hohenzollernplatz" cy="-14.774" r="0.1" fill="#019377"></circle></g></svg>