<svg xmlns="http://www.w3.org/2000/svg" width="309.44" height="275.86" viewBox="-11.514 -6.477 15.472 13.793"><style>
	.line {
		stroke: #333;
		stroke-width: .09;
		fill: none;
		stroke-linejoin: round;
		stroke-linecap: round;
	}
	.station {
		stroke: none;
	}
	.transit {
		stroke: #555;
		stroke-width: .05;
		fill: #fff;
	}
</style><g><path class="line Amarela" style="stroke: #F4BC18;" d="M-3.358 4.198L-2.519 3.358"></path><path class="line Amarela" style="stroke: #F4BC18;" d="M-2.519 3.358L-1.679 2.519"></path><path class="line Amarela" style="stroke: #F4BC18;" d="M-1.679 2.519L-1.679 1.679"></path><path class="line Amarela" style="stroke: #F4BC18;" d="M-1.679 1.679L-1.679 0.84"></path><path class="line Amarela" style="stroke: #F4BC18;" d="M-1.679 0.84L-2.519 0"></path><path class="line Amarela" style="stroke: #F4BC18;" d="M-2.519 0L-3.358 -0.84"></path><path class="line Amarela" style="stroke: #F4BC18;" d="M-3.358 -0.84L-3.358 -1.679"></path><path class="line Amarela" style="stroke: #F4BC18;" d="M-3.358 -1.679L-3.358 -2.519"></path><path class="line Amarela" style="stroke: #F4BC18;" d="M-3.358 -2.519L-3.358 -3.358"></path><path class="line Amarela" style="stroke: #F4BC18;" d="M-3.358 -3.358L-3.358 -4.198"></path><path class="line Amarela" style="stroke: #F4BC18;" d="M-3.358 -4.198L-4.198 -5.037"></path><path class="line Amarela" style="stroke: #F4BC18;" d="M-4.198 -5.037L-5.037 -5.877"></path><path class="line Azul" style="stroke: #5E82C4;" d="M-0.84 5.877L-1.679 5.877"></path><path class="line Azul" style="stroke: #5E82C4;" d="M-1.679 5.877L-2.519 5.877"></path><path class="line Azul" style="stroke: #5E82C4;" d="M-2.519 5.877L-2.519 5.037"></path><path class="line Azul" style="stroke: #5E82C4;" d="M-2.519 5.037L-2.519 4.198"></path><path class="line Azul" style="stroke: #5E82C4;" d="M-2.519 4.198L-2.519 3.358"></path><path class="line Azul" style="stroke: #5E82C4;" d="M-2.519 3.358L-2.519 2.519"></path><path class="line Azul" style="stroke: #5E82C4;" d="M-2.519 2.519L-2.519 1.679"></path><path class="line Azul" style="stroke: #5E82C4;" d="M-2.519 1.679L-3.358 0.84"></path><path class="line Azul" style="stroke: #5E82C4;" d="M-3.358 0.84L-4.198 0"></path><path class="line Azul" style="stroke: #5E82C4;" d="M-4.198 0L-5.037 -0.84"></path><path class="line Azul" style="stroke: #5E82C4;" d="M-5.037 -0.84L-5.877 -1.679"></path><path class="line Azul" style="stroke: #5E82C4;" d="M-5.877 -1.679L-6.716 -2.519"></path><path class="line Azul" style="stroke: #5E82C4;" d="M-6.716 -2.519L-7.556 -3.358"></path><path class="line Azul" style="stroke: #5E82C4;" d="M-7.556 -3.358L-8.395 -3.358"></path><path class="line Azul" style="stroke: #5E82C4;" d="M-8.395 -3.358L-9.235 -3.358"></path><path class="line Azul" style="stroke: #5E82C4;" d="M-9.235 -3.358L-10.074 -3.358"></path><path class="line Azul" style="stroke: #5E82C4;" d="M-10.074 -3.358L-10.914 -2.519"></path><path class="line Verde" style="stroke: #2F9B9C;" d="M-3.358 6.716L-2.519 5.877"></path><path class="line Verde" style="stroke: #2F9B9C;" d="M-2.519 5.877L-1.679 5.037"></path><path class="line Verde" style="stroke: #2F9B9C;" d="M-1.679 5.037L-0.84 4.198"></path><path class="line Verde" style="stroke: #2F9B9C;" d="M-0.84 4.198L-0.84 3.358"></path><path class="line Verde" style="stroke: #2F9B9C;" d="M-0.84 3.358L-0.84 2.519"></path><path class="line Verde" style="stroke: #2F9B9C;" d="M-0.84 2.519L-0.84 1.679"></path><path class="line Verde" style="stroke: #2F9B9C;" d="M-0.84 1.679L-0.84 0.84"></path><path class="line Verde" style="stroke: #2F9B9C;" d="M-0.84 0.84L-0.84 0"></path><path class="line Verde" style="stroke: #2F9B9C;" d="M-0.84 0L-1.679 -0.84"></path><path class="line Verde" style="stroke: #2F9B9C;" d="M-1.679 -0.84L-2.519 -1.679"></path><path class="line Verde" style="stroke: #2F9B9C;" d="M-2.519 -1.679L-3.358 -1.679"></path><path class="line Verde" style="stroke: #2F9B9C;" d="M-3.358 -1.679L-4.198 -1.679"></path><path class="line Vermelha" style="stroke: #DF096F;" d="M-2.519 1.679L-1.679 1.679"></path><path class="line Vermelha" style="stroke: #DF096F;" d="M-1.679 1.679L-0.84 0.84"></path><path class="line Vermelha" style="stroke: #DF096F;" d="M-0.84 0.84L0 0"></path><path class="line Vermelha" style="stroke: #DF096F;" d="M0 0L0.84 -0.84"></path><path class="line Vermelha" style="stroke: #DF096F;" d="M0.84 -0.84L1.679 -1.679"></path><path class="line Vermelha" style="stroke: #DF096F;" d="M1.679 -1.679L2.519 -2.519"></path><path class="line Vermelha" style="stroke: #DF096F;" d="M2.519 -2.519L3.358 -3.358"></path><path class="line Vermelha" style="stroke: #DF096F;" d="M3.358 -3.358L3.358 -4.198"></path><path class="line Vermelha" style="stroke: #DF096F;" d="M3.358 -4.198L3.358 -5.037"></path><path class="line Vermelha" style="stroke: #DF096F;" d="M3.358 -5.037L2.519 -5.037"></path><path class="line Vermelha" style="stroke: #DF096F;" d="M2.519 -5.037L1.679 -5.037"></path><circle class="station" data-id="256972634" data-label="Olaias" r="0.1" fill="#DF096F"></circle><circle class="station" data-id="256975148" data-label="Bela Vista" cx="0.84" cy="-0.84" r="0.1" fill="#DF096F"></circle><circle class="station" data-id="256975157" data-label="Chelas" cx="1.679" cy="-1.679" r="0.1" fill="#DF096F"></circle><circle class="station" data-id="256975161" data-label="Olivais" cx="2.519" cy="-2.519" r="0.1" fill="#DF096F"></circle><circle class="station" data-id="256975169" data-label="Cabo Ruivo" cx="3.358" cy="-3.358" r="0.1" fill="#DF096F"></circle><circle class="station" data-id="256975177" data-label="Oriente" cx="3.358" cy="-4.198" r="0.1" fill="#DF096F"></circle><circle class="station transit" data-id="1110776435" data-label="São Sebastião" cx="-2.519" cy="1.679" r="0.13" fill="#333"></circle><circle class="station" data-id="1829104217" data-label="Aeroporto" cx="1.679" cy="-5.037" r="0.1" fill="#DF096F"></circle><circle class="station" data-id="1831350950" data-label="Encarnação" cx="2.519" cy="-5.037" r="0.1" fill="#DF096F"></circle><circle class="station" data-id="1831350952" data-label="Moscavide" cx="3.358" cy="-5.037" r="0.1" fill="#DF096F"></circle><circle class="station transit" data-id="5190744730" data-label="Saldanha" cx="-1.679" cy="1.679" r="0.13" fill="#333"></circle><circle class="station transit" data-id="5190744732" data-label="Alameda" cx="-0.84" cy="0.84" r="0.13" fill="#333"></circle><circle class="station" data-id="245938001" data-label="Telheiras" cx="-4.198" cy="-1.679" r="0.1" fill="#2F9B9C"></circle><circle class="station" data-id="256673563" data-label="Cais do Sodré" cx="-3.358" cy="6.716" r="0.1" fill="#2F9B9C"></circle><circle class="station" data-id="256673579" data-label="Rossio" cx="-1.679" cy="5.037" r="0.1" fill="#2F9B9C"></circle><circle class="station" data-id="256674870" data-label="Anjos" cx="-0.84" cy="2.519" r="0.1" fill="#2F9B9C"></circle><circle class="station" data-id="256675147" data-label="Arroios" cx="-0.84" cy="1.679" r="0.1" fill="#2F9B9C"></circle><circle class="station" data-id="256971868" data-label="Roma" cx="-1.679" cy="-0.84" r="0.1" fill="#2F9B9C"></circle><circle class="station" data-id="256971869" data-label="Alvalade" cx="-2.519" cy="-1.679" r="0.1" fill="#2F9B9C"></circle><circle class="station" data-id="265897891" data-label="Martim Moniz" cx="-0.84" cy="4.198" r="0.1" fill="#2F9B9C"></circle><circle class="station" data-id="265897892" data-label="Intendente" cx="-0.84" cy="3.358" r="0.1" fill="#2F9B9C"></circle><circle class="station" data-id="1465237705" data-label="Areeiro" cx="-0.84" r="0.1" fill="#2F9B9C"></circle><circle class="station transit" data-id="5185768824" data-label="Baixa-Chiado" cx="-2.519" cy="5.877" r="0.13" fill="#333"></circle><circle class="station transit" data-id="5216412760" data-label="Campo Grande" cx="-3.358" cy="-1.679" r="0.13" fill="#333"></circle><circle class="station" data-id="146311452" data-label="Odivelas" cx="-5.037" cy="-5.877" r="0.1" fill="#F4BC18"></circle><circle class="station" data-id="146311461" data-label="Senhor Roubado" cx="-4.198" cy="-5.037" r="0.1" fill="#F4BC18"></circle><circle class="station" data-id="245937922" data-label="Ameixoeira" cx="-3.358" cy="-4.198" r="0.1" fill="#F4BC18"></circle><circle class="station" data-id="245937941" data-label="Lumiar" cx="-3.358" cy="-3.358" r="0.1" fill="#F4BC18"></circle><circle class="station" data-id="245937950" data-label="Quinta das Conchas" cx="-3.358" cy="-2.519" r="0.1" fill="#F4BC18"></circle><circle class="station" data-id="246763946" data-label="Cidade Universitária" cx="-3.358" cy="-0.84" r="0.1" fill="#F4BC18"></circle><circle class="station" data-id="246763964" data-label="Entrecampos" cx="-2.519" r="0.1" fill="#F4BC18"></circle><circle class="station" data-id="246763968" data-label="Campo Pequeno" cx="-1.679" cy="0.84" r="0.1" fill="#F4BC18"></circle><circle class="station transit" data-id="247051835" data-label="Marquês de Pombal" cx="-2.519" cy="3.358" r="0.13" fill="#333"></circle><circle class="station" data-id="247051839" data-label="Rato" cx="-3.358" cy="4.198" r="0.1" fill="#F4BC18"></circle><circle class="station" data-id="265896596" data-label="Picoas" cx="-1.679" cy="2.519" r="0.1" fill="#F4BC18"></circle><circle class="station" data-id="256673960" data-label="Terreiro do Paço" cx="-1.679" cy="5.877" r="0.1" fill="#5E82C4"></circle><circle class="station" data-id="256673972" data-label="Restauradores" cx="-2.519" cy="5.037" r="0.1" fill="#5E82C4"></circle><circle class="station" data-id="256674213" data-label="Parque" cx="-2.519" cy="2.519" r="0.1" fill="#5E82C4"></circle><circle class="station" data-id="256976574" data-label="Praça de Espanha" cx="-3.358" cy="0.84" r="0.1" fill="#5E82C4"></circle><circle class="station" data-id="256978160" data-label="Jardim Zoológico" cx="-4.198" r="0.1" fill="#5E82C4"></circle><circle class="station" data-id="256978165" data-label="Laranjeiras" cx="-5.037" cy="-0.84" r="0.1" fill="#5E82C4"></circle><circle class="station" data-id="256978170" data-label="Alto dos Moínhos" cx="-5.877" cy="-1.679" r="0.1" fill="#5E82C4"></circle><circle class="station" data-id="256978583" data-label="Colégio Militar/Luz" cx="-6.716" cy="-2.519" r="0.1" fill="#5E82C4"></circle><circle class="station" data-id="256979289" data-label="Carnide" cx="-7.556" cy="-3.358" r="0.1" fill="#5E82C4"></circle><circle class="station" data-id="256981317" data-label="Pontinha" cx="-8.395" cy="-3.358" r="0.1" fill="#5E82C4"></circle><circle class="station" data-id="256981321" data-label="Alfornelos" cx="-9.235" cy="-3.358" r="0.1" fill="#5E82C4"></circle><circle class="station" data-id="256981325" data-label="Amadora Este" cx="-10.074" cy="-3.358" r="0.1" fill="#5E82C4"></circle><circle class="station" data-id="600134721" data-label="Avenida" cx="-2.519" cy="4.198" r="0.1" fill="#5E82C4"></circle><circle class="station" data-id="1696909109" data-label="Santa Apolónia" cx="-0.84" cy="5.877" r="0.1" fill="#5E82C4"></circle><circle class="station" data-id="4119252201" data-label="Reboleira" cx="-10.914" cy="-2.519" r="0.1" fill="#5E82C4"></circle></g></svg>