<svg xmlns="http://www.w3.org/2000/svg" width="301.90000000000003" height="274.96" viewBox="19127.257 15373.337 15.095 13.748"><style>
	.line {
		stroke: #333;
		stroke-width: .09;
		fill: none;
		stroke-linejoin: round;
		stroke-linecap: round;
	}
	.station {
		stroke: none;
	}
	.transit {
		stroke: #555;
		stroke-width: .05;
		fill: #fff;
	}
</style><g><path class="line Amarela" style="stroke: #F4BC18;" d="M19135.603 15384.451L19136.172 15383.682"></path><path class="line Amarela" style="stroke: #F4BC18;" d="M19136.172 15383.682L19136.538 15382.88"></path><path class="line Amarela" style="stroke: #F4BC18;" d="M19136.538 15382.88L19136.749 15382.286"></path><path class="line Amarela" style="stroke: #F4BC18;" d="M19136.749 15382.286L19136.508 15381.428"></path><path class="line Amarela" style="stroke: #F4BC18;" d="M19136.508 15381.428L19136.349 15380.576"></path><path class="line Amarela" style="stroke: #F4BC18;" d="M19136.349 15380.576L19135.151 15379.957"></path><path class="line Amarela" style="stroke: #F4BC18;" d="M19135.151 15379.957L19135.266 15378.689"></path><path class="line Amarela" style="stroke: #F4BC18;" d="M19135.266 15378.689L19135.527 15377.645"></path><path class="line Amarela" style="stroke: #F4BC18;" d="M19135.527 15377.645L19135.016 15376.887"></path><path class="line Amarela" style="stroke: #F4BC18;" d="M19135.016 15376.887L19135.089 15375.894"></path><path class="line Amarela" style="stroke: #F4BC18;" d="M19135.089 15375.894L19133.702 15375.032"></path><path class="line Amarela" style="stroke: #F4BC18;" d="M19133.702 15375.032L19133.573 15373.937"></path><path class="line Azul" style="stroke: #5E82C4;" d="M19139.238 15385.364L19137.966 15386.292"></path><path class="line Azul" style="stroke: #5E82C4;" d="M19137.966 15386.292L19137.362 15385.807"></path><path class="line Azul" style="stroke: #5E82C4;" d="M19137.362 15385.807L19137.085 15385.134"></path><path class="line Azul" style="stroke: #5E82C4;" d="M19137.085 15385.134L19136.728 15384.602"></path><path class="line Azul" style="stroke: #5E82C4;" d="M19136.728 15384.602L19136.172 15383.682"></path><path class="line Azul" style="stroke: #5E82C4;" d="M19136.172 15383.682L19136.14 15383.053"></path><path class="line Azul" style="stroke: #5E82C4;" d="M19136.14 15383.053L19135.774 15382.366"></path><path class="line Azul" style="stroke: #5E82C4;" d="M19135.774 15382.366L19135.115 15381.912"></path><path class="line Azul" style="stroke: #5E82C4;" d="M19135.115 15381.912L19134.03 15381.288"></path><path class="line Azul" style="stroke: #5E82C4;" d="M19134.03 15381.288L19133.569 15380.403"></path><path class="line Azul" style="stroke: #5E82C4;" d="M19133.569 15380.403L19132.812 15380.167"></path><path class="line Azul" style="stroke: #5E82C4;" d="M19132.812 15380.167L19131.752 15379.66"></path><path class="line Azul" style="stroke: #5E82C4;" d="M19131.752 15379.66L19131.372 15378.83"></path><path class="line Azul" style="stroke: #5E82C4;" d="M19131.372 15378.83L19130.902 15378.398"></path><path class="line Azul" style="stroke: #5E82C4;" d="M19130.902 15378.398L19130.06 15378.668"></path><path class="line Azul" style="stroke: #5E82C4;" d="M19130.06 15378.668L19128.497 15378.947"></path><path class="line Azul" style="stroke: #5E82C4;" d="M19128.497 15378.947L19127.857 15379.821"></path><path class="line Verde" style="stroke: #2F9B9C;" d="M19136.723 15386.485L19137.362 15385.807"></path><path class="line Verde" style="stroke: #2F9B9C;" d="M19137.362 15385.807L19137.48 15385.311"></path><path class="line Verde" style="stroke: #2F9B9C;" d="M19137.48 15385.311L19137.729 15384.902"></path><path class="line Verde" style="stroke: #2F9B9C;" d="M19137.729 15384.902L19137.795 15384.082"></path><path class="line Verde" style="stroke: #2F9B9C;" d="M19137.795 15384.082L19137.835 15383.56"></path><path class="line Verde" style="stroke: #2F9B9C;" d="M19137.835 15383.56L19137.916 15382.52"></path><path class="line Verde" style="stroke: #2F9B9C;" d="M19137.916 15382.52L19138.071 15381.961"></path><path class="line Verde" style="stroke: #2F9B9C;" d="M19138.071 15381.961L19138.008 15381.246"></path><path class="line Verde" style="stroke: #2F9B9C;" d="M19138.008 15381.246L19137.091 15380.343"></path><path class="line Verde" style="stroke: #2F9B9C;" d="M19137.091 15380.343L19136.823 15379.716"></path><path class="line Verde" style="stroke: #2F9B9C;" d="M19136.823 15379.716L19135.266 15378.689"></path><path class="line Verde" style="stroke: #2F9B9C;" d="M19135.266 15378.689L19134.279 15378.713"></path><path class="line Vermelha" style="stroke: #DF096F;" d="M19135.774 15382.366L19136.749 15382.286"></path><path class="line Vermelha" style="stroke: #DF096F;" d="M19136.749 15382.286L19138.071 15381.961"></path><path class="line Vermelha" style="stroke: #DF096F;" d="M19138.071 15381.961L19139.067 15381.668"></path><path class="line Vermelha" style="stroke: #DF096F;" d="M19139.067 15381.668L19139.769 15380.505"></path><path class="line Vermelha" style="stroke: #DF096F;" d="M19139.769 15380.505L19140.194 15379.459"></path><path class="line Vermelha" style="stroke: #DF096F;" d="M19140.194 15379.459L19140.437 15378.594"></path><path class="line Vermelha" style="stroke: #DF096F;" d="M19140.437 15378.594L19141.295 15378.294"></path><path class="line Vermelha" style="stroke: #DF096F;" d="M19141.295 15378.294L19141.752 15377.592"></path><path class="line Vermelha" style="stroke: #DF096F;" d="M19141.752 15377.592L19141.414 15376.581"></path><path class="line Vermelha" style="stroke: #DF096F;" d="M19141.414 15376.581L19139.999 15376.539"></path><path class="line Vermelha" style="stroke: #DF096F;" d="M19139.999 15376.539L19138.56 15377.411"></path><circle class="station" data-id="256972634" data-label="Olaias" cx="19139.067" cy="15381.668" r="0.1" fill="#DF096F"></circle><circle class="station" data-id="256975148" data-label="Bela Vista" cx="19139.769" cy="15380.505" r="0.1" fill="#DF096F"></circle><circle class="station" data-id="256975157" data-label="Chelas" cx="19140.194" cy="15379.459" r="0.1" fill="#DF096F"></circle><circle class="station" data-id="256975161" data-label="Olivais" cx="19140.437" cy="15378.594" r="0.1" fill="#DF096F"></circle><circle class="station" data-id="256975169" data-label="Cabo Ruivo" cx="19141.295" cy="15378.294" r="0.1" fill="#DF096F"></circle><circle class="station" data-id="256975177" data-label="Oriente" cx="19141.752" cy="15377.592" r="0.1" fill="#DF096F"></circle><circle class="station transit" data-id="1110776435" data-label="São Sebastião" cx="19135.774" cy="15382.366" r="0.13" fill="#333"></circle><circle class="station" data-id="1829104217" data-label="Aeroporto" cx="19138.56" cy="15377.411" r="0.1" fill="#DF096F"></circle><circle class="station" data-id="1831350950" data-label="Encarnação" cx="19139.999" cy="15376.539" r="0.1" fill="#DF096F"></circle><circle class="station" data-id="1831350952" data-label="Moscavide" cx="19141.414" cy="15376.581" r="0.1" fill="#DF096F"></circle><circle class="station transit" data-id="5190744730" data-label="Saldanha" cx="19136.749" cy="15382.286" r="0.13" fill="#333"></circle><circle class="station transit" data-id="5190744732" data-label="Alameda" cx="19138.071" cy="15381.961" r="0.13" fill="#333"></circle><circle class="station" data-id="245938001" data-label="Telheiras" cx="19134.279" cy="15378.713" r="0.1" fill="#2F9B9C"></circle><circle class="station" data-id="256673563" data-label="Cais do Sodré" cx="19136.723" cy="15386.485" r="0.1" fill="#2F9B9C"></circle><circle class="station" data-id="256673579" data-label="Rossio" cx="19137.48" cy="15385.311" r="0.1" fill="#2F9B9C"></circle><circle class="station" data-id="256674870" data-label="Anjos" cx="19137.835" cy="15383.56" r="0.1" fill="#2F9B9C"></circle><circle class="station" data-id="256675147" data-label="Arroios" cx="19137.916" cy="15382.52" r="0.1" fill="#2F9B9C"></circle><circle class="station" data-id="256971868" data-label="Roma" cx="19137.091" cy="15380.343" r="0.1" fill="#2F9B9C"></circle><circle class="station" data-id="256971869" data-label="Alvalade" cx="19136.823" cy="15379.716" r="0.1" fill="#2F9B9C"></circle><circle class="station" data-id="265897891" data-label="Martim Moniz" cx="19137.729" cy="15384.902" r="0.1" fill="#2F9B9C"></circle><circle class="station" data-id="265897892" data-label="Intendente" cx="19137.795" cy="15384.082" r="0.1" fill="#2F9B9C"></circle><circle class="station" data-id="1465237705" data-label="Areeiro" cx="19138.008" cy="15381.246" r="0.1" fill="#2F9B9C"></circle><circle class="station transit" data-id="5185768824" data-label="Baixa-Chiado" cx="19137.362" cy="15385.807" r="0.13" fill="#333"></circle><circle class="station transit" data-id="5216412760" data-label="Campo Grande" cx="19135.266" cy="15378.689" r="0.13" fill="#333"></circle><circle class="station" data-id="146311452" data-label="Odivelas" cx="19133.573" cy="15373.937" r="0.1" fill="#F4BC18"></circle><circle class="station" data-id="146311461" data-label="Senhor Roubado" cx="19133.702" cy="15375.032" r="0.1" fill="#F4BC18"></circle><circle class="station" data-id="245937922" data-label="Ameixoeira" cx="19135.089" cy="15375.894" r="0.1" fill="#F4BC18"></circle><circle class="station" data-id="245937941" data-label="Lumiar" cx="19135.016" cy="15376.887" r="0.1" fill="#F4BC18"></circle><circle class="station" data-id="245937950" data-label="Quinta das Conchas" cx="19135.527" cy="15377.645" r="0.1" fill="#F4BC18"></circle><circle class="station" data-id="246763946" data-label="Cidade Universitária" cx="19135.151" cy="15379.957" r="0.1" fill="#F4BC18"></circle><circle class="station" data-id="246763964" data-label="Entrecampos" cx="19136.349" cy="15380.576" r="0.1" fill="#F4BC18"></circle><circle class="station" data-id="246763968" data-label="Campo Pequeno" cx="19136.508" cy="15381.428" r="0.1" fill="#F4BC18"></circle><circle class="station transit" data-id="247051835" data-label="Marquês de Pombal" cx="19136.172" cy="15383.682" r="0.13" fill="#333"></circle><circle class="station" data-id="247051839" data-label="Rato" cx="19135.603" cy="15384.451" r="0.1" fill="#F4BC18"></circle><circle class="station" data-id="265896596" data-label="Picoas" cx="19136.538" cy="15382.88" r="0.1" fill="#F4BC18"></circle><circle class="station" data-id="256673960" data-label="Terreiro do Paço" cx="19137.966" cy="15386.292" r="0.1" fill="#5E82C4"></circle><circle class="station" data-id="256673972" data-label="Restauradores" cx="19137.085" cy="15385.134" r="0.1" fill="#5E82C4"></circle><circle class="station" data-id="256674213" data-label="Parque" cx="19136.14" cy="15383.053" r="0.1" fill="#5E82C4"></circle><circle class="station" data-id="256976574" data-label="Praça de Espanha" cx="19135.115" cy="15381.912" r="0.1" fill="#5E82C4"></circle><circle class="station" data-id="256978160" data-label="Jardim Zoológico" cx="19134.03" cy="15381.288" r="0.1" fill="#5E82C4"></circle><circle class="station" data-id="256978165" data-label="Laranjeiras" cx="19133.569" cy="15380.403" r="0.1" fill="#5E82C4"></circle><circle class="station" data-id="256978170" data-label="Alto dos Moínhos" cx="19132.812" cy="15380.167" r="0.1" fill="#5E82C4"></circle><circle class="station" data-id="256978583" data-label="Colégio Militar/Luz" cx="19131.752" cy="15379.66" r="0.1" fill="#5E82C4"></circle><circle class="station" data-id="256979289" data-label="Carnide" cx="19131.372" cy="15378.83" r="0.1" fill="#5E82C4"></circle><circle class="station" data-id="256981317" data-label="Pontinha" cx="19130.902" cy="15378.398" r="0.1" fill="#5E82C4"></circle><circle class="station" data-id="256981321" data-label="Alfornelos" cx="19130.06" cy="15378.668" r="0.1" fill="#5E82C4"></circle><circle class="station" data-id="256981325" data-label="Amadora Este" cx="19128.497" cy="15378.947" r="0.1" fill="#5E82C4"></circle><circle class="station" data-id="600134721" data-label="Avenida" cx="19136.728" cy="15384.602" r="0.1" fill="#5E82C4"></circle><circle class="station" data-id="1696909109" data-label="Santa Apolónia" cx="19139.238" cy="15385.364" r="0.1" fill="#5E82C4"></circle><circle class="station" data-id="4119252201" data-label="Reboleira" cx="19127.857" cy="15379.821" r="0.1" fill="#5E82C4"></circle></g></svg>