<svg xmlns="http://www.w3.org/2000/svg" width="402.9" height="389.42" viewBox="-4.388999999999999 -4.388999999999999 20.145 19.471"><style>
	.line {
		stroke: #333;
		stroke-width: .09;
		fill: none;
		stroke-linejoin: round;
		stroke-linecap: round;
	}
	.station {
		stroke: none;
	}
	.transit {
		stroke: #555;
		stroke-width: .05;
		fill: #fff;
	}
</style><g><path class="line 1" style="stroke: #005ba1;" d="M12.882 6.904L12.125 7.662"></path><path class="line 1" style="stroke: #005ba1;" d="M12.125 7.662L11.367 8.42"></path><path class="line 1" style="stroke: #005ba1;" d="M11.367 8.42L10.609 9.178"></path><path class="line 1" style="stroke: #005ba1;" d="M10.609 9.178L9.851 9.935"></path><path class="line 1" style="stroke: #005ba1;" d="M9.952 9.834L9.194 9.077"></path><path class="line 3" style="stroke: #cbd300;" d="M9.851 9.935L9.093 9.178"></path><path class="line 4" style="stroke: #4A2A15;" d="M9.75 10.036L8.992 9.279"></path><path class="line 1" style="stroke: #005ba1;" d="M9.165 9.178L9.165 8.336"></path><path class="line 4" style="stroke: #4A2A15;" d="M9.022 9.178L9.022 8.336"></path><path class="line 1" style="stroke: #005ba1;" d="M9.093 8.336L8.336 8.336"></path><path class="line 1" style="stroke: #005ba1;" d="M8.336 8.336L7.578 8.336"></path><path class="line 1" style="stroke: #005ba1;" d="M7.578 8.336L6.82 8.336"></path><path class="line 1" style="stroke: #005ba1;" d="M6.82 8.336L6.062 8.336"></path><path class="line 1" style="stroke: #005ba1;" d="M6.134 8.336L6.134 7.578"></path><path class="line 2" style="stroke: #F18E00;" d="M5.991 8.336L5.991 7.578"></path><path class="line 1" style="stroke: #005ba1;" d="M6.012 7.527L7.527 6.012"></path><path class="line 2" style="stroke: #F18E00;" d="M6.113 7.628L7.628 6.113"></path><path class="line 1" style="stroke: #005ba1;" d="M7.628 6.012L6.871 5.254"></path><path class="line 4" style="stroke: #4A2A15;" d="M7.527 6.113L6.77 5.355"></path><path class="line 1" style="stroke: #005ba1;" d="M6.82 5.304L6.062 4.547"></path><path class="line 1" style="stroke: #005ba1;" d="M6.062 4.547L5.304 3.789"></path><path class="line 1" style="stroke: #005ba1;" d="M5.304 3.789L4.547 3.031"></path><path class="line 1" style="stroke: #005ba1;" d="M4.547 3.031L3.789 2.273"></path><path class="line 1" style="stroke: #005ba1;" d="M3.789 2.273L3.031 1.516"></path><path class="line 1" style="stroke: #005ba1;" d="M3.031 1.516L2.273 0.758"></path><path class="line 1" style="stroke: #005ba1;" d="M2.273 0.758L1.516 0"></path><path class="line 1" style="stroke: #005ba1;" d="M1.516 0L0.758 0"></path><path class="line 1" style="stroke: #005ba1;" d="M0.758 0L0 0"></path><path class="line 1" style="stroke: #005ba1;" d="M0 0L-0.758 -0.758"></path><path class="line 1" style="stroke: #005ba1;" d="M-0.758 -0.758L-1.516 0"></path><path class="line 1" style="stroke: #005ba1;" d="M-1.516 0L-2.273 0.758"></path><path class="line 1" style="stroke: #005ba1;" d="M-2.273 0.758L-3.031 1.516"></path><path class="line 1" style="stroke: #005ba1;" d="M-3.031 1.516L-3.031 2.273"></path><path class="line 1" style="stroke: #005ba1;" d="M-3.031 2.273L-3.031 3.031"></path><path class="line 2" style="stroke: #F18E00;" d="M-1.516 14.398L-0.758 14.398"></path><path class="line 2" style="stroke: #F18E00;" d="M-0.758 14.398L0 14.398"></path><path class="line 2" style="stroke: #F18E00;" d="M0 14.398L0.758 13.64"></path><path class="line 2" style="stroke: #F18E00;" d="M0.758 13.64L1.516 12.882"></path><path class="line 2" style="stroke: #F18E00;" d="M1.516 12.882L2.273 12.125"></path><path class="line 2" style="stroke: #F18E00;" d="M2.273 12.125L3.031 11.367"></path><path class="line 2" style="stroke: #F18E00;" d="M3.031 11.367L3.789 10.609"></path><path class="line 2" style="stroke: #F18E00;" d="M3.789 10.609L4.547 10.609"></path><path class="line 2" style="stroke: #F18E00;" d="M4.547 10.609L5.304 10.609"></path><path class="line 2" style="stroke: #F18E00;" d="M5.304 10.609L5.304 9.851"></path><path class="line 2" style="stroke: #F18E00;" d="M5.376 9.851L5.376 9.093"></path><path class="line 4" style="stroke: #4A2A15;" d="M5.233 9.851L5.233 9.093"></path><path class="line 2" style="stroke: #F18E00;" d="M5.254 9.043L6.012 8.285"></path><path class="line 4" style="stroke: #4A2A15;" d="M5.355 9.144L6.113 8.386"></path><path class="line 2" style="stroke: #F18E00;" d="M7.578 6.062L7.578 5.304"></path><path class="line 2" style="stroke: #F18E00;" d="M7.578 5.304L7.578 4.547"></path><path class="line 2" style="stroke: #F18E00;" d="M7.578 4.547L7.578 3.789"></path><path class="line 2" style="stroke: #F18E00;" d="M7.578 3.789L8.336 3.031"></path><path class="line 2" style="stroke: #F18E00;" d="M8.336 3.031L9.093 2.273"></path><path class="line 2" style="stroke: #F18E00;" d="M9.093 2.273L9.851 1.516"></path><path class="line 2" style="stroke: #F18E00;" d="M9.851 1.516L10.609 0.758"></path><path class="line 2" style="stroke: #F18E00;" d="M10.609 0.758L11.367 0"></path><path class="line 2" style="stroke: #F18E00;" d="M11.367 0L12.125 -0.758"></path><path class="line 2" style="stroke: #F18E00;" d="M12.125 -0.758L12.125 -1.516"></path><path class="line 2" style="stroke: #F18E00;" d="M12.125 -1.516L12.125 -2.273"></path><path class="line 2" style="stroke: #F18E00;" d="M12.125 -2.273L11.367 -3.031"></path><path class="line 2" style="stroke: #F18E00;" d="M11.367 -3.031L10.609 -3.789"></path><path class="line 3" style="stroke: #cbd300;" d="M-3.789 3.031L-3.031 3.031"></path><path class="line 3" style="stroke: #cbd300;" d="M-3.031 3.031L-2.273 3.031"></path><path class="line 3" style="stroke: #cbd300;" d="M-2.273 3.031L-1.516 3.031"></path><path class="line 3" style="stroke: #cbd300;" d="M-1.516 3.031L-0.758 2.273"></path><path class="line 3" style="stroke: #cbd300;" d="M-0.758 2.273L0 3.031"></path><path class="line 3" style="stroke: #cbd300;" d="M0 3.031L0.758 3.789"></path><path class="line 3" style="stroke: #cbd300;" d="M0.758 3.789L1.516 4.547"></path><path class="line 3" style="stroke: #cbd300;" d="M1.516 4.547L2.273 5.304"></path><path class="line 3" style="stroke: #cbd300;" d="M2.273 5.304L3.031 6.062"></path><path class="line 3" style="stroke: #cbd300;" d="M3.031 6.062L3.789 6.82"></path><path class="line 3" style="stroke: #cbd300;" d="M3.789 6.82L4.547 7.578"></path><path class="line 3" style="stroke: #cbd300;" d="M4.547 7.578L5.304 7.578"></path><path class="line 3" style="stroke: #cbd300;" d="M5.355 7.527L6.113 8.285"></path><path class="line 4" style="stroke: #4A2A15;" d="M5.254 7.628L6.012 8.386"></path><path class="line 3" style="stroke: #cbd300;" d="M6.062 8.336L6.904 9.178"></path><path class="line 3" style="stroke: #cbd300;" d="M6.904 9.178L8.251 9.178"></path><path class="line 3" style="stroke: #cbd300;" d="M8.251 9.178L9.093 9.178"></path><path class="line 3" style="stroke: #cbd300;" d="M9.851 9.935L10.609 9.935"></path><path class="line 3" style="stroke: #cbd300;" d="M10.609 9.935L11.367 10.693"></path><path class="line 3" style="stroke: #cbd300;" d="M11.367 10.693L12.125 11.451"></path><path class="line 3" style="stroke: #cbd300;" d="M12.125 11.451L12.882 12.209"></path><path class="line 3" style="stroke: #cbd300;" d="M12.882 12.209L13.64 12.967"></path><path class="line 3" style="stroke: #cbd300;" d="M13.64 12.967L14.398 13.724"></path><path class="line 3" style="stroke: #cbd300;" d="M14.398 13.724L15.156 14.482"></path><path class="line 4" style="stroke: #4A2A15;" d="M7.578 6.062L8.336 6.82"></path><path class="line 4" style="stroke: #4A2A15;" d="M8.336 6.82L9.093 7.578"></path><path class="line 4" style="stroke: #4A2A15;" d="M9.093 7.578L9.093 8.336"></path><path class="line 4" style="stroke: #4A2A15;" d="M9.851 9.935L9.851 10.693"></path><path class="line 4" style="stroke: #4A2A15;" d="M9.851 10.693L9.851 11.451"></path><path class="line 4" style="stroke: #4A2A15;" d="M9.851 11.451L8.925 12.377"></path><path class="line 4" style="stroke: #4A2A15;" d="M8.925 12.377L7.83 12.377"></path><path class="line 4" style="stroke: #4A2A15;" d="M7.83 12.377L6.567 11.114"></path><path class="line 4" style="stroke: #4A2A15;" d="M6.567 11.114L5.304 9.851"></path><circle class="station" data-id="60025122" data-label="Malbosc" r="0.1" fill="#005ba1"></circle><circle class="station" data-id="281177205" data-label="Place de France" cx="12.125" cy="7.662" r="0.1" fill="#005ba1"></circle><circle class="station" data-id="281570631" data-label="Stade de la Mosson" cx="-3.031" cy="2.273" r="0.1" fill="#005ba1"></circle><circle class="station" data-id="317829573" data-label="Hôpital Lapeyronie" cx="2.273" cy="0.758" r="0.1" fill="#005ba1"></circle><circle class="station" data-id="317829604" data-label="Occitanie" cx="1.516" r="0.1" fill="#005ba1"></circle><circle class="station" data-id="317830323" data-label="Château d&#x27;Ô" cx="0.758" r="0.1" fill="#005ba1"></circle><circle class="station" data-id="317830790" data-label="Euromédecine" cx="-0.758" cy="-0.758" r="0.1" fill="#005ba1"></circle><circle class="station" data-id="317830908" data-label="Hauts de Massane" cx="-1.516" r="0.1" fill="#005ba1"></circle><circle class="station" data-id="317831067" data-label="Saint-Paul" cx="-2.273" cy="0.758" r="0.1" fill="#005ba1"></circle><circle class="station" data-id="317831124" data-label="Halles de la Paillade" cx="-3.031" cy="1.516" r="0.1" fill="#005ba1"></circle><circle class="station" data-id="947038576" data-label="Odysseum" cx="12.882" cy="6.904" r="0.1" fill="#005ba1"></circle><circle class="station transit" data-id="2305432920" data-label="Comédie" cx="6.062" cy="7.578" r="0.185" fill="#333"></circle><circle class="station transit" data-id="2305432922" data-label="Gare Saint-Roch" cx="6.062" cy="8.336" r="0.185" fill="#333"></circle><circle class="station transit" data-id="2565144095" data-label="Moularès (Hôtel de Ville)" cx="9.851" cy="9.935" r="0.24" fill="#333"></circle><circle class="station" data-id="2572111087" data-label="Mondial 98" cx="10.609" cy="9.178" r="0.1" fill="#005ba1"></circle><circle class="station transit" data-id="2575586331" data-label="Rives du Lez" cx="9.093" cy="9.178" r="0.24" fill="#333"></circle><circle class="station transit" data-id="2575586432" data-label="Place de l&#x27;Europe" cx="9.093" cy="8.336" r="0.185" fill="#333"></circle><circle class="station transit" data-id="3118400914" data-label="Corum" cx="7.578" cy="6.062" r="0.185" fill="#333"></circle><circle class="station transit" data-id="3118400917" data-label="Louis Blanc" cx="6.82" cy="5.304" r="0.185" fill="#333"></circle><circle class="station" data-id="3118400918" data-label="Place Albert 1er - Saint-Charles" cx="6.062" cy="4.547" r="0.1" fill="#005ba1"></circle><circle class="station" data-id="3119065612" data-label="Antigone" cx="7.578" cy="8.336" r="0.1" fill="#005ba1"></circle><circle class="station" data-id="3119065613" data-label="Du Guesclin" cx="6.82" cy="8.336" r="0.1" fill="#005ba1"></circle><circle class="station" data-id="3119065614" data-label="Léon Blum" cx="8.336" cy="8.336" r="0.1" fill="#005ba1"></circle><circle class="station" data-id="3122483715" data-label="Millénaire" cx="11.367" cy="8.42" r="0.1" fill="#005ba1"></circle><circle class="station" data-id="3123093631" data-label="Boutonnet" cx="4.547" cy="3.031" r="0.1" fill="#005ba1"></circle><circle class="station" data-id="3123093685" data-label="Saint-Éloi" cx="3.789" cy="2.273" r="0.1" fill="#005ba1"></circle><circle class="station" data-id="3123093686" data-label="Stade Philippidès" cx="5.304" cy="3.789" r="0.1" fill="#005ba1"></circle><circle class="station" data-id="3123093687" data-label="Universités des Sciences et Lettres" cx="3.031" cy="1.516" r="0.1" fill="#005ba1"></circle><circle class="station transit" data-id="3124678226" data-label="Mosson" cx="-3.031" cy="3.031" r="0.13" fill="#333"></circle><circle class="station" data-id="38460665" data-label="Croix d&#x27;Argent" cx="3.031" cy="11.367" r="0.1" fill="#F18E00"></circle><circle class="station" data-id="74943027" data-label="Aiguelongue" cx="7.578" cy="3.789" r="0.1" fill="#F18E00"></circle><circle class="station" data-id="119409072" data-label="Saint-Lazare" cx="8.336" cy="3.031" r="0.1" fill="#F18E00"></circle><circle class="station" data-id="148694939" data-label="Jeu de Mail des Abbés" cx="7.578" cy="4.547" r="0.1" fill="#F18E00"></circle><circle class="station" data-id="224660817" data-label="Beaux-Arts" cx="7.578" cy="5.304" r="0.1" fill="#F18E00"></circle><circle class="station" data-id="231529652" data-label="Saint-Cléophas" cx="5.304" cy="10.609" r="0.1" fill="#F18E00"></circle><circle class="station" data-id="231532087" data-label="Mas Drevon" cx="3.789" cy="10.609" r="0.1" fill="#F18E00"></circle><circle class="station" data-id="231578457" data-label="Saint-Jean-de-Védas Centre" cx="-1.516" cy="14.398" r="0.1" fill="#F18E00"></circle><circle class="station" data-id="231578469" data-label="Saint-Jean-le-Sec" cx="-0.758" cy="14.398" r="0.1" fill="#F18E00"></circle><circle class="station" data-id="231578480" data-label="La Condamine" cy="14.398" r="0.1" fill="#F18E00"></circle><circle class="station" data-id="231578510" data-label="Sabines" cx="1.516" cy="12.882" r="0.1" fill="#F18E00"></circle><circle class="station" data-id="279249812" data-label="Victoire 2" cx="0.758" cy="13.64" r="0.1" fill="#F18E00"></circle><circle class="station transit" data-id="279556951" data-label="Rondelet" cx="5.304" cy="9.093" r="0.185" fill="#333"></circle><circle class="station" data-id="281259064" data-label="Lemasson" cx="4.547" cy="10.609" r="0.1" fill="#F18E00"></circle><circle class="station" data-id="281259065" data-label="Villeneuve d&#x27;Angoulême" cx="2.273" cy="12.125" r="0.1" fill="#F18E00"></circle><circle class="station" data-id="308531607" data-label="Jacou" cx="10.609" cy="-3.789" r="0.1" fill="#F18E00"></circle><circle class="station" data-id="308734763" data-label="Via Domitia" cx="12.125" cy="-2.273" r="0.1" fill="#F18E00"></circle><circle class="station" data-id="308735605" data-label="Aube Rouge" cx="12.125" cy="-1.516" r="0.1" fill="#F18E00"></circle><circle class="station transit" data-id="350510758" data-label="Nouveau Saint-Roch" cx="5.304" cy="9.851" r="0.185" fill="#333"></circle><circle class="station" data-id="368004431" data-label="Georges Pompidou" cx="11.367" cy="-3.031" r="0.1" fill="#F18E00"></circle><circle class="station" data-id="945144528" data-label="Notre-Dame de Sablassou" cx="12.125" cy="-0.758" r="0.1" fill="#F18E00"></circle><circle class="station" data-id="1547440719" data-label="Centurions" cx="11.367" r="0.1" fill="#F18E00"></circle><circle class="station" data-id="1547443496" data-label="La Galine" cx="10.609" cy="0.758" r="0.1" fill="#F18E00"></circle><circle class="station" data-id="1547447278" data-label="Clairval" cx="9.851" cy="1.516" r="0.1" fill="#F18E00"></circle><circle class="station" data-id="1547454806" data-label="Charles de Gaulle" cx="9.093" cy="2.273" r="0.1" fill="#F18E00"></circle><circle class="station" data-id="231389156" data-label="Place Carnot" cx="6.904" cy="9.178" r="0.1" fill="#cbd300"></circle><circle class="station" data-id="231389166" data-label="Voltaire" cx="8.251" cy="9.178" r="0.1" fill="#cbd300"></circle><circle class="station" data-id="281177110" data-label="Port Marianne" cx="10.609" cy="9.935" r="0.1" fill="#cbd300"></circle><circle class="station" data-id="1433104540" data-label="Pergola" cy="3.031" r="0.1" fill="#cbd300"></circle><circle class="station" data-id="1503531720" data-label="Pérols - Étang de l&#x27;Or" cx="15.156" cy="14.482" r="0.1" fill="#cbd300"></circle><circle class="station" data-id="1503531737" data-label="Écopôle" cx="12.882" cy="12.209" r="0.1" fill="#cbd300"></circle><circle class="station" data-id="1504387689" data-label="Tonnelles" cx="0.758" cy="3.789" r="0.1" fill="#cbd300"></circle><circle class="station" data-id="1504405475" data-label="Jules Guesde" cx="1.516" cy="4.547" r="0.1" fill="#cbd300"></circle><circle class="station" data-id="1504405479" data-label="Astruc" cx="2.273" cy="5.304" r="0.1" fill="#cbd300"></circle><circle class="station" data-id="1506452489" data-label="Plan Cabanes" cx="3.789" cy="6.82" r="0.1" fill="#cbd300"></circle><circle class="station" data-id="1506744094" data-label="Hôtel du Département" cx="-0.758" cy="2.273" r="0.1" fill="#cbd300"></circle><circle class="station" data-id="1506752860" data-label="Pilory" cx="-1.516" cy="3.031" r="0.1" fill="#cbd300"></circle><circle class="station" data-id="1506752868" data-label="Celleneuve" cx="-2.273" cy="3.031" r="0.1" fill="#cbd300"></circle><circle class="station" data-id="1508371545" data-label="Parc Expo" cx="13.64" cy="12.967" r="0.1" fill="#cbd300"></circle><circle class="station transit" data-id="1585675583" data-label="Observatoire" cx="5.304" cy="7.578" r="0.185" fill="#333"></circle><circle class="station" data-id="1675121446" data-label="Saint-Denis" cx="4.547" cy="7.578" r="0.1" fill="#cbd300"></circle><circle class="station" data-id="1680783344" data-label="Pablo Picasso" cx="11.367" cy="10.693" r="0.1" fill="#cbd300"></circle><circle class="station" data-id="1682209623" data-label="Arceaux" cx="3.031" cy="6.062" r="0.1" fill="#cbd300"></circle><circle class="station" data-id="3119254607" data-label="Boirargues" cx="12.125" cy="11.451" r="0.1" fill="#cbd300"></circle><circle class="station" data-id="3119255451" data-label="Pérols - Centre" cx="14.398" cy="13.724" r="0.1" fill="#cbd300"></circle><circle class="station" data-id="3124664050" data-label="Juvignac" cx="-3.789" cy="3.031" r="0.1" fill="#cbd300"></circle><circle class="station" data-id="231454841" data-label="Les Aubes" cx="8.336" cy="6.82" r="0.1" fill="#4A2A15"></circle><circle class="station" data-id="250677074" data-label="Pompignane" cx="9.093" cy="7.578" r="0.1" fill="#4A2A15"></circle><circle class="station" data-id="1325372165" data-label="Georges Frêche - Hôtel de ville" cx="9.851" cy="10.693" r="0.1" fill="#4A2A15"></circle><circle class="station" data-id="1506442723" data-label="La Rauze" cx="9.851" cy="11.451" r="0.1" fill="#4A2A15"></circle><circle class="station" data-id="1506442726" data-label="Garcia Lorca" cx="8.925" cy="12.377" r="0.1" fill="#4A2A15"></circle><circle class="station" data-id="1934914135" data-label="Restanque" cx="7.83" cy="12.377" r="0.1" fill="#4A2A15"></circle><circle class="station" data-id="2564674976" data-label="Saint-Martin" cx="6.567" cy="11.114" r="0.1" fill="#4A2A15"></circle></g></svg>