<svg xmlns="http://www.w3.org/2000/svg" width="457" height="400.06" viewBox="25902.052 18430.755 22.85 20.003"><style>
	.line {
		stroke: #333;
		stroke-width: .09;
		fill: none;
		stroke-linejoin: round;
		stroke-linecap: round;
	}
	.station {
		stroke: none;
	}
	.transit {
		stroke: #555;
		stroke-width: .05;
		fill: #fff;
	}
</style><g><path class="line 1" style="stroke: #005ba1;" d="M25918.219 18441.239L25917.552 18441.247"></path><path class="line 1" style="stroke: #005ba1;" d="M25917.552 18441.247L25916.729 18441.32"></path><path class="line 1" style="stroke: #005ba1;" d="M25916.729 18441.32L25915.898 18441.44"></path><path class="line 1" style="stroke: #005ba1;" d="M25915.898 18441.44L25914.71 18441.851"></path><path class="line 1" style="stroke: #005ba1;" d="M25914.852 18441.833L25914.765 18441.132"></path><path class="line 3" style="stroke: #cbd300;" d="M25914.71 18441.851L25914.623 18441.15"></path><path class="line 4" style="stroke: #4A2A15;" d="M25914.568 18441.869L25914.481 18441.168"></path><path class="line 1" style="stroke: #005ba1;" d="M25914.693 18441.135L25914.559 18440.523"></path><path class="line 4" style="stroke: #4A2A15;" d="M25914.553 18441.165L25914.419 18440.554"></path><path class="line 1" style="stroke: #005ba1;" d="M25914.489 18440.538L25913.944 18440.235"></path><path class="line 1" style="stroke: #005ba1;" d="M25913.944 18440.235L25913.454 18440.323"></path><path class="line 1" style="stroke: #005ba1;" d="M25913.454 18440.323L25912.971 18440.602"></path><path class="line 1" style="stroke: #005ba1;" d="M25912.971 18440.602L25912.556 18440.875"></path><path class="line 1" style="stroke: #005ba1;" d="M25912.627 18440.868L25912.573 18440.333"></path><path class="line 2" style="stroke: #F18E00;" d="M25912.485 18440.882L25912.431 18440.347"></path><path class="line 1" style="stroke: #005ba1;" d="M25912.572 18440.356L25912.841 18439.224"></path><path class="line 2" style="stroke: #F18E00;" d="M25912.433 18440.323L25912.702 18439.191"></path><path class="line 1" style="stroke: #005ba1;" d="M25912.785 18439.137L25912.255 18439.033"></path><path class="line 4" style="stroke: #4A2A15;" d="M25912.757 18439.277L25912.227 18439.173"></path><path class="line 1" style="stroke: #005ba1;" d="M25912.241 18439.103L25911.684 18438.754"></path><path class="line 1" style="stroke: #005ba1;" d="M25911.684 18438.754L25911.044 18438.264"></path><path class="line 1" style="stroke: #005ba1;" d="M25911.044 18438.264L25910.845 18437.563"></path><path class="line 1" style="stroke: #005ba1;" d="M25910.845 18437.563L25910.498 18436.706"></path><path class="line 1" style="stroke: #005ba1;" d="M25910.498 18436.706L25909.908 18436.31"></path><path class="line 1" style="stroke: #005ba1;" d="M25909.908 18436.31L25908.658 18435.808"></path><path class="line 1" style="stroke: #005ba1;" d="M25908.658 18435.808L25908.067 18435.204"></path><path class="line 1" style="stroke: #005ba1;" d="M25908.067 18435.204L25907.314 18435.825"></path><path class="line 1" style="stroke: #005ba1;" d="M25907.314 18435.825L25905.926 18435.234"></path><path class="line 1" style="stroke: #005ba1;" d="M25905.926 18435.234L25905.14 18434.388"></path><path class="line 1" style="stroke: #005ba1;" d="M25905.14 18434.388L25904.442 18434.916"></path><path class="line 1" style="stroke: #005ba1;" d="M25904.442 18434.916L25904.207 18436.003"></path><path class="line 1" style="stroke: #005ba1;" d="M25904.207 18436.003L25903.712 18436.617"></path><path class="line 1" style="stroke: #005ba1;" d="M25903.712 18436.617L25903.693 18437.866"></path><path class="line 1" style="stroke: #005ba1;" d="M25903.693 18437.866L25904.035 18438.828"></path><path class="line 2" style="stroke: #F18E00;" d="M25905.567 18446.865L25906.607 18447.655"></path><path class="line 2" style="stroke: #F18E00;" d="M25906.607 18447.655L25907.509 18447.426"></path><path class="line 2" style="stroke: #F18E00;" d="M25907.509 18447.426L25908.288 18446.798"></path><path class="line 2" style="stroke: #F18E00;" d="M25908.288 18446.798L25909.717 18445.114"></path><path class="line 2" style="stroke: #F18E00;" d="M25909.717 18445.114L25910.505 18444.143"></path><path class="line 2" style="stroke: #F18E00;" d="M25910.505 18444.143L25910.61 18443.435"></path><path class="line 2" style="stroke: #F18E00;" d="M25910.61 18443.435L25910.824 18442.841"></path><path class="line 2" style="stroke: #F18E00;" d="M25910.824 18442.841L25911.561 18443.226"></path><path class="line 2" style="stroke: #F18E00;" d="M25911.561 18443.226L25911.959 18442.959"></path><path class="line 2" style="stroke: #F18E00;" d="M25911.959 18442.959L25911.912 18442.09"></path><path class="line 2" style="stroke: #F18E00;" d="M25911.983 18442.097L25912.054 18441.387"></path><path class="line 4" style="stroke: #4A2A15;" d="M25911.84 18442.083L25911.912 18441.373"></path><path class="line 2" style="stroke: #F18E00;" d="M25911.935 18441.327L25912.509 18440.821"></path><path class="line 4" style="stroke: #4A2A15;" d="M25912.03 18441.434L25912.603 18440.929"></path><path class="line 2" style="stroke: #F18E00;" d="M25912.771 18439.207L25913.028 18438.659"></path><path class="line 2" style="stroke: #F18E00;" d="M25913.028 18438.659L25913.094 18437.991"></path><path class="line 2" style="stroke: #F18E00;" d="M25913.094 18437.991L25912.988 18436.863"></path><path class="line 2" style="stroke: #F18E00;" d="M25912.988 18436.863L25913.757 18436.766"></path><path class="line 2" style="stroke: #F18E00;" d="M25913.757 18436.766L25915.034 18436.401"></path><path class="line 2" style="stroke: #F18E00;" d="M25915.034 18436.401L25915.718 18436.105"></path><path class="line 2" style="stroke: #F18E00;" d="M25915.718 18436.105L25916.623 18435.855"></path><path class="line 2" style="stroke: #F18E00;" d="M25916.623 18435.855L25917.567 18435.595"></path><path class="line 2" style="stroke: #F18E00;" d="M25917.567 18435.595L25918.495 18435.309"></path><path class="line 2" style="stroke: #F18E00;" d="M25918.495 18435.309L25918.839 18434.455"></path><path class="line 2" style="stroke: #F18E00;" d="M25918.839 18434.455L25919.489 18432.862"></path><path class="line 2" style="stroke: #F18E00;" d="M25919.489 18432.862L25918.3 18432.363"></path><path class="line 2" style="stroke: #F18E00;" d="M25918.3 18432.363L25917.144 18431.355"></path><path class="line 3" style="stroke: #cbd300;" d="M25902.652 18438.587L25904.035 18438.828"></path><path class="line 3" style="stroke: #cbd300;" d="M25904.035 18438.828L25904.897 18438.926"></path><path class="line 3" style="stroke: #cbd300;" d="M25904.897 18438.926L25905.778 18438.164"></path><path class="line 3" style="stroke: #cbd300;" d="M25905.778 18438.164L25906.197 18437.693"></path><path class="line 3" style="stroke: #cbd300;" d="M25906.197 18437.693L25906.85 18438.589"></path><path class="line 3" style="stroke: #cbd300;" d="M25906.85 18438.589L25906.855 18439.352"></path><path class="line 3" style="stroke: #cbd300;" d="M25906.855 18439.352L25907.841 18439.773"></path><path class="line 3" style="stroke: #cbd300;" d="M25907.841 18439.773L25909.004 18439.98"></path><path class="line 3" style="stroke: #cbd300;" d="M25909.004 18439.98L25910.051 18440.057"></path><path class="line 3" style="stroke: #cbd300;" d="M25910.051 18440.057L25910.845 18440.316"></path><path class="line 3" style="stroke: #cbd300;" d="M25910.845 18440.316L25911.669 18440.889"></path><path class="line 3" style="stroke: #cbd300;" d="M25911.669 18440.889L25912.072 18440.743"></path><path class="line 3" style="stroke: #cbd300;" d="M25912.091 18440.674L25912.575 18440.806"></path><path class="line 4" style="stroke: #4A2A15;" d="M25912.053 18440.811L25912.537 18440.944"></path><path class="line 3" style="stroke: #cbd300;" d="M25912.556 18440.875L25913.126 18441.27"></path><path class="line 3" style="stroke: #cbd300;" d="M25913.126 18441.27L25913.821 18441.256"></path><path class="line 3" style="stroke: #cbd300;" d="M25913.821 18441.256L25914.623 18441.15"></path><path class="line 3" style="stroke: #cbd300;" d="M25914.71 18441.851L25915.335 18441.646"></path><path class="line 3" style="stroke: #cbd300;" d="M25915.335 18441.646L25915.826 18442.414"></path><path class="line 3" style="stroke: #cbd300;" d="M25915.826 18442.414L25918.972 18445.36"></path><path class="line 3" style="stroke: #cbd300;" d="M25918.972 18445.36L25920.31 18446.261"></path><path class="line 3" style="stroke: #cbd300;" d="M25920.31 18446.261L25921.793 18447.26"></path><path class="line 3" style="stroke: #cbd300;" d="M25921.793 18447.26L25923.416 18448.709"></path><path class="line 3" style="stroke: #cbd300;" d="M25923.416 18448.709L25924.302 18450.158"></path><path class="line 4" style="stroke: #4A2A15;" d="M25912.771 18439.207L25913.695 18439.262"></path><path class="line 4" style="stroke: #4A2A15;" d="M25913.695 18439.262L25914.621 18439.542"></path><path class="line 4" style="stroke: #4A2A15;" d="M25914.621 18439.542L25914.489 18440.538"></path><path class="line 4" style="stroke: #4A2A15;" d="M25914.71 18441.851L25914.625 18442.092"></path><path class="line 4" style="stroke: #4A2A15;" d="M25914.625 18442.092L25914.75 18443.235"></path><path class="line 4" style="stroke: #4A2A15;" d="M25914.75 18443.235L25914.065 18443.703"></path><path class="line 4" style="stroke: #4A2A15;" d="M25914.065 18443.703L25913.224 18443.841"></path><path class="line 4" style="stroke: #4A2A15;" d="M25913.224 18443.841L25912.556 18443.486"></path><path class="line 4" style="stroke: #4A2A15;" d="M25912.556 18443.486L25911.912 18442.09"></path><circle class="station" data-id="60025122" data-label="Malbosc" cx="25905.926" cy="18435.234" r="0.1" fill="#005ba1"></circle><circle class="station" data-id="281177205" data-label="Place de France" cx="25917.552" cy="18441.247" r="0.1" fill="#005ba1"></circle><circle class="station" data-id="281570631" data-label="Stade de la Mosson" cx="25903.693" cy="18437.866" r="0.1" fill="#005ba1"></circle><circle class="station" data-id="317829573" data-label="Hôpital Lapeyronie" cx="25908.658" cy="18435.808" r="0.1" fill="#005ba1"></circle><circle class="station" data-id="317829604" data-label="Occitanie" cx="25908.067" cy="18435.204" r="0.1" fill="#005ba1"></circle><circle class="station" data-id="317830323" data-label="Château d&#x27;Ô" cx="25907.314" cy="18435.825" r="0.1" fill="#005ba1"></circle><circle class="station" data-id="317830790" data-label="Euromédecine" cx="25905.14" cy="18434.388" r="0.1" fill="#005ba1"></circle><circle class="station" data-id="317830908" data-label="Hauts de Massane" cx="25904.442" cy="18434.916" r="0.1" fill="#005ba1"></circle><circle class="station" data-id="317831067" data-label="Saint-Paul" cx="25904.207" cy="18436.003" r="0.1" fill="#005ba1"></circle><circle class="station" data-id="317831124" data-label="Halles de la Paillade" cx="25903.712" cy="18436.617" r="0.1" fill="#005ba1"></circle><circle class="station" data-id="947038576" data-label="Odysseum" cx="25918.219" cy="18441.239" r="0.1" fill="#005ba1"></circle><circle class="station transit" data-id="2305432920" data-label="Comédie" cx="25912.502" cy="18440.34" r="0.185" fill="#333"></circle><circle class="station transit" data-id="2305432922" data-label="Gare Saint-Roch" cx="25912.556" cy="18440.875" r="0.185" fill="#333"></circle><circle class="station transit" data-id="2565144095" data-label="Moularès (Hôtel de Ville)" cx="25914.71" cy="18441.851" r="0.24" fill="#333"></circle><circle class="station" data-id="2572111087" data-label="Mondial 98" cx="25915.898" cy="18441.44" r="0.1" fill="#005ba1"></circle><circle class="station transit" data-id="2575586331" data-label="Rives du Lez" cx="25914.623" cy="18441.15" r="0.24" fill="#333"></circle><circle class="station transit" data-id="2575586432" data-label="Place de l&#x27;Europe" cx="25914.489" cy="18440.538" r="0.185" fill="#333"></circle><circle class="station transit" data-id="3118400914" data-label="Corum" cx="25912.771" cy="18439.207" r="0.185" fill="#333"></circle><circle class="station transit" data-id="3118400917" data-label="Louis Blanc" cx="25912.241" cy="18439.103" r="0.185" fill="#333"></circle><circle class="station" data-id="3118400918" data-label="Place Albert 1er - Saint-Charles" cx="25911.684" cy="18438.754" r="0.1" fill="#005ba1"></circle><circle class="station" data-id="3119065612" data-label="Antigone" cx="25913.454" cy="18440.323" r="0.1" fill="#005ba1"></circle><circle class="station" data-id="3119065613" data-label="Du Guesclin" cx="25912.971" cy="18440.602" r="0.1" fill="#005ba1"></circle><circle class="station" data-id="3119065614" data-label="Léon Blum" cx="25913.944" cy="18440.235" r="0.1" fill="#005ba1"></circle><circle class="station" data-id="3122483715" data-label="Millénaire" cx="25916.729" cy="18441.32" r="0.1" fill="#005ba1"></circle><circle class="station" data-id="3123093631" data-label="Boutonnet" cx="25910.845" cy="18437.563" r="0.1" fill="#005ba1"></circle><circle class="station" data-id="3123093685" data-label="Saint-Éloi" cx="25910.498" cy="18436.706" r="0.1" fill="#005ba1"></circle><circle class="station" data-id="3123093686" data-label="Stade Philippidès" cx="25911.044" cy="18438.264" r="0.1" fill="#005ba1"></circle><circle class="station" data-id="3123093687" data-label="Universités des Sciences et Lettres" cx="25909.908" cy="18436.31" r="0.1" fill="#005ba1"></circle><circle class="station transit" data-id="3124678226" data-label="Mosson" cx="25904.035" cy="18438.828" r="0.13" fill="#333"></circle><circle class="station" data-id="38460665" data-label="Croix d&#x27;Argent" cx="25910.61" cy="18443.435" r="0.1" fill="#F18E00"></circle><circle class="station" data-id="74943027" data-label="Aiguelongue" cx="25912.988" cy="18436.863" r="0.1" fill="#F18E00"></circle><circle class="station" data-id="119409072" data-label="Saint-Lazare" cx="25913.757" cy="18436.766" r="0.1" fill="#F18E00"></circle><circle class="station" data-id="148694939" data-label="Jeu de Mail des Abbés" cx="25913.094" cy="18437.991" r="0.1" fill="#F18E00"></circle><circle class="station" data-id="224660817" data-label="Beaux-Arts" cx="25913.028" cy="18438.659" r="0.1" fill="#F18E00"></circle><circle class="station" data-id="231529652" data-label="Saint-Cléophas" cx="25911.959" cy="18442.959" r="0.1" fill="#F18E00"></circle><circle class="station" data-id="231532087" data-label="Mas Drevon" cx="25910.824" cy="18442.841" r="0.1" fill="#F18E00"></circle><circle class="station" data-id="231578457" data-label="Saint-Jean-de-Védas Centre" cx="25905.567" cy="18446.865" r="0.1" fill="#F18E00"></circle><circle class="station" data-id="231578469" data-label="Saint-Jean-le-Sec" cx="25906.607" cy="18447.655" r="0.1" fill="#F18E00"></circle><circle class="station" data-id="231578480" data-label="La Condamine" cx="25907.509" cy="18447.426" r="0.1" fill="#F18E00"></circle><circle class="station" data-id="231578510" data-label="Sabines" cx="25909.717" cy="18445.114" r="0.1" fill="#F18E00"></circle><circle class="station" data-id="279249812" data-label="Victoire 2" cx="25908.288" cy="18446.798" r="0.1" fill="#F18E00"></circle><circle class="station transit" data-id="279556951" data-label="Rondelet" cx="25911.983" cy="18441.38" r="0.185" fill="#333"></circle><circle class="station" data-id="281259064" data-label="Lemasson" cx="25911.561" cy="18443.226" r="0.1" fill="#F18E00"></circle><circle class="station" data-id="281259065" data-label="Villeneuve d&#x27;Angoulême" cx="25910.505" cy="18444.143" r="0.1" fill="#F18E00"></circle><circle class="station" data-id="308531607" data-label="Jacou" cx="25917.144" cy="18431.355" r="0.1" fill="#F18E00"></circle><circle class="station" data-id="308734763" data-label="Via Domitia" cx="25919.489" cy="18432.862" r="0.1" fill="#F18E00"></circle><circle class="station" data-id="308735605" data-label="Aube Rouge" cx="25918.839" cy="18434.455" r="0.1" fill="#F18E00"></circle><circle class="station transit" data-id="350510758" data-label="Nouveau Saint-Roch" cx="25911.912" cy="18442.09" r="0.185" fill="#333"></circle><circle class="station" data-id="368004431" data-label="Georges Pompidou" cx="25918.3" cy="18432.363" r="0.1" fill="#F18E00"></circle><circle class="station" data-id="945144528" data-label="Notre-Dame de Sablassou" cx="25918.495" cy="18435.309" r="0.1" fill="#F18E00"></circle><circle class="station" data-id="1547440719" data-label="Centurions" cx="25917.567" cy="18435.595" r="0.1" fill="#F18E00"></circle><circle class="station" data-id="1547443496" data-label="La Galine" cx="25916.623" cy="18435.855" r="0.1" fill="#F18E00"></circle><circle class="station" data-id="1547447278" data-label="Clairval" cx="25915.718" cy="18436.105" r="0.1" fill="#F18E00"></circle><circle class="station" data-id="1547454806" data-label="Charles de Gaulle" cx="25915.034" cy="18436.401" r="0.1" fill="#F18E00"></circle><circle class="station" data-id="231389156" data-label="Place Carnot" cx="25913.126" cy="18441.27" r="0.1" fill="#cbd300"></circle><circle class="station" data-id="231389166" data-label="Voltaire" cx="25913.821" cy="18441.256" r="0.1" fill="#cbd300"></circle><circle class="station" data-id="281177110" data-label="Port Marianne" cx="25915.335" cy="18441.646" r="0.1" fill="#cbd300"></circle><circle class="station" data-id="1433104540" data-label="Pergola" cx="25906.85" cy="18438.589" r="0.1" fill="#cbd300"></circle><circle class="station" data-id="1503531720" data-label="Pérols - Étang de l&#x27;Or" cx="25924.302" cy="18450.158" r="0.1" fill="#cbd300"></circle><circle class="station" data-id="1503531737" data-label="Écopôle" cx="25920.31" cy="18446.261" r="0.1" fill="#cbd300"></circle><circle class="station" data-id="1504387689" data-label="Tonnelles" cx="25906.855" cy="18439.352" r="0.1" fill="#cbd300"></circle><circle class="station" data-id="1504405475" data-label="Jules Guesde" cx="25907.841" cy="18439.773" r="0.1" fill="#cbd300"></circle><circle class="station" data-id="1504405479" data-label="Astruc" cx="25909.004" cy="18439.98" r="0.1" fill="#cbd300"></circle><circle class="station" data-id="1506452489" data-label="Plan Cabanes" cx="25910.845" cy="18440.316" r="0.1" fill="#cbd300"></circle><circle class="station" data-id="1506744094" data-label="Hôtel du Département" cx="25906.197" cy="18437.693" r="0.1" fill="#cbd300"></circle><circle class="station" data-id="1506752860" data-label="Pilory" cx="25905.778" cy="18438.164" r="0.1" fill="#cbd300"></circle><circle class="station" data-id="1506752868" data-label="Celleneuve" cx="25904.897" cy="18438.926" r="0.1" fill="#cbd300"></circle><circle class="station" data-id="1508371545" data-label="Parc Expo" cx="25921.793" cy="18447.26" r="0.1" fill="#cbd300"></circle><circle class="station transit" data-id="1585675583" data-label="Observatoire" cx="25912.072" cy="18440.743" r="0.185" fill="#333"></circle><circle class="station" data-id="1675121446" data-label="Saint-Denis" cx="25911.669" cy="18440.889" r="0.1" fill="#cbd300"></circle><circle class="station" data-id="1680783344" data-label="Pablo Picasso" cx="25915.826" cy="18442.414" r="0.1" fill="#cbd300"></circle><circle class="station" data-id="1682209623" data-label="Arceaux" cx="25910.051" cy="18440.057" r="0.1" fill="#cbd300"></circle><circle class="station" data-id="3119254607" data-label="Boirargues" cx="25918.972" cy="18445.36" r="0.1" fill="#cbd300"></circle><circle class="station" data-id="3119255451" data-label="Pérols - Centre" cx="25923.416" cy="18448.709" r="0.1" fill="#cbd300"></circle><circle class="station" data-id="3124664050" data-label="Juvignac" cx="25902.652" cy="18438.587" r="0.1" fill="#cbd300"></circle><circle class="station" data-id="231454841" data-label="Les Aubes" cx="25913.695" cy="18439.262" r="0.1" fill="#4A2A15"></circle><circle class="station" data-id="250677074" data-label="Pompignane" cx="25914.621" cy="18439.542" r="0.1" fill="#4A2A15"></circle><circle class="station" data-id="1325372165" data-label="Georges Frêche - Hôtel de ville" cx="25914.625" cy="18442.092" r="0.1" fill="#4A2A15"></circle><circle class="station" data-id="1506442723" data-label="La Rauze" cx="25914.75" cy="18443.235" r="0.1" fill="#4A2A15"></circle><circle class="station" data-id="1506442726" data-label="Garcia Lorca" cx="25914.065" cy="18443.703" r="0.1" fill="#4A2A15"></circle><circle class="station" data-id="1934914135" data-label="Restanque" cx="25913.224" cy="18443.841" r="0.1" fill="#4A2A15"></circle><circle class="station" data-id="2564674976" data-label="Saint-Martin" cx="25912.556" cy="18443.486" r="0.1" fill="#4A2A15"></circle></g></svg>