<svg xmlns="http://www.w3.org/2000/svg" width="398" height="528.08" viewBox="-14.422 -12.795 19.9 26.404"><style>
	.line {
		stroke: #333;
		stroke-width: .09;
		fill: none;
		stroke-linejoin: round;
		stroke-linecap: round;
	}
	.station {
		stroke: none;
	}
	.transit {
		stroke: #555;
		stroke-width: .05;
		fill: #fff;
	}
</style><g><path class="line 1" style="stroke: #00A651;" d="M-12.195 -6.504L-11.382 -5.691"></path><path class="line 1" style="stroke: #00A651;" d="M-11.382 -5.691L-10.569 -4.878"></path><path class="line 1" style="stroke: #00A651;" d="M-10.569 -4.878L-9.756 -4.065"></path><path class="line 1" style="stroke: #00A651;" d="M-9.756 -4.065L-8.943 -3.252"></path><path class="line 1" style="stroke: #00A651;" d="M-8.943 -3.252L-8.13 -2.439"></path><path class="line 1" style="stroke: #00A651;" d="M-8.13 -2.439L-8.13 -1.626"></path><path class="line 1" style="stroke: #00A651;" d="M-8.13 -1.626L-8.13 -0.813"></path><path class="line 1" style="stroke: #00A651;" d="M-8.13 -0.813L-8.13 0"></path><path class="line 1" style="stroke: #00A651;" d="M-8.13 0L-7.317 0"></path><path class="line 1" style="stroke: #00A651;" d="M-7.317 0L-6.504 0"></path><path class="line 1" style="stroke: #00A651;" d="M-6.504 0L-5.691 0"></path><path class="line 1" style="stroke: #00A651;" d="M-5.691 0L-4.878 0"></path><path class="line 1" style="stroke: #00A651;" d="M-4.878 0L-4.065 0"></path><path class="line 1" style="stroke: #00A651;" d="M-4.065 0L-3.252 0"></path><path class="line 1" style="stroke: #00A651;" d="M-3.252 0L-2.439 0"></path><path class="line 1" style="stroke: #00A651;" d="M-2.439 0L-1.626 0"></path><path class="line 1" style="stroke: #00A651;" d="M-1.626 0L-0.813 0"></path><path class="line 1" style="stroke: #00A651;" d="M-0.813 0L0 0"></path><path class="line 1" style="stroke: #00A651;" d="M0 0L0.813 0"></path><path class="line 1" style="stroke: #00A651;" d="M0.813 0L1.626 0"></path><path class="line 1" style="stroke: #00A651;" d="M1.626 0L2.439 -0.813"></path><path class="line 1" style="stroke: #00A651;" d="M2.439 -0.813L3.252 -1.626"></path><path class="line 1" style="stroke: #00A651;" d="M3.252 -1.626L4.065 -2.439"></path><path class="line 1" style="stroke: #00A651;" d="M4.065 -2.439L4.878 -3.252"></path><path class="line 1" style="stroke: #00A651;" d="M4.878 -3.252L4.878 -4.065"></path><path class="line 1" style="stroke: #00A651;" d="M4.878 -4.065L4.878 -4.878"></path><path class="line 1" style="stroke: #00A651;" d="M4.878 -4.878L4.878 -5.691"></path><path class="line 1" style="stroke: #00A651;" d="M4.878 -5.691L4.878 -6.504"></path><path class="line 1" style="stroke: #00A651;" d="M4.878 -6.504L4.878 -7.317"></path><path class="line 1" style="stroke: #00A651;" d="M4.878 -7.317L4.878 -8.13"></path><path class="line 1" style="stroke: #00A651;" d="M4.878 -8.13L4.065 -8.943"></path><path class="line 2" style="stroke: #EE1C25;" d="M2.439 5.691L3.252 4.878"></path><path class="line 2" style="stroke: #EE1C25;" d="M3.324 4.878L3.324 4.065"></path><path class="line 3" style="stroke: #006DB1;" d="M3.181 4.878L3.181 4.065"></path><path class="line 2" style="stroke: #EE1C25;" d="M3.303 4.015L2.49 3.202"></path><path class="line 3" style="stroke: #006DB1;" d="M3.202 4.116L2.389 3.303"></path><path class="line 2" style="stroke: #EE1C25;" d="M2.49 3.202L1.677 2.389"></path><path class="line 3" style="stroke: #006DB1;" d="M2.389 3.303L1.576 2.49"></path><path class="line 2" style="stroke: #EE1C25;" d="M1.677 2.389L0.864 1.576"></path><path class="line 3" style="stroke: #006DB1;" d="M1.576 2.49L0.763 1.677"></path><path class="line 2" style="stroke: #EE1C25;" d="M0.864 1.576L0.051 0.763"></path><path class="line 3" style="stroke: #006DB1;" d="M0.763 1.677L-0.051 0.864"></path><path class="line 2" style="stroke: #EE1C25;" d="M0.051 0.763L-0.763 -0.051"></path><path class="line 3" style="stroke: #006DB1;" d="M-0.051 0.864L-0.864 0.051"></path><path class="line 2" style="stroke: #EE1C25;" d="M-0.813 0L-0.813 -0.813"></path><path class="line 2" style="stroke: #EE1C25;" d="M-0.813 -0.813L-0.813 -1.626"></path><path class="line 2" style="stroke: #EE1C25;" d="M-0.813 -1.626L-0.813 -2.439"></path><path class="line 2" style="stroke: #EE1C25;" d="M-0.813 -2.439L-0.813 -3.252"></path><path class="line 2" style="stroke: #EE1C25;" d="M-0.813 -3.252L-0.813 -4.065"></path><path class="line 2" style="stroke: #EE1C25;" d="M-0.813 -4.065L-0.813 -4.878"></path><path class="line 2" style="stroke: #EE1C25;" d="M-0.813 -4.878L-0.813 -5.691"></path><path class="line 2" style="stroke: #EE1C25;" d="M-0.813 -5.691L-0.813 -6.504"></path><path class="line 2" style="stroke: #EE1C25;" d="M-0.813 -6.504L-0.813 -7.317"></path><path class="line 2" style="stroke: #EE1C25;" d="M-0.813 -7.317L-0.813 -8.13"></path><path class="line 2" style="stroke: #EE1C25;" d="M-0.813 -8.13L-1.626 -8.943"></path><path class="line 2" style="stroke: #EE1C25;" d="M-1.626 -8.943L-2.439 -9.756"></path><path class="line 2" style="stroke: #EE1C25;" d="M-2.439 -9.756L-3.252 -10.569"></path><path class="line 2" style="stroke: #EE1C25;" d="M-3.252 -10.569L-4.065 -11.382"></path><path class="line 2" style="stroke: #EE1C25;" d="M-4.065 -11.382L-4.878 -12.195"></path><path class="line 2" style="stroke: #EE1C25;" d="M-4.878 -12.195L-5.691 -12.195"></path><path class="line 2" style="stroke: #EE1C25;" d="M-5.691 -12.195L-6.504 -12.195"></path><path class="line 3" style="stroke: #006DB1;" d="M-3.252 13.009L-2.439 12.195"></path><path class="line 3" style="stroke: #006DB1;" d="M-2.439 12.195L-1.626 11.382"></path><path class="line 3" style="stroke: #006DB1;" d="M-1.626 11.382L-0.813 10.569"></path><path class="line 3" style="stroke: #006DB1;" d="M-0.813 10.569L0 9.756"></path><path class="line 3" style="stroke: #006DB1;" d="M0 9.756L0.813 8.943"></path><path class="line 3" style="stroke: #006DB1;" d="M0.813 8.943L1.626 8.13"></path><path class="line 3" style="stroke: #006DB1;" d="M1.626 8.13L2.439 7.317"></path><path class="line 3" style="stroke: #006DB1;" d="M2.439 7.317L3.252 6.504"></path><path class="line 3" style="stroke: #006DB1;" d="M3.252 6.504L3.252 4.878"></path><path class="line 3" style="stroke: #006DB1;" d="M-0.813 0L-1.626 -0.813"></path><path class="line 3" style="stroke: #006DB1;" d="M-1.626 -0.813L-2.439 -1.626"></path><path class="line 3" style="stroke: #006DB1;" d="M-2.439 -1.626L-3.252 -2.439"></path><path class="line 3" style="stroke: #006DB1;" d="M-3.252 -2.439L-4.065 -3.252"></path><path class="line 3" style="stroke: #006DB1;" d="M-4.065 -3.252L-4.878 -4.065"></path><path class="line 3" style="stroke: #006DB1;" d="M-4.878 -4.065L-5.691 -4.878"></path><path class="line 3" style="stroke: #006DB1;" d="M-5.691 -4.878L-6.504 -5.691"></path><path class="line 3" style="stroke: #006DB1;" d="M-6.504 -5.691L-7.317 -6.504"></path><path class="line 3" style="stroke: #006DB1;" d="M-7.317 -6.504L-8.13 -7.317"></path><path class="line 3" style="stroke: #006DB1;" d="M-8.13 -7.317L-8.943 -8.13"></path><path class="line 3" style="stroke: #006DB1;" d="M-8.943 -8.13L-9.756 -8.943"></path><path class="line 3" style="stroke: #006DB1;" d="M-9.756 -8.943L-10.569 -9.756"></path><path class="line 3" style="stroke: #006DB1;" d="M-10.569 -9.756L-11.382 -10.569"></path><path class="line 3" style="stroke: #006DB1;" d="M-11.382 -10.569L-12.195 -10.569"></path><path class="line 3" style="stroke: #006DB1;" d="M-12.195 -10.569L-13.009 -10.569"></path><path class="line 3" style="stroke: #006DB1;" d="M-13.009 -10.569L-13.822 -10.569"></path><circle class="station" data-id="296396199" data-label="Bouffay" r="0.1" fill="#00A651"></circle><circle class="station" data-id="302674011" data-label="Moutonnerie" cx="3.252" cy="-1.626" r="0.1" fill="#00A651"></circle><circle class="station" data-id="302674015" data-label="Manufacture" cx="2.439" cy="-0.813" r="0.1" fill="#00A651"></circle><circle class="station" data-id="302674023" data-label="Gare SNCF Nord" cx="1.626" r="0.1" fill="#00A651"></circle><circle class="station" data-id="302674029" data-label="Duchesse Anne - Château" cx="0.813" r="0.1" fill="#00A651"></circle><circle class="station" data-id="302677573" data-label="Hôpital Bellier" cx="4.065" cy="-2.439" r="0.1" fill="#00A651"></circle><circle class="station" data-id="302677676" data-label="Boulevard de Doulon" cx="4.878" cy="-3.252" r="0.1" fill="#00A651"></circle><circle class="station" data-id="302678221" data-label="Pin Sec" cx="4.878" cy="-6.504" r="0.1" fill="#00A651"></circle><circle class="station" data-id="302678467" data-label="Halvêque" cx="4.878" cy="-8.13" r="0.1" fill="#00A651"></circle><circle class="station" data-id="302678647" data-label="Beaujoire" cx="4.065" cy="-8.943" r="0.1" fill="#00A651"></circle><circle class="station" data-id="302679787" data-label="Souillarderie" cx="4.878" cy="-5.691" r="0.1" fill="#00A651"></circle><circle class="station" data-id="302680657" data-label="Landreau" cx="4.878" cy="-4.878" r="0.1" fill="#00A651"></circle><circle class="station" data-id="302680659" data-label="Mairie de Doulon" cx="4.878" cy="-4.065" r="0.1" fill="#00A651"></circle><circle class="station transit" data-id="1573642014" data-label="Commerce" cx="-0.813" r="0.185" fill="#333"></circle><circle class="station" data-id="1573642018" data-label="Médiathèque" cx="-1.626" r="0.1" fill="#00A651"></circle><circle class="station" data-id="1573645606" data-label="Chantiers Navals" cx="-2.439" r="0.1" fill="#00A651"></circle><circle class="station" data-id="1573800311" data-label="Gare Maritime" cx="-3.252" r="0.1" fill="#00A651"></circle><circle class="station" data-id="1573830585" data-label="Croix Bonneau" cx="-5.691" r="0.1" fill="#00A651"></circle><circle class="station" data-id="1573830586" data-label="Du Chaffault" cx="-4.065" r="0.1" fill="#00A651"></circle><circle class="station" data-id="1573830595" data-label="Égalité" cx="-4.878" r="0.1" fill="#00A651"></circle><circle class="station" data-id="1573909399" data-label="Lauriers" cx="-7.317" r="0.1" fill="#00A651"></circle><circle class="station" data-id="1573913309" data-label="Jean Moulin" cx="-6.504" r="0.1" fill="#00A651"></circle><circle class="station" data-id="1573913312" data-label="Romain Rolland" cx="-8.13" r="0.1" fill="#00A651"></circle><circle class="station" data-id="1574613517" data-label="François Mitterrand" cx="-12.195" cy="-6.504" r="0.1" fill="#00A651"></circle><circle class="station" data-id="1574613532" data-label="Schoelcher" cx="-10.569" cy="-4.878" r="0.1" fill="#00A651"></circle><circle class="station" data-id="1574613537" data-label="Tourmaline" cx="-11.382" cy="-5.691" r="0.1" fill="#00A651"></circle><circle class="station" data-id="1574627200" data-label="Frachon" cx="-9.756" cy="-4.065" r="0.1" fill="#00A651"></circle><circle class="station" data-id="1574627206" data-label="Mendès France - Bellevue" cx="-8.13" cy="-0.813" r="0.1" fill="#00A651"></circle><circle class="station" data-id="1574627229" data-label="Neruda" cx="-8.943" cy="-3.252" r="0.1" fill="#00A651"></circle><circle class="station" data-id="1574627233" data-label="Romanet" cx="-8.13" cy="-1.626" r="0.1" fill="#00A651"></circle><circle class="station" data-id="1574627238" data-label="Tertre" cx="-8.13" cy="-2.439" r="0.1" fill="#00A651"></circle><circle class="station" data-id="1937874559" data-label="Haluchère-Batignolles" cx="4.878" cy="-7.317" r="0.1" fill="#00A651"></circle><circle class="station transit" data-id="1702974087" data-label="Aimé Delrue" cx="0.813" cy="1.626" r="0.185" fill="#333"></circle><circle class="station" data-id="1702974859" data-label="Boissière" cx="-2.439" cy="-9.756" r="0.1" fill="#EE1C25"></circle><circle class="station" data-id="1702975159" data-label="Bourgeonnière" cx="-1.626" cy="-8.943" r="0.1" fill="#EE1C25"></circle><circle class="station" data-id="1702975310" data-label="Chêne des Anglais" cx="-4.065" cy="-11.382" r="0.1" fill="#EE1C25"></circle><circle class="station" data-id="1702975371" data-label="50 Otages" cx="-0.813" cy="-1.626" r="0.1" fill="#EE1C25"></circle><circle class="station" data-id="1702975490" data-label="Facultés" cx="-0.813" cy="-6.504" r="0.1" fill="#EE1C25"></circle><circle class="station" data-id="1702975501" data-label="Gare de Pont-Rousseau" cx="2.439" cy="5.691" r="0.1" fill="#EE1C25"></circle><circle class="station transit" data-id="1702975508" data-label="Hôtel Dieu" cy="0.813" r="0.185" fill="#333"></circle><circle class="station" data-id="1702975509" data-label="Le Cardo" cx="-5.691" cy="-12.195" r="0.1" fill="#EE1C25"></circle><circle class="station transit" data-id="1702975511" data-label="Mangin" cx="3.252" cy="4.065" r="0.185" fill="#333"></circle><circle class="station" data-id="1702975517" data-label="Michelet Sciences" cx="-0.813" cy="-4.878" r="0.1" fill="#EE1C25"></circle><circle class="station" data-id="1702975537" data-label="Morrhonnière Petit Port" cx="-0.813" cy="-5.691" r="0.1" fill="#EE1C25"></circle><circle class="station" data-id="1702975614" data-label="Motte Rouge" cx="-0.813" cy="-3.252" r="0.1" fill="#EE1C25"></circle><circle class="station" data-id="1702975800" data-label="Orvault Grand Val" cx="-6.504" cy="-12.195" r="0.1" fill="#EE1C25"></circle><circle class="station transit" data-id="1702975854" data-label="Pirmil" cx="3.252" cy="4.878" r="0.185" fill="#333"></circle><circle class="station" data-id="1702976007" data-label="Place du Cirque" cx="-0.813" cy="-0.813" r="0.1" fill="#EE1C25"></circle><circle class="station" data-id="1702976165" data-label="Recteur Schmitt" cx="-0.813" cy="-8.13" r="0.1" fill="#EE1C25"></circle><circle class="station" data-id="1702976271" data-label="René Cassin" cx="-4.878" cy="-12.195" r="0.1" fill="#EE1C25"></circle><circle class="station" data-id="1702976363" data-label="Saint-Félix" cx="-0.813" cy="-4.065" r="0.1" fill="#EE1C25"></circle><circle class="station" data-id="1702976438" data-label="Saint-Mihiel" cx="-0.813" cy="-2.439" r="0.1" fill="#EE1C25"></circle><circle class="station" data-id="1702976492" data-label="Santos Dumont" cx="-3.252" cy="-10.569" r="0.1" fill="#EE1C25"></circle><circle class="station transit" data-id="1702976632" data-label="Vincent Gâche" cx="1.626" cy="2.439" r="0.185" fill="#333"></circle><circle class="station transit" data-id="1702976741" data-label="Wattignies" cx="2.439" cy="3.252" r="0.185" fill="#333"></circle><circle class="station" data-id="1703027793" data-label="École Centrale Audencia" cx="-0.813" cy="-7.317" r="0.1" fill="#EE1C25"></circle><circle class="station" data-id="289439988" data-label="Longchamp" cx="-7.317" cy="-6.504" r="0.1" fill="#006DB1"></circle><circle class="station" data-id="289439989" data-label="Alexandre Vincent Sainte-Thérèse" cx="-6.504" cy="-5.691" r="0.1" fill="#006DB1"></circle><circle class="station" data-id="289439990" data-label="Rond-Point de Vannes" cx="-5.691" cy="-4.878" r="0.1" fill="#006DB1"></circle><circle class="station" data-id="289439993" data-label="Félix Faure" cx="-4.878" cy="-4.065" r="0.1" fill="#006DB1"></circle><circle class="station" data-id="299132281" data-label="Beauséjour" cx="-8.13" cy="-7.317" r="0.1" fill="#006DB1"></circle><circle class="station" data-id="299132282" data-label="Plaisance" cx="-8.943" cy="-8.13" r="0.1" fill="#006DB1"></circle><circle class="station" data-id="299132283" data-label="Ferrière" cx="-9.756" cy="-8.943" r="0.1" fill="#006DB1"></circle><circle class="station" data-id="299132295" data-label="Jean Rostand" cx="-10.569" cy="-9.756" r="0.1" fill="#006DB1"></circle><circle class="station" data-id="299132334" data-label="Bignon" cx="-11.382" cy="-10.569" r="0.1" fill="#006DB1"></circle><circle class="station" data-id="313373980" data-label="Sillon de Bretagne" cx="-13.009" cy="-10.569" r="0.1" fill="#006DB1"></circle><circle class="station" data-id="313373994" data-label="Orvault Morlière" cx="-12.195" cy="-10.569" r="0.1" fill="#006DB1"></circle><circle class="station" data-id="327089202" data-label="Marcel Paul" cx="-13.822" cy="-10.569" r="0.1" fill="#006DB1"></circle><circle class="station" data-id="1702974649" data-label="Balinière" cx="1.626" cy="8.13" r="0.1" fill="#006DB1"></circle><circle class="station" data-id="1702975260" data-label="Château de Rezé Place François Mitterrand" cx="0.813" cy="8.943" r="0.1" fill="#006DB1"></circle><circle class="station" data-id="1702975475" data-label="Espace Diderot" cy="9.756" r="0.1" fill="#006DB1"></circle><circle class="station" data-id="1702975510" data-label="Les Couëts" cx="-2.439" cy="12.195" r="0.1" fill="#006DB1"></circle><circle class="station" data-id="1702975735" data-label="Neustrie" cx="-3.252" cy="13.009" r="0.1" fill="#006DB1"></circle><circle class="station" data-id="1702976122" data-label="Pont-Rousseau Martyrs" cx="3.252" cy="6.504" r="0.1" fill="#006DB1"></circle><circle class="station" data-id="1702976549" data-label="Trocardière" cx="-0.813" cy="10.569" r="0.1" fill="#006DB1"></circle><circle class="station" data-id="1703027794" data-label="8 Mai" cx="2.439" cy="7.317" r="0.1" fill="#006DB1"></circle><circle class="station" data-id="1813689197" data-label="Viarme-Talensac" cx="-3.252" cy="-2.439" r="0.1" fill="#006DB1"></circle><circle class="station" data-id="1813689200" data-label="Jean Jaurès" cx="-2.439" cy="-1.626" r="0.1" fill="#006DB1"></circle><circle class="station" data-id="2887317993" data-label="Grande Ouche" cx="-1.626" cy="11.382" r="0.1" fill="#006DB1"></circle><circle class="station" data-id="2901345074" data-label="Bretagne" cx="-1.626" cy="-0.813" r="0.1" fill="#006DB1"></circle><circle class="station" data-id="2914948341" data-label="Poitou" cx="-4.065" cy="-3.252" r="0.1" fill="#006DB1"></circle></g></svg>