<svg xmlns="http://www.w3.org/2000/svg" width="417.59999999999997" height="436.4" viewBox="28722.754 20232.997 20.88 21.82"><style>
	.line {
		stroke: #333;
		stroke-width: .09;
		fill: none;
		stroke-linejoin: round;
		stroke-linecap: round;
	}
	.station {
		stroke: none;
	}
	.transit {
		stroke: #555;
		stroke-width: .05;
		fill: #fff;
	}
</style><g><path class="line 1" style="stroke: #00A651;" d="M28723.354 20243.594L28724.254 20243.747"></path><path class="line 1" style="stroke: #00A651;" d="M28724.254 20243.747L28724.998 20243.963"></path><path class="line 1" style="stroke: #00A651;" d="M28724.998 20243.963L28726.198 20244.307"></path><path class="line 1" style="stroke: #00A651;" d="M28726.198 20244.307L28727.302 20244.652"></path><path class="line 1" style="stroke: #00A651;" d="M28727.302 20244.652L28728.199 20245.374"></path><path class="line 1" style="stroke: #00A651;" d="M28728.199 20245.374L28728.053 20246.056"></path><path class="line 1" style="stroke: #00A651;" d="M28728.053 20246.056L28727.657 20246.757"></path><path class="line 1" style="stroke: #00A651;" d="M28727.657 20246.757L28727.939 20247.25"></path><path class="line 1" style="stroke: #00A651;" d="M28727.939 20247.25L28728.707 20247.703"></path><path class="line 1" style="stroke: #00A651;" d="M28728.707 20247.703L28729.474 20247.181"></path><path class="line 1" style="stroke: #00A651;" d="M28729.474 20247.181L28730.247 20246.546"></path><path class="line 1" style="stroke: #00A651;" d="M28730.247 20246.546L28731.343 20246.614"></path><path class="line 1" style="stroke: #00A651;" d="M28731.343 20246.614L28732.44 20247.039"></path><path class="line 1" style="stroke: #00A651;" d="M28732.44 20247.039L28733.842 20247.156"></path><path class="line 1" style="stroke: #00A651;" d="M28733.842 20247.156L28734.738 20246.728"></path><path class="line 1" style="stroke: #00A651;" d="M28734.738 20246.728L28735.815 20246.192"></path><path class="line 1" style="stroke: #00A651;" d="M28735.815 20246.192L28736.593 20245.614"></path><path class="line 1" style="stroke: #00A651;" d="M28736.593 20245.614L28737.187 20245.376"></path><path class="line 1" style="stroke: #00A651;" d="M28737.187 20245.376L28737.999 20244.978"></path><path class="line 1" style="stroke: #00A651;" d="M28737.999 20244.978L28738.789 20244.596"></path><path class="line 1" style="stroke: #00A651;" d="M28738.789 20244.596L28739.6 20244.384"></path><path class="line 1" style="stroke: #00A651;" d="M28739.6 20244.384L28740.281 20244.191"></path><path class="line 1" style="stroke: #00A651;" d="M28740.281 20244.191L28741.671 20243.809"></path><path class="line 1" style="stroke: #00A651;" d="M28741.671 20243.809L28742.397 20243.034"></path><path class="line 1" style="stroke: #00A651;" d="M28742.397 20243.034L28742.614 20242.462"></path><path class="line 1" style="stroke: #00A651;" d="M28742.614 20242.462L28743.022 20241.167"></path><path class="line 1" style="stroke: #00A651;" d="M28743.022 20241.167L28743.034 20239.748"></path><path class="line 1" style="stroke: #00A651;" d="M28743.034 20239.748L28742.709 20238.499"></path><path class="line 1" style="stroke: #00A651;" d="M28742.709 20238.499L28742.014 20237.246"></path><path class="line 1" style="stroke: #00A651;" d="M28742.014 20237.246L28742.323 20235.248"></path><path class="line 1" style="stroke: #00A651;" d="M28742.323 20235.248L28741.431 20234.878"></path><path class="line 2" style="stroke: #EE1C25;" d="M28737.712 20250.493L28738.732 20249.737"></path><path class="line 2" style="stroke: #EE1C25;" d="M28738.801 20249.718L28738.429 20248.395"></path><path class="line 3" style="stroke: #006DB1;" d="M28738.663 20249.756L28738.291 20248.433"></path><path class="line 2" style="stroke: #EE1C25;" d="M28738.426 20248.386L28738.198 20247.86"></path><path class="line 3" style="stroke: #006DB1;" d="M28738.294 20248.442L28738.067 20247.917"></path><path class="line 2" style="stroke: #EE1C25;" d="M28738.197 20247.857L28737.903 20247.253"></path><path class="line 3" style="stroke: #006DB1;" d="M28738.068 20247.92L28737.775 20247.316"></path><path class="line 2" style="stroke: #EE1C25;" d="M28737.903 20247.252L28737.59 20246.629"></path><path class="line 3" style="stroke: #006DB1;" d="M28737.775 20247.316L28737.463 20246.693"></path><path class="line 2" style="stroke: #EE1C25;" d="M28737.583 20246.618L28737.093 20245.971"></path><path class="line 3" style="stroke: #006DB1;" d="M28737.469 20246.704L28736.98 20246.057"></path><path class="line 2" style="stroke: #EE1C25;" d="M28737.084 20245.961L28736.64 20245.56"></path><path class="line 3" style="stroke: #006DB1;" d="M28736.989 20246.067L28736.545 20245.667"></path><path class="line 2" style="stroke: #EE1C25;" d="M28736.593 20245.614L28736.426 20244.809"></path><path class="line 2" style="stroke: #EE1C25;" d="M28736.426 20244.809L28736.639 20244.087"></path><path class="line 2" style="stroke: #EE1C25;" d="M28736.639 20244.087L28737.02 20243.3"></path><path class="line 2" style="stroke: #EE1C25;" d="M28737.02 20243.3L28736.904 20242.232"></path><path class="line 2" style="stroke: #EE1C25;" d="M28736.904 20242.232L28736.519 20241.386"></path><path class="line 2" style="stroke: #EE1C25;" d="M28736.519 20241.386L28736.506 20240.488"></path><path class="line 2" style="stroke: #EE1C25;" d="M28736.506 20240.488L28736.528 20238.988"></path><path class="line 2" style="stroke: #EE1C25;" d="M28736.528 20238.988L28736.727 20237.982"></path><path class="line 2" style="stroke: #EE1C25;" d="M28736.727 20237.982L28737.368 20237.295"></path><path class="line 2" style="stroke: #EE1C25;" d="M28737.368 20237.295L28737.105 20236.483"></path><path class="line 2" style="stroke: #EE1C25;" d="M28737.105 20236.483L28735.987 20236.2"></path><path class="line 2" style="stroke: #EE1C25;" d="M28735.987 20236.2L28735.011 20235.762"></path><path class="line 2" style="stroke: #EE1C25;" d="M28735.011 20235.762L28734.646 20234.722"></path><path class="line 2" style="stroke: #EE1C25;" d="M28734.646 20234.722L28733.816 20234.258"></path><path class="line 2" style="stroke: #EE1C25;" d="M28733.816 20234.258L28733.345 20233.597"></path><path class="line 2" style="stroke: #EE1C25;" d="M28733.345 20233.597L28732.043 20234.164"></path><path class="line 2" style="stroke: #EE1C25;" d="M28732.043 20234.164L28730.773 20234.159"></path><path class="line 3" style="stroke: #006DB1;" d="M28730.678 20254.217L28731.695 20253.395"></path><path class="line 3" style="stroke: #006DB1;" d="M28731.695 20253.395L28732.818 20253.255"></path><path class="line 3" style="stroke: #006DB1;" d="M28732.818 20253.255L28734.343 20252.814"></path><path class="line 3" style="stroke: #006DB1;" d="M28734.343 20252.814L28735.585 20252.509"></path><path class="line 3" style="stroke: #006DB1;" d="M28735.585 20252.509L28736.03 20252.448"></path><path class="line 3" style="stroke: #006DB1;" d="M28736.03 20252.448L28736.934 20252.12"></path><path class="line 3" style="stroke: #006DB1;" d="M28736.934 20252.12L28737.324 20251.348"></path><path class="line 3" style="stroke: #006DB1;" d="M28737.324 20251.348L28737.827 20250.765"></path><path class="line 3" style="stroke: #006DB1;" d="M28737.827 20250.765L28738.732 20249.737"></path><path class="line 3" style="stroke: #006DB1;" d="M28736.593 20245.614L28736.216 20244.739"></path><path class="line 3" style="stroke: #006DB1;" d="M28736.216 20244.739L28735.898 20244.418"></path><path class="line 3" style="stroke: #006DB1;" d="M28735.898 20244.418L28735.524 20243.766"></path><path class="line 3" style="stroke: #006DB1;" d="M28735.524 20243.766L28735.087 20243.075"></path><path class="line 3" style="stroke: #006DB1;" d="M28735.087 20243.075L28734.421 20242.395"></path><path class="line 3" style="stroke: #006DB1;" d="M28734.421 20242.395L28733.902 20241.734"></path><path class="line 3" style="stroke: #006DB1;" d="M28733.902 20241.734L28733.12 20241.039"></path><path class="line 3" style="stroke: #006DB1;" d="M28733.12 20241.039L28732.354 20240.522"></path><path class="line 3" style="stroke: #006DB1;" d="M28732.354 20240.522L28731.576 20239.768"></path><path class="line 3" style="stroke: #006DB1;" d="M28731.576 20239.768L28730.921 20239.301"></path><path class="line 3" style="stroke: #006DB1;" d="M28730.921 20239.301L28730.874 20238.581"></path><path class="line 3" style="stroke: #006DB1;" d="M28730.874 20238.581L28730.5 20237.913"></path><path class="line 3" style="stroke: #006DB1;" d="M28730.5 20237.913L28729.856 20237.152"></path><path class="line 3" style="stroke: #006DB1;" d="M28729.856 20237.152L28728.975 20237.685"></path><path class="line 3" style="stroke: #006DB1;" d="M28728.975 20237.685L28728.12 20238.014"></path><path class="line 3" style="stroke: #006DB1;" d="M28728.12 20238.014L28726.89 20237.935"></path><circle class="station" data-id="296396199" data-label="Bouffay" cx="28737.187" cy="20245.376" r="0.1" fill="#00A651"></circle><circle class="station" data-id="302674011" data-label="Moutonnerie" cx="28740.281" cy="20244.191" r="0.1" fill="#00A651"></circle><circle class="station" data-id="302674015" data-label="Manufacture" cx="28739.6" cy="20244.384" r="0.1" fill="#00A651"></circle><circle class="station" data-id="302674023" data-label="Gare SNCF Nord" cx="28738.789" cy="20244.596" r="0.1" fill="#00A651"></circle><circle class="station" data-id="302674029" data-label="Duchesse Anne - Château" cx="28737.999" cy="20244.978" r="0.1" fill="#00A651"></circle><circle class="station" data-id="302677573" data-label="Hôpital Bellier" cx="28741.671" cy="20243.809" r="0.1" fill="#00A651"></circle><circle class="station" data-id="302677676" data-label="Boulevard de Doulon" cx="28742.397" cy="20243.034" r="0.1" fill="#00A651"></circle><circle class="station" data-id="302678221" data-label="Pin Sec" cx="28742.709" cy="20238.499" r="0.1" fill="#00A651"></circle><circle class="station" data-id="302678467" data-label="Halvêque" cx="28742.323" cy="20235.248" r="0.1" fill="#00A651"></circle><circle class="station" data-id="302678647" data-label="Beaujoire" cx="28741.431" cy="20234.878" r="0.1" fill="#00A651"></circle><circle class="station" data-id="302679787" data-label="Souillarderie" cx="28743.034" cy="20239.748" r="0.1" fill="#00A651"></circle><circle class="station" data-id="302680657" data-label="Landreau" cx="28743.022" cy="20241.167" r="0.1" fill="#00A651"></circle><circle class="station" data-id="302680659" data-label="Mairie de Doulon" cx="28742.614" cy="20242.462" r="0.1" fill="#00A651"></circle><circle class="station transit" data-id="1573642014" data-label="Commerce" cx="28736.593" cy="20245.614" r="0.185" fill="#333"></circle><circle class="station" data-id="1573642018" data-label="Médiathèque" cx="28735.815" cy="20246.192" r="0.1" fill="#00A651"></circle><circle class="station" data-id="1573645606" data-label="Chantiers Navals" cx="28734.738" cy="20246.728" r="0.1" fill="#00A651"></circle><circle class="station" data-id="1573800311" data-label="Gare Maritime" cx="28733.842" cy="20247.156" r="0.1" fill="#00A651"></circle><circle class="station" data-id="1573830585" data-label="Croix Bonneau" cx="28730.247" cy="20246.546" r="0.1" fill="#00A651"></circle><circle class="station" data-id="1573830586" data-label="Du Chaffault" cx="28732.44" cy="20247.039" r="0.1" fill="#00A651"></circle><circle class="station" data-id="1573830595" data-label="Égalité" cx="28731.343" cy="20246.614" r="0.1" fill="#00A651"></circle><circle class="station" data-id="1573909399" data-label="Lauriers" cx="28728.707" cy="20247.703" r="0.1" fill="#00A651"></circle><circle class="station" data-id="1573913309" data-label="Jean Moulin" cx="28729.474" cy="20247.181" r="0.1" fill="#00A651"></circle><circle class="station" data-id="1573913312" data-label="Romain Rolland" cx="28727.939" cy="20247.25" r="0.1" fill="#00A651"></circle><circle class="station" data-id="1574613517" data-label="François Mitterrand" cx="28723.354" cy="20243.594" r="0.1" fill="#00A651"></circle><circle class="station" data-id="1574613532" data-label="Schoelcher" cx="28724.998" cy="20243.963" r="0.1" fill="#00A651"></circle><circle class="station" data-id="1574613537" data-label="Tourmaline" cx="28724.254" cy="20243.747" r="0.1" fill="#00A651"></circle><circle class="station" data-id="1574627200" data-label="Frachon" cx="28726.198" cy="20244.307" r="0.1" fill="#00A651"></circle><circle class="station" data-id="1574627206" data-label="Mendès France - Bellevue" cx="28727.657" cy="20246.757" r="0.1" fill="#00A651"></circle><circle class="station" data-id="1574627229" data-label="Neruda" cx="28727.302" cy="20244.652" r="0.1" fill="#00A651"></circle><circle class="station" data-id="1574627233" data-label="Romanet" cx="28728.053" cy="20246.056" r="0.1" fill="#00A651"></circle><circle class="station" data-id="1574627238" data-label="Tertre" cx="28728.199" cy="20245.374" r="0.1" fill="#00A651"></circle><circle class="station" data-id="1937874559" data-label="Haluchère-Batignolles" cx="28742.014" cy="20237.246" r="0.1" fill="#00A651"></circle><circle class="station transit" data-id="1702974087" data-label="Aimé Delrue" cx="28737.526" cy="20246.661" r="0.185" fill="#333"></circle><circle class="station" data-id="1702974859" data-label="Boissière" cx="28735.011" cy="20235.762" r="0.1" fill="#EE1C25"></circle><circle class="station" data-id="1702975159" data-label="Bourgeonnière" cx="28735.987" cy="20236.2" r="0.1" fill="#EE1C25"></circle><circle class="station" data-id="1702975310" data-label="Chêne des Anglais" cx="28733.816" cy="20234.258" r="0.1" fill="#EE1C25"></circle><circle class="station" data-id="1702975371" data-label="50 Otages" cx="28736.639" cy="20244.087" r="0.1" fill="#EE1C25"></circle><circle class="station" data-id="1702975490" data-label="Facultés" cx="28736.727" cy="20237.982" r="0.1" fill="#EE1C25"></circle><circle class="station" data-id="1702975501" data-label="Gare de Pont-Rousseau" cx="28737.712" cy="20250.493" r="0.1" fill="#EE1C25"></circle><circle class="station transit" data-id="1702975508" data-label="Hôtel Dieu" cx="28737.036" cy="20246.014" r="0.185" fill="#333"></circle><circle class="station" data-id="1702975509" data-label="Le Cardo" cx="28732.043" cy="20234.164" r="0.1" fill="#EE1C25"></circle><circle class="station transit" data-id="1702975511" data-label="Mangin" cx="28738.36" cy="20248.414" r="0.185" fill="#333"></circle><circle class="station" data-id="1702975517" data-label="Michelet Sciences" cx="28736.506" cy="20240.488" r="0.1" fill="#EE1C25"></circle><circle class="station" data-id="1702975537" data-label="Morrhonnière Petit Port" cx="28736.528" cy="20238.988" r="0.1" fill="#EE1C25"></circle><circle class="station" data-id="1702975614" data-label="Motte Rouge" cx="28736.904" cy="20242.232" r="0.1" fill="#EE1C25"></circle><circle class="station" data-id="1702975800" data-label="Orvault Grand Val" cx="28730.773" cy="20234.159" r="0.1" fill="#EE1C25"></circle><circle class="station transit" data-id="1702975854" data-label="Pirmil" cx="28738.732" cy="20249.737" r="0.185" fill="#333"></circle><circle class="station" data-id="1702976007" data-label="Place du Cirque" cx="28736.426" cy="20244.809" r="0.1" fill="#EE1C25"></circle><circle class="station" data-id="1702976165" data-label="Recteur Schmitt" cx="28737.105" cy="20236.483" r="0.1" fill="#EE1C25"></circle><circle class="station" data-id="1702976271" data-label="René Cassin" cx="28733.345" cy="20233.597" r="0.1" fill="#EE1C25"></circle><circle class="station" data-id="1702976363" data-label="Saint-Félix" cx="28736.519" cy="20241.386" r="0.1" fill="#EE1C25"></circle><circle class="station" data-id="1702976438" data-label="Saint-Mihiel" cx="28737.02" cy="20243.3" r="0.1" fill="#EE1C25"></circle><circle class="station" data-id="1702976492" data-label="Santos Dumont" cx="28734.646" cy="20234.722" r="0.1" fill="#EE1C25"></circle><circle class="station transit" data-id="1702976632" data-label="Vincent Gâche" cx="28737.839" cy="20247.284" r="0.185" fill="#333"></circle><circle class="station transit" data-id="1702976741" data-label="Wattignies" cx="28738.133" cy="20247.888" r="0.185" fill="#333"></circle><circle class="station" data-id="1703027793" data-label="École Centrale Audencia" cx="28737.368" cy="20237.295" r="0.1" fill="#EE1C25"></circle><circle class="station" data-id="289439988" data-label="Longchamp" cx="28732.354" cy="20240.522" r="0.1" fill="#006DB1"></circle><circle class="station" data-id="289439989" data-label="Alexandre Vincent Sainte-Thérèse" cx="28733.12" cy="20241.039" r="0.1" fill="#006DB1"></circle><circle class="station" data-id="289439990" data-label="Rond-Point de Vannes" cx="28733.902" cy="20241.734" r="0.1" fill="#006DB1"></circle><circle class="station" data-id="289439993" data-label="Félix Faure" cx="28734.421" cy="20242.395" r="0.1" fill="#006DB1"></circle><circle class="station" data-id="299132281" data-label="Beauséjour" cx="28731.576" cy="20239.768" r="0.1" fill="#006DB1"></circle><circle class="station" data-id="299132282" data-label="Plaisance" cx="28730.921" cy="20239.301" r="0.1" fill="#006DB1"></circle><circle class="station" data-id="299132283" data-label="Ferrière" cx="28730.874" cy="20238.581" r="0.1" fill="#006DB1"></circle><circle class="station" data-id="299132295" data-label="Jean Rostand" cx="28730.5" cy="20237.913" r="0.1" fill="#006DB1"></circle><circle class="station" data-id="299132334" data-label="Bignon" cx="28729.856" cy="20237.152" r="0.1" fill="#006DB1"></circle><circle class="station" data-id="313373980" data-label="Sillon de Bretagne" cx="28728.12" cy="20238.014" r="0.1" fill="#006DB1"></circle><circle class="station" data-id="313373994" data-label="Orvault Morlière" cx="28728.975" cy="20237.685" r="0.1" fill="#006DB1"></circle><circle class="station" data-id="327089202" data-label="Marcel Paul" cx="28726.89" cy="20237.935" r="0.1" fill="#006DB1"></circle><circle class="station" data-id="1702974649" data-label="Balinière" cx="28736.934" cy="20252.12" r="0.1" fill="#006DB1"></circle><circle class="station" data-id="1702975260" data-label="Château de Rezé Place François Mitterrand" cx="28736.03" cy="20252.448" r="0.1" fill="#006DB1"></circle><circle class="station" data-id="1702975475" data-label="Espace Diderot" cx="28735.585" cy="20252.509" r="0.1" fill="#006DB1"></circle><circle class="station" data-id="1702975510" data-label="Les Couëts" cx="28731.695" cy="20253.395" r="0.1" fill="#006DB1"></circle><circle class="station" data-id="1702975735" data-label="Neustrie" cx="28730.678" cy="20254.217" r="0.1" fill="#006DB1"></circle><circle class="station" data-id="1702976122" data-label="Pont-Rousseau Martyrs" cx="28737.827" cy="20250.765" r="0.1" fill="#006DB1"></circle><circle class="station" data-id="1702976549" data-label="Trocardière" cx="28734.343" cy="20252.814" r="0.1" fill="#006DB1"></circle><circle class="station" data-id="1703027794" data-label="8 Mai" cx="28737.324" cy="20251.348" r="0.1" fill="#006DB1"></circle><circle class="station" data-id="1813689197" data-label="Viarme-Talensac" cx="28735.524" cy="20243.766" r="0.1" fill="#006DB1"></circle><circle class="station" data-id="1813689200" data-label="Jean Jaurès" cx="28735.898" cy="20244.418" r="0.1" fill="#006DB1"></circle><circle class="station" data-id="2887317993" data-label="Grande Ouche" cx="28732.818" cy="20253.255" r="0.1" fill="#006DB1"></circle><circle class="station" data-id="2901345074" data-label="Bretagne" cx="28736.216" cy="20244.739" r="0.1" fill="#006DB1"></circle><circle class="station" data-id="2914948341" data-label="Poitou" cx="28735.087" cy="20243.075" r="0.1" fill="#006DB1"></circle></g></svg>