<svg xmlns="http://www.w3.org/2000/svg" width="428.48" height="387.2" viewBox="-9.267 -3.902 21.424 19.36"><style>
	.line {
		stroke: #333;
		stroke-width: .09;
		fill: none;
		stroke-linejoin: round;
		stroke-linecap: round;
	}
	.station {
		stroke: none;
	}
	.transit {
		stroke: #555;
		stroke-width: .05;
		fill: #fff;
	}
</style><g><path class="line T10" style="stroke: blue;" d="M8.255 4.127L7.429 4.127"></path><path class="line T10" style="stroke: blue;" d="M7.429 4.127L5.778 4.127"></path><path class="line T10" style="stroke: blue;" d="M5.778 4.127L4.953 3.302"></path><path class="line T10" style="stroke: blue;" d="M4.953 3.302L4.127 2.476"></path><path class="line T10" style="stroke: blue;" d="M4.127 2.476L3.302 1.651"></path><path class="line T10" style="stroke: blue;" d="M3.302 1.651L2.476 1.651"></path><path class="line T10" style="stroke: blue;" d="M2.476 1.651L1.651 1.651"></path><path class="line T10" style="stroke: blue;" d="M1.651 1.651L0.825 0.825"></path><path class="line T10" style="stroke: blue;" d="M0.825 0.825L0 0"></path><path class="line T10" style="stroke: blue;" d="M0 0L-0.825 -0.825"></path><path class="line T10" style="stroke: blue;" d="M-0.825 -0.825L-1.651 -1.651"></path><path class="line T10" style="stroke: blue;" d="M-1.651 -1.651L-2.476 -2.476"></path><path class="line T10" style="stroke: blue;" d="M-2.476 -2.476L-3.302 -3.302"></path><path class="line T11" style="stroke: blue;" d="M3.302 1.651L2.476 0.825"></path><path class="line T11" style="stroke: blue;" d="M2.476 0.825L1.651 0"></path><path class="line T11" style="stroke: blue;" d="M1.651 0L0.825 -0.825"></path><path class="line T11" style="stroke: blue;" d="M0.825 -0.825L0 -1.651"></path><path class="line T11" style="stroke: blue;" d="M0 -1.651L-0.825 -2.476"></path><path class="line T11" style="stroke: blue;" d="M-0.825 -2.476L-1.651 -3.302"></path><path class="line T13" style="stroke: red;" d="M10.731 0.825L9.906 1.651"></path><path class="line T13" style="stroke: red;" d="M9.906 1.651L9.08 2.476"></path><path class="line T13" style="stroke: red;" d="M9.08 2.476L8.255 3.302"></path><path class="line T13" style="stroke: red;" d="M8.255 3.302L7.429 4.127"></path><path class="line T13" style="stroke: red;" d="M7.501 4.127L7.501 4.953"></path><path class="line T17" style="stroke: green;" d="M7.358 4.127L7.358 4.953"></path><path class="line T13" style="stroke: red;" d="M7.501 4.953L7.501 5.778"></path><path class="line T17" style="stroke: green;" d="M7.358 4.953L7.358 5.778"></path><path class="line T13" style="stroke: red;" d="M7.429 5.778L6.604 5.778"></path><path class="line T13" style="stroke: red;" d="M6.604 5.778L5.778 5.778"></path><path class="line T13" style="stroke: red;" d="M5.778 5.778L4.953 5.778"></path><path class="line T13" style="stroke: red;" d="M4.953 5.778L4.127 5.778"></path><path class="line T13" style="stroke: red;" d="M4.127 5.778L3.302 5.778"></path><path class="line T13" style="stroke: red;" d="M3.302 5.778L2.476 5.778"></path><path class="line T13" style="stroke: red;" d="M2.476 5.778L1.651 5.778"></path><path class="line T13" style="stroke: red;" d="M1.651 5.778L0.825 5.778"></path><path class="line T13" style="stroke: red;" d="M0.825 5.778L-0.619 7.223"></path><path class="line T13" style="stroke: red;" d="M-0.619 7.223L-2.064 8.667"></path><path class="line T13" style="stroke: red;" d="M-2.064 8.667L-2.889 9.493"></path><path class="line T13" style="stroke: red;" d="M-2.889 9.493L-3.715 10.318"></path><path class="line T13" style="stroke: red;" d="M-3.715 10.318L-4.54 11.144"></path><path class="line T13" style="stroke: red;" d="M-4.54 11.144L-5.366 11.969"></path><path class="line T13" style="stroke: red;" d="M-5.366 11.969L-6.191 12.795"></path><path class="line T13" style="stroke: red;" d="M-6.191 12.795L-7.016 12.795"></path><path class="line T13" style="stroke: red;" d="M-7.016 12.795L-7.842 12.795"></path><path class="line T13" style="stroke: red;" d="M-7.842 12.795L-8.667 12.795"></path><path class="line T14" style="stroke: red;" d="M7.429 -1.651L7.429 -0.825"></path><path class="line T14" style="stroke: red;" d="M7.429 -0.825L7.429 0"></path><path class="line T14" style="stroke: red;" d="M7.429 0L7.429 0.825"></path><path class="line T14" style="stroke: red;" d="M7.429 0.825L7.429 1.651"></path><path class="line T14" style="stroke: red;" d="M7.429 1.651L8.255 2.476"></path><path class="line T14" style="stroke: red;" d="M8.255 2.476L8.255 3.302"></path><path class="line T14" style="stroke: red;" d="M4.127 5.778L3.302 6.604"></path><path class="line T14" style="stroke: red;" d="M3.302 6.604L2.476 7.429"></path><path class="line T14" style="stroke: red;" d="M2.476 7.429L1.651 8.255"></path><path class="line T14" style="stroke: red;" d="M1.651 8.255L0.825 9.08"></path><path class="line T14" style="stroke: red;" d="M0.825 9.08L0 9.906"></path><path class="line T17" style="stroke: green;" d="M11.557 11.557L10.731 10.731"></path><path class="line T17" style="stroke: green;" d="M10.731 10.731L9.906 9.906"></path><path class="line T17" style="stroke: green;" d="M9.906 9.906L9.906 9.08"></path><path class="line T17" style="stroke: green;" d="M9.906 9.08L9.08 9.08"></path><path class="line T17" style="stroke: green;" d="M9.08 9.08L8.255 9.08"></path><path class="line T17" style="stroke: green;" d="M8.255 9.08L7.429 8.255"></path><path class="line T17" style="stroke: green;" d="M7.429 8.255L7.429 7.429"></path><path class="line T17" style="stroke: green;" d="M7.429 7.429L7.429 6.604"></path><path class="line T17" style="stroke: green;" d="M7.429 6.604L7.429 5.778"></path><path class="line T17" style="stroke: green;" d="M7.429 4.127L7.429 3.302"></path><path class="line T17" style="stroke: green;" d="M7.429 3.302L7.429 2.476"></path><path class="line T17" style="stroke: green;" d="M7.429 2.476L6.604 2.476"></path><path class="line T17" style="stroke: green;" d="M6.604 2.476L5.778 2.476"></path><path class="line T17" style="stroke: green;" d="M5.778 2.476L4.953 3.302"></path><path class="line T17" style="stroke: green;" d="M4.953 3.302L4.127 4.127"></path><path class="line T17" style="stroke: green;" d="M4.127 4.127L3.302 4.127"></path><path class="line T17" style="stroke: green;" d="M3.302 4.127L2.476 4.127"></path><path class="line T17" style="stroke: green;" d="M2.476 4.127L1.651 4.127"></path><path class="line T17" style="stroke: green;" d="M1.651 4.127L0.825 4.127"></path><path class="line T17" style="stroke: green;" d="M0.825 4.127L0 4.127"></path><path class="line T17" style="stroke: green;" d="M0 4.127L-0.825 4.127"></path><path class="line T18" style="stroke: green;" d="M8.255 14.858L8.255 14.033"></path><path class="line T18" style="stroke: green;" d="M8.255 14.033L8.255 13.207"></path><path class="line T18" style="stroke: green;" d="M8.255 13.207L8.255 12.382"></path><path class="line T18" style="stroke: green;" d="M8.255 12.382L8.255 11.557"></path><path class="line T18" style="stroke: green;" d="M8.255 11.557L8.255 10.731"></path><path class="line T18" style="stroke: green;" d="M8.255 10.731L8.255 9.906"></path><path class="line T18" style="stroke: green;" d="M8.255 9.906L8.255 9.08"></path><path class="line T19" style="stroke: green;" d="M-7.429 2.476L-6.604 2.476"></path><path class="line T19" style="stroke: green;" d="M-6.604 2.476L-5.778 2.476"></path><path class="line T19" style="stroke: green;" d="M-5.778 2.476L-4.953 2.476"></path><path class="line T19" style="stroke: green;" d="M-4.953 2.476L-4.127 3.302"></path><path class="line T19" style="stroke: green;" d="M-4.127 3.302L-3.302 4.127"></path><path class="line T19" style="stroke: green;" d="M-3.302 4.127L-2.476 4.127"></path><path class="line T19" style="stroke: green;" d="M-2.476 4.127L-1.651 4.127"></path><path class="line T19" style="stroke: green;" d="M-1.651 4.127L-0.825 4.127"></path><path class="line T19" style="stroke: green;" d="M7.429 8.255L7.429 9.08"></path><path class="line T19" style="stroke: green;" d="M7.429 9.08L7.429 9.906"></path><path class="line T19" style="stroke: green;" d="M7.429 9.906L7.429 10.731"></path><path class="line T19" style="stroke: green;" d="M7.429 10.731L6.604 11.557"></path><path class="line T19" style="stroke: green;" d="M6.604 11.557L5.778 12.382"></path><path class="line T19" style="stroke: green;" d="M5.778 12.382L4.953 13.207"></path><path class="line T19" style="stroke: green;" d="M4.953 13.207L4.127 14.033"></path><path class="line T19" style="stroke: green;" d="M4.127 14.033L3.302 14.033"></path><path class="line T19" style="stroke: green;" d="M3.302 14.033L2.476 14.033"></path><circle class="station" data-id="4225502317" data-label="Duvbo" r="0.1" fill="blue"></circle><circle class="station" data-id="4225502331" data-label="Hjulsta" cx="-3.302" cy="-3.302" r="0.1" fill="blue"></circle><circle class="station" data-id="4225502334" data-label="Huvudsta" cx="2.476" cy="1.651" r="0.1" fill="blue"></circle><circle class="station" data-id="4225502342" data-label="Kungsträdgården" cx="8.255" cy="4.127" r="0.1" fill="blue"></circle><circle class="station" data-id="4225502358" data-label="Rinkeby" cx="-1.651" cy="-1.651" r="0.1" fill="blue"></circle><circle class="station" data-id="4225502359" data-label="Rissne" cx="-0.825" cy="-0.825" r="0.1" fill="blue"></circle><circle class="station" data-id="4225502362" data-label="Rådhuset" cx="5.778" cy="4.127" r="0.1" fill="blue"></circle><circle class="station" data-id="4225502374" data-label="Solna strand" cx="1.651" cy="1.651" r="0.1" fill="blue"></circle><circle class="station" data-id="4225502376" data-label="Stadshagen" cx="4.127" cy="2.476" r="0.1" fill="blue"></circle><circle class="station" data-id="4225502379" data-label="Sundbybergs centrum" cx="0.825" cy="0.825" r="0.1" fill="blue"></circle><circle class="station" data-id="4225502384" data-label="Tensta" cx="-2.476" cy="-2.476" r="0.1" fill="blue"></circle><circle class="station transit" data-id="4225502889" data-label="Västra skogen" cx="3.302" cy="1.651" r="0.13" fill="#333"></circle><circle class="station transit" data-id="5190430369" data-label="Fridhemsplan" cx="4.953" cy="3.302" r="0.13" fill="#333"></circle><circle class="station transit" data-id="5190465484" data-label="T-Centralen" cx="7.429" cy="4.127" r="0.185" fill="#333"></circle><circle class="station" data-id="4225502305" data-label="Akalla" cx="-1.651" cy="-3.302" r="0.1" fill="blue"></circle><circle class="station" data-id="4225502328" data-label="Hallonbergen" cx="0.825" cy="-0.825" r="0.1" fill="blue"></circle><circle class="station" data-id="4225502333" data-label="Husby" cx="-0.825" cy="-2.476" r="0.1" fill="blue"></circle><circle class="station" data-id="4225502343" data-label="Kista" cy="-1.651" r="0.1" fill="blue"></circle><circle class="station" data-id="4225502354" data-label="Näckrosen" cx="1.651" r="0.1" fill="blue"></circle><circle class="station" data-id="4225502373" data-label="Solna centrum" cx="2.476" cy="0.825" r="0.1" fill="blue"></circle><circle class="station" data-id="254879655" data-label="Sätra" cx="-2.064" cy="8.667" r="0.1" fill="red"></circle><circle class="station" data-id="1128662607" data-label="Bredäng" cx="-0.619" cy="7.223" r="0.1" fill="red"></circle><circle class="station" data-id="2392009092" data-label="Skärholmen" cx="-2.889" cy="9.493" r="0.1" fill="red"></circle><circle class="station" data-id="2392108057" data-label="Vårby gård" cx="-4.54" cy="11.144" r="0.1" fill="red"></circle><circle class="station" data-id="2392735103" data-label="Fittja" cx="-6.191" cy="12.795" r="0.1" fill="red"></circle><circle class="station" data-id="4225502306" data-label="Alby" cx="-7.016" cy="12.795" r="0.1" fill="red"></circle><circle class="station" data-id="4225502308" data-label="Aspudden" cx="3.302" cy="5.778" r="0.1" fill="red"></circle><circle class="station" data-id="4225502309" data-label="Axelsberg" cx="1.651" cy="5.778" r="0.1" fill="red"></circle><circle class="station transit" data-id="4225502323" data-label="Gamla stan" cx="7.429" cy="4.953" r="0.185" fill="#333"></circle><circle class="station" data-id="4225502329" data-label="Hallunda" cx="-7.842" cy="12.795" r="0.1" fill="red"></circle><circle class="station" data-id="4225502332" data-label="Hornstull" cx="4.953" cy="5.778" r="0.1" fill="red"></circle><circle class="station" data-id="4225502341" data-label="Karlaplan" cx="9.08" cy="2.476" r="0.1" fill="red"></circle><circle class="station transit" data-id="4225502346" data-label="Liljeholmen" cx="4.127" cy="5.778" r="0.13" fill="#333"></circle><circle class="station" data-id="4225502347" data-label="Mariatorget" cx="6.604" cy="5.778" r="0.1" fill="red"></circle><circle class="station" data-id="4225502348" data-label="Masmo" cx="-5.366" cy="11.969" r="0.1" fill="red"></circle><circle class="station" data-id="4225502351" data-label="Mälarhöjden" cx="0.825" cy="5.778" r="0.1" fill="red"></circle><circle class="station" data-id="4225502353" data-label="Norsborg" cx="-8.667" cy="12.795" r="0.1" fill="red"></circle><circle class="station" data-id="4225502360" data-label="Ropsten" cx="10.731" cy="0.825" r="0.1" fill="red"></circle><circle class="station transit" data-id="4225502371" data-label="Slussen" cx="7.429" cy="5.778" r="0.185" fill="#333"></circle><circle class="station" data-id="4225502890" data-label="Vårberg" cx="-3.715" cy="10.318" r="0.1" fill="red"></circle><circle class="station" data-id="4225502891" data-label="Zinkensdamm" cx="5.778" cy="5.778" r="0.1" fill="red"></circle><circle class="station" data-id="4225503126" data-label="Örnsberg" cx="2.476" cy="5.778" r="0.1" fill="red"></circle><circle class="station transit" data-id="4225503127" data-label="Östermalmstorg" cx="8.255" cy="3.302" r="0.13" fill="#333"></circle><circle class="station" data-id="4937352125" data-label="Gärdet" cx="9.906" cy="1.651" r="0.1" fill="red"></circle><circle class="station" data-id="60746176" data-label="Tekniska högskolan" cx="7.429" cy="1.651" r="0.1" fill="red"></circle><circle class="station" data-id="1332810633" data-label="Hägerstensåsen" cx="1.651" cy="8.255" r="0.1" fill="red"></circle><circle class="station" data-id="4225502312" data-label="Bergshamra" cx="7.429" r="0.1" fill="red"></circle><circle class="station" data-id="4225502316" data-label="Danderyds sjukhus" cx="7.429" cy="-0.825" r="0.1" fill="red"></circle><circle class="station" data-id="4225502322" data-label="Fruängen" cy="9.906" r="0.1" fill="red"></circle><circle class="station" data-id="4225502350" data-label="Midsommarkransen" cx="3.302" cy="6.604" r="0.1" fill="red"></circle><circle class="station" data-id="4225502352" data-label="Mörby centrum" cx="7.429" cy="-1.651" r="0.1" fill="red"></circle><circle class="station" data-id="4225502375" data-label="Stadion" cx="8.255" cy="2.476" r="0.1" fill="red"></circle><circle class="station" data-id="4225502383" data-label="Telefonplan" cx="2.476" cy="7.429" r="0.1" fill="red"></circle><circle class="station" data-id="4225502386" data-label="Universitetet" cx="7.429" cy="0.825" r="0.1" fill="red"></circle><circle class="station" data-id="4225502388" data-label="Västertorp" cx="0.825" cy="9.08" r="0.1" fill="red"></circle><circle class="station" data-id="146868479" data-label="Björkhagen" cx="9.906" cy="9.08" r="0.1" fill="green"></circle><circle class="station" data-id="4225502304" data-label="Abrahamsberg" cx="0.825" cy="4.127" r="0.1" fill="green"></circle><circle class="station" data-id="4225502307" data-label="Alvik" cx="2.476" cy="4.127" r="0.1" fill="green"></circle><circle class="station" data-id="4225502310" data-label="Bagarmossen" cx="10.731" cy="10.731" r="0.1" fill="green"></circle><circle class="station" data-id="4225502315" data-label="Brommaplan" cy="4.127" r="0.1" fill="green"></circle><circle class="station transit" data-id="4225502326" data-label="Gullmarsplan" cx="7.429" cy="8.255" r="0.13" fill="#333"></circle><circle class="station" data-id="4225502330" data-label="Hammarbyhöjden" cx="9.08" cy="9.08" r="0.1" fill="green"></circle><circle class="station" data-id="4225502338" data-label="Hötorget" cx="7.429" cy="3.302" r="0.1" fill="green"></circle><circle class="station" data-id="4225502344" data-label="Kristineberg" cx="3.302" cy="4.127" r="0.1" fill="green"></circle><circle class="station" data-id="4225502345" data-label="Kärrtorp" cx="9.906" cy="9.906" r="0.1" fill="green"></circle><circle class="station" data-id="4225502349" data-label="Medborgarplatsen" cx="7.429" cy="6.604" r="0.1" fill="green"></circle><circle class="station" data-id="4225502357" data-label="Odenplan" cx="6.604" cy="2.476" r="0.1" fill="green"></circle><circle class="station" data-id="4225502363" data-label="Rådmansgatan" cx="7.429" cy="2.476" r="0.1" fill="green"></circle><circle class="station" data-id="4225502366" data-label="Sankt Eriksplan" cx="5.778" cy="2.476" r="0.1" fill="green"></circle><circle class="station" data-id="4225502367" data-label="Skanstull" cx="7.429" cy="7.429" r="0.1" fill="green"></circle><circle class="station" data-id="4225502368" data-label="Skarpnäck" cx="11.557" cy="11.557" r="0.1" fill="green"></circle><circle class="station transit" data-id="4225502370" data-label="Skärmarbrink" cx="8.255" cy="9.08" r="0.13" fill="#333"></circle><circle class="station" data-id="4225502377" data-label="Stora mossen" cx="1.651" cy="4.127" r="0.1" fill="green"></circle><circle class="station" data-id="4225502385" data-label="Thorildsplan" cx="4.127" cy="4.127" r="0.1" fill="green"></circle><circle class="station" data-id="4225503125" data-label="Åkeshov" cx="-0.825" cy="4.127" r="0.1" fill="green"></circle><circle class="station" data-id="4225502319" data-label="Farsta strand" cx="8.255" cy="14.858" r="0.1" fill="green"></circle><circle class="station" data-id="4225502320" data-label="Farsta" cx="8.255" cy="14.033" r="0.1" fill="green"></circle><circle class="station" data-id="4225502325" data-label="Gubbängen" cx="8.255" cy="12.382" r="0.1" fill="green"></circle><circle class="station" data-id="4225502337" data-label="Hökarängen" cx="8.255" cy="13.207" r="0.1" fill="green"></circle><circle class="station" data-id="4225502365" data-label="Sandsborg" cx="8.255" cy="9.906" r="0.1" fill="green"></circle><circle class="station" data-id="4225502369" data-label="Skogskyrkogården" cx="8.255" cy="10.731" r="0.1" fill="green"></circle><circle class="station" data-id="4225502382" data-label="Tallkrogen" cx="8.255" cy="11.557" r="0.1" fill="green"></circle><circle class="station" data-id="60884889" data-label="Hagsätra" cx="2.476" cy="14.033" r="0.1" fill="green"></circle><circle class="station" data-id="2069718820" data-label="Högdalen" cx="4.127" cy="14.033" r="0.1" fill="green"></circle><circle class="station" data-id="4225502311" data-label="Bandhagen" cx="4.953" cy="13.207" r="0.1" fill="green"></circle><circle class="station" data-id="4225502313" data-label="Blackeberg" cx="-3.302" cy="4.127" r="0.1" fill="green"></circle><circle class="station" data-id="4225502318" data-label="Enskede gård" cx="7.429" cy="9.906" r="0.1" fill="green"></circle><circle class="station" data-id="4225502324" data-label="Globen" cx="7.429" cy="9.08" r="0.1" fill="green"></circle><circle class="station" data-id="4225502335" data-label="Hässelby gård" cx="-6.604" cy="2.476" r="0.1" fill="green"></circle><circle class="station" data-id="4225502336" data-label="Hässelby strand" cx="-7.429" cy="2.476" r="0.1" fill="green"></circle><circle class="station" data-id="4225502339" data-label="Islandstorget" cx="-2.476" cy="4.127" r="0.1" fill="green"></circle><circle class="station" data-id="4225502340" data-label="Johannelund" cx="-5.778" cy="2.476" r="0.1" fill="green"></circle><circle class="station" data-id="4225502361" data-label="Råcksta" cx="-4.127" cy="3.302" r="0.1" fill="green"></circle><circle class="station" data-id="4225502364" data-label="Rågsved" cx="3.302" cy="14.033" r="0.1" fill="green"></circle><circle class="station" data-id="4225502372" data-label="Sockenplan" cx="7.429" cy="10.731" r="0.1" fill="green"></circle><circle class="station" data-id="4225502378" data-label="Stureby" cx="5.778" cy="12.382" r="0.1" fill="green"></circle><circle class="station" data-id="4225502380" data-label="Svedmyra" cx="6.604" cy="11.557" r="0.1" fill="green"></circle><circle class="station" data-id="4225502387" data-label="Vällingby" cx="-4.953" cy="2.476" r="0.1" fill="green"></circle><circle class="station" data-id="4225503124" data-label="Ängbyplan" cx="-1.651" cy="4.127" r="0.1" fill="green"></circle></g></svg>