<svg xmlns="http://www.w3.org/2000/svg" width="387.38" height="425.4" viewBox="11218.419 5960.914 19.369 21.27"><style>
	.line {
		stroke: #333;
		stroke-width: .09;
		fill: none;
		stroke-linejoin: round;
		stroke-linecap: round;
	}
	.station {
		stroke: none;
	}
	.transit {
		stroke: #555;
		stroke-width: .05;
		fill: #fff;
	}
</style><g><path class="line T10" style="stroke: blue;" d="M11233.738 5970.921L11233.055 5970.809"></path><path class="line T10" style="stroke: blue;" d="M11233.055 5970.809L11232.008 5971.021"></path><path class="line T10" style="stroke: blue;" d="M11232.008 5971.021L11231.232 5970.714"></path><path class="line T10" style="stroke: blue;" d="M11231.232 5970.714L11230.611 5970.275"></path><path class="line T10" style="stroke: blue;" d="M11230.611 5970.275L11229.863 5969.104"></path><path class="line T10" style="stroke: blue;" d="M11229.863 5969.104L11228.904 5968.86"></path><path class="line T10" style="stroke: blue;" d="M11228.904 5968.86L11228.12 5968.32"></path><path class="line T10" style="stroke: blue;" d="M11228.12 5968.32L11228.08 5967.633"></path><path class="line T10" style="stroke: blue;" d="M11228.08 5967.633L11227.648 5966.862"></path><path class="line T10" style="stroke: blue;" d="M11227.648 5966.862L11226.25 5965.969"></path><path class="line T10" style="stroke: blue;" d="M11226.25 5965.969L11225.578 5964.559"></path><path class="line T10" style="stroke: blue;" d="M11225.578 5964.559L11224.039 5963.88"></path><path class="line T10" style="stroke: blue;" d="M11224.039 5963.88L11223.285 5963.694"></path><path class="line T11" style="stroke: blue;" d="M11229.863 5969.104L11229.563 5967.805"></path><path class="line T11" style="stroke: blue;" d="M11229.563 5967.805L11228.641 5966.92"></path><path class="line T11" style="stroke: blue;" d="M11228.641 5966.92L11227.951 5966.027"></path><path class="line T11" style="stroke: blue;" d="M11227.951 5966.027L11226.394 5962.925"></path><path class="line T11" style="stroke: blue;" d="M11226.394 5962.925L11225.595 5962.338"></path><path class="line T11" style="stroke: blue;" d="M11225.595 5962.338L11224.719 5961.514"></path><path class="line T13" style="stroke: red;" d="M11235.448 5967.999L11235.259 5969.286"></path><path class="line T13" style="stroke: red;" d="M11235.259 5969.286L11234.875 5969.957"></path><path class="line T13" style="stroke: red;" d="M11234.875 5969.957L11234.015 5970.454"></path><path class="line T13" style="stroke: red;" d="M11234.015 5970.454L11233.055 5970.809"></path><path class="line T13" style="stroke: red;" d="M11233.122 5970.783L11233.517 5971.774"></path><path class="line T17" style="stroke: green;" d="M11232.989 5970.836L11233.384 5971.827"></path><path class="line T13" style="stroke: red;" d="M11233.509 5971.76L11233.793 5972.173"></path><path class="line T17" style="stroke: green;" d="M11233.391 5971.841L11233.675 5972.254"></path><path class="line T13" style="stroke: red;" d="M11233.734 5972.213L11233.107 5972.51"></path><path class="line T13" style="stroke: red;" d="M11233.107 5972.51L11232.462 5972.414"></path><path class="line T13" style="stroke: red;" d="M11232.462 5972.414L11231.615 5972.617"></path><path class="line T13" style="stroke: red;" d="M11231.615 5972.617L11230.935 5973.196"></path><path class="line T13" style="stroke: red;" d="M11230.935 5973.196L11229.718 5973.657"></path><path class="line T13" style="stroke: red;" d="M11229.718 5973.657L11228.943 5973.783"></path><path class="line T13" style="stroke: red;" d="M11228.943 5973.783L11228.189 5973.895"></path><path class="line T13" style="stroke: red;" d="M11228.189 5973.895L11227.132 5974.268"></path><path class="line T13" style="stroke: red;" d="M11227.132 5974.268L11225.865 5974.955"></path><path class="line T13" style="stroke: red;" d="M11225.865 5974.955L11225.179 5976.001"></path><path class="line T13" style="stroke: red;" d="M11225.179 5976.001L11224.352 5976.939"></path><path class="line T13" style="stroke: red;" d="M11224.352 5976.939L11223.399 5977.053"></path><path class="line T13" style="stroke: red;" d="M11223.399 5977.053L11223.042 5978.253"></path><path class="line T13" style="stroke: red;" d="M11223.042 5978.253L11222.919 5979.951"></path><path class="line T13" style="stroke: red;" d="M11222.919 5979.951L11221.74 5980.219"></path><path class="line T13" style="stroke: red;" d="M11221.74 5980.219L11220.879 5981.047"></path><path class="line T13" style="stroke: red;" d="M11220.879 5981.047L11219.723 5980.668"></path><path class="line T13" style="stroke: red;" d="M11219.723 5980.668L11219.019 5980.602"></path><path class="line T14" style="stroke: red;" d="M11231.705 5963.408L11232.02 5964.258"></path><path class="line T14" style="stroke: red;" d="M11232.02 5964.258L11231.738 5965.328"></path><path class="line T14" style="stroke: red;" d="M11231.738 5965.328L11232.72 5967.148"></path><path class="line T14" style="stroke: red;" d="M11232.72 5967.148L11233.659 5969.285"></path><path class="line T14" style="stroke: red;" d="M11233.659 5969.285L11234.203 5969.675"></path><path class="line T14" style="stroke: red;" d="M11234.203 5969.675L11234.015 5970.454"></path><path class="line T14" style="stroke: red;" d="M11230.935 5973.196L11230.291 5974.147"></path><path class="line T14" style="stroke: red;" d="M11230.291 5974.147L11229.539 5974.557"></path><path class="line T14" style="stroke: red;" d="M11229.539 5974.557L11228.388 5974.931"></path><path class="line T14" style="stroke: red;" d="M11228.388 5974.931L11227.751 5975.34"></path><path class="line T14" style="stroke: red;" d="M11227.751 5975.34L11227.648 5975.879"></path><path class="line T17" style="stroke: green;" d="M11237.188 5978.102L11237.089 5977.02"></path><path class="line T17" style="stroke: green;" d="M11237.089 5977.02L11236.142 5976.135"></path><path class="line T17" style="stroke: green;" d="M11236.142 5976.135L11236.19 5975.353"></path><path class="line T17" style="stroke: green;" d="M11236.19 5975.353L11235.557 5974.953"></path><path class="line T17" style="stroke: green;" d="M11235.557 5974.953L11234.738 5974.85"></path><path class="line T17" style="stroke: green;" d="M11234.738 5974.85L11234.214 5974.428"></path><path class="line T17" style="stroke: green;" d="M11234.214 5974.428L11233.948 5973.409"></path><path class="line T17" style="stroke: green;" d="M11233.948 5973.409L11233.792 5972.689"></path><path class="line T17" style="stroke: green;" d="M11233.792 5972.689L11233.734 5972.213"></path><path class="line T17" style="stroke: green;" d="M11233.055 5970.809L11233.228 5970.393"></path><path class="line T17" style="stroke: green;" d="M11233.228 5970.393L11232.99 5969.899"></path><path class="line T17" style="stroke: green;" d="M11232.99 5969.899L11232.477 5969.587"></path><path class="line T17" style="stroke: green;" d="M11232.477 5969.587L11231.751 5969.869"></path><path class="line T17" style="stroke: green;" d="M11231.751 5969.869L11231.232 5970.714"></path><path class="line T17" style="stroke: green;" d="M11231.232 5970.714L11230.496 5970.876"></path><path class="line T17" style="stroke: green;" d="M11230.496 5970.876L11229.873 5970.757"></path><path class="line T17" style="stroke: green;" d="M11229.873 5970.757L11228.635 5970.663"></path><path class="line T17" style="stroke: green;" d="M11228.635 5970.663L11227.716 5970.535"></path><path class="line T17" style="stroke: green;" d="M11227.716 5970.535L11227.018 5970.322"></path><path class="line T17" style="stroke: green;" d="M11227.018 5970.322L11226.22 5970.12"></path><path class="line T17" style="stroke: green;" d="M11226.22 5970.12L11225.342 5969.691"></path><path class="line T18" style="stroke: green;" d="M11235.429 5981.584L11234.968 5980.663"></path><path class="line T18" style="stroke: green;" d="M11234.968 5980.663L11234.339 5979.114"></path><path class="line T18" style="stroke: green;" d="M11234.339 5979.114L11234.295 5978.415"></path><path class="line T18" style="stroke: green;" d="M11234.295 5978.415L11234.521 5977.537"></path><path class="line T18" style="stroke: green;" d="M11234.521 5977.537L11235.051 5976.742"></path><path class="line T18" style="stroke: green;" d="M11235.051 5976.742L11234.857 5975.965"></path><path class="line T18" style="stroke: green;" d="M11234.857 5975.965L11234.738 5974.85"></path><path class="line T19" style="stroke: green;" d="M11220.133 5967.553L11220.788 5966.929"></path><path class="line T19" style="stroke: green;" d="M11220.788 5966.929L11221.578 5966.82"></path><path class="line T19" style="stroke: green;" d="M11221.578 5966.82L11222.315 5967.267"></path><path class="line T19" style="stroke: green;" d="M11222.315 5967.267L11222.939 5968.27"></path><path class="line T19" style="stroke: green;" d="M11222.939 5968.27L11222.988 5968.987"></path><path class="line T19" style="stroke: green;" d="M11222.988 5968.987L11223.614 5969.269"></path><path class="line T19" style="stroke: green;" d="M11223.614 5969.269L11224.389 5969.719"></path><path class="line T19" style="stroke: green;" d="M11224.389 5969.719L11225.342 5969.691"></path><path class="line T19" style="stroke: green;" d="M11234.214 5974.428L11233.995 5975.036"></path><path class="line T19" style="stroke: green;" d="M11233.995 5975.036L11233.622 5975.565"></path><path class="line T19" style="stroke: green;" d="M11233.622 5975.565L11233.626 5976.264"></path><path class="line T19" style="stroke: green;" d="M11233.626 5976.264L11233.448 5976.875"></path><path class="line T19" style="stroke: green;" d="M11233.448 5976.875L11232.806 5977.191"></path><path class="line T19" style="stroke: green;" d="M11232.806 5977.191L11232.453 5977.673"></path><path class="line T19" style="stroke: green;" d="M11232.453 5977.673L11232.082 5978.399"></path><path class="line T19" style="stroke: green;" d="M11232.082 5978.399L11231.254 5979.184"></path><path class="line T19" style="stroke: green;" d="M11231.254 5979.184L11230.365 5978.534"></path><circle class="station" data-id="4225502317" data-label="Duvbo" cx="11227.648" cy="5966.862" r="0.1" fill="blue"></circle><circle class="station" data-id="4225502331" data-label="Hjulsta" cx="11223.285" cy="5963.694" r="0.1" fill="blue"></circle><circle class="station" data-id="4225502334" data-label="Huvudsta" cx="11228.904" cy="5968.86" r="0.1" fill="blue"></circle><circle class="station" data-id="4225502342" data-label="Kungsträdgården" cx="11233.738" cy="5970.921" r="0.1" fill="blue"></circle><circle class="station" data-id="4225502358" data-label="Rinkeby" cx="11225.578" cy="5964.559" r="0.1" fill="blue"></circle><circle class="station" data-id="4225502359" data-label="Rissne" cx="11226.25" cy="5965.969" r="0.1" fill="blue"></circle><circle class="station" data-id="4225502362" data-label="Rådhuset" cx="11232.008" cy="5971.021" r="0.1" fill="blue"></circle><circle class="station" data-id="4225502374" data-label="Solna strand" cx="11228.12" cy="5968.32" r="0.1" fill="blue"></circle><circle class="station" data-id="4225502376" data-label="Stadshagen" cx="11230.611" cy="5970.275" r="0.1" fill="blue"></circle><circle class="station" data-id="4225502379" data-label="Sundbybergs centrum" cx="11228.08" cy="5967.633" r="0.1" fill="blue"></circle><circle class="station" data-id="4225502384" data-label="Tensta" cx="11224.039" cy="5963.88" r="0.1" fill="blue"></circle><circle class="station transit" data-id="4225502889" data-label="Västra skogen" cx="11229.863" cy="5969.104" r="0.13" fill="#333"></circle><circle class="station transit" data-id="5190430369" data-label="Fridhemsplan" cx="11231.232" cy="5970.714" r="0.13" fill="#333"></circle><circle class="station transit" data-id="5190465484" data-label="T-Centralen" cx="11233.055" cy="5970.809" r="0.185" fill="#333"></circle><circle class="station" data-id="4225502305" data-label="Akalla" cx="11224.719" cy="5961.514" r="0.1" fill="blue"></circle><circle class="station" data-id="4225502328" data-label="Hallonbergen" cx="11227.951" cy="5966.027" r="0.1" fill="blue"></circle><circle class="station" data-id="4225502333" data-label="Husby" cx="11225.595" cy="5962.338" r="0.1" fill="blue"></circle><circle class="station" data-id="4225502343" data-label="Kista" cx="11226.394" cy="5962.925" r="0.1" fill="blue"></circle><circle class="station" data-id="4225502354" data-label="Näckrosen" cx="11228.641" cy="5966.92" r="0.1" fill="blue"></circle><circle class="station" data-id="4225502373" data-label="Solna centrum" cx="11229.563" cy="5967.805" r="0.1" fill="blue"></circle><circle class="station" data-id="254879655" data-label="Sätra" cx="11225.179" cy="5976.001" r="0.1" fill="red"></circle><circle class="station" data-id="1128662607" data-label="Bredäng" cx="11225.865" cy="5974.955" r="0.1" fill="red"></circle><circle class="station" data-id="2392009092" data-label="Skärholmen" cx="11224.352" cy="5976.939" r="0.1" fill="red"></circle><circle class="station" data-id="2392108057" data-label="Vårby gård" cx="11223.042" cy="5978.253" r="0.1" fill="red"></circle><circle class="station" data-id="2392735103" data-label="Fittja" cx="11221.74" cy="5980.219" r="0.1" fill="red"></circle><circle class="station" data-id="4225502306" data-label="Alby" cx="11220.879" cy="5981.047" r="0.1" fill="red"></circle><circle class="station" data-id="4225502308" data-label="Aspudden" cx="11229.718" cy="5973.657" r="0.1" fill="red"></circle><circle class="station" data-id="4225502309" data-label="Axelsberg" cx="11228.189" cy="5973.895" r="0.1" fill="red"></circle><circle class="station transit" data-id="4225502323" data-label="Gamla stan" cx="11233.45" cy="5971.8" r="0.185" fill="#333"></circle><circle class="station" data-id="4225502329" data-label="Hallunda" cx="11219.723" cy="5980.668" r="0.1" fill="red"></circle><circle class="station" data-id="4225502332" data-label="Hornstull" cx="11231.615" cy="5972.617" r="0.1" fill="red"></circle><circle class="station" data-id="4225502341" data-label="Karlaplan" cx="11234.875" cy="5969.957" r="0.1" fill="red"></circle><circle class="station transit" data-id="4225502346" data-label="Liljeholmen" cx="11230.935" cy="5973.196" r="0.13" fill="#333"></circle><circle class="station" data-id="4225502347" data-label="Mariatorget" cx="11233.107" cy="5972.51" r="0.1" fill="red"></circle><circle class="station" data-id="4225502348" data-label="Masmo" cx="11222.919" cy="5979.951" r="0.1" fill="red"></circle><circle class="station" data-id="4225502351" data-label="Mälarhöjden" cx="11227.132" cy="5974.268" r="0.1" fill="red"></circle><circle class="station" data-id="4225502353" data-label="Norsborg" cx="11219.019" cy="5980.602" r="0.1" fill="red"></circle><circle class="station" data-id="4225502360" data-label="Ropsten" cx="11235.448" cy="5967.999" r="0.1" fill="red"></circle><circle class="station transit" data-id="4225502371" data-label="Slussen" cx="11233.734" cy="5972.213" r="0.185" fill="#333"></circle><circle class="station" data-id="4225502890" data-label="Vårberg" cx="11223.399" cy="5977.053" r="0.1" fill="red"></circle><circle class="station" data-id="4225502891" data-label="Zinkensdamm" cx="11232.462" cy="5972.414" r="0.1" fill="red"></circle><circle class="station" data-id="4225503126" data-label="Örnsberg" cx="11228.943" cy="5973.783" r="0.1" fill="red"></circle><circle class="station transit" data-id="4225503127" data-label="Östermalmstorg" cx="11234.015" cy="5970.454" r="0.13" fill="#333"></circle><circle class="station" data-id="4937352125" data-label="Gärdet" cx="11235.259" cy="5969.286" r="0.1" fill="red"></circle><circle class="station" data-id="60746176" data-label="Tekniska högskolan" cx="11233.659" cy="5969.285" r="0.1" fill="red"></circle><circle class="station" data-id="1332810633" data-label="Hägerstensåsen" cx="11228.388" cy="5974.931" r="0.1" fill="red"></circle><circle class="station" data-id="4225502312" data-label="Bergshamra" cx="11231.738" cy="5965.328" r="0.1" fill="red"></circle><circle class="station" data-id="4225502316" data-label="Danderyds sjukhus" cx="11232.02" cy="5964.258" r="0.1" fill="red"></circle><circle class="station" data-id="4225502322" data-label="Fruängen" cx="11227.648" cy="5975.879" r="0.1" fill="red"></circle><circle class="station" data-id="4225502350" data-label="Midsommarkransen" cx="11230.291" cy="5974.147" r="0.1" fill="red"></circle><circle class="station" data-id="4225502352" data-label="Mörby centrum" cx="11231.705" cy="5963.408" r="0.1" fill="red"></circle><circle class="station" data-id="4225502375" data-label="Stadion" cx="11234.203" cy="5969.675" r="0.1" fill="red"></circle><circle class="station" data-id="4225502383" data-label="Telefonplan" cx="11229.539" cy="5974.557" r="0.1" fill="red"></circle><circle class="station" data-id="4225502386" data-label="Universitetet" cx="11232.72" cy="5967.148" r="0.1" fill="red"></circle><circle class="station" data-id="4225502388" data-label="Västertorp" cx="11227.751" cy="5975.34" r="0.1" fill="red"></circle><circle class="station" data-id="146868479" data-label="Björkhagen" cx="11236.19" cy="5975.353" r="0.1" fill="green"></circle><circle class="station" data-id="4225502304" data-label="Abrahamsberg" cx="11227.018" cy="5970.322" r="0.1" fill="green"></circle><circle class="station" data-id="4225502307" data-label="Alvik" cx="11228.635" cy="5970.663" r="0.1" fill="green"></circle><circle class="station" data-id="4225502310" data-label="Bagarmossen" cx="11237.089" cy="5977.02" r="0.1" fill="green"></circle><circle class="station" data-id="4225502315" data-label="Brommaplan" cx="11226.22" cy="5970.12" r="0.1" fill="green"></circle><circle class="station transit" data-id="4225502326" data-label="Gullmarsplan" cx="11234.214" cy="5974.428" r="0.13" fill="#333"></circle><circle class="station" data-id="4225502330" data-label="Hammarbyhöjden" cx="11235.557" cy="5974.953" r="0.1" fill="green"></circle><circle class="station" data-id="4225502338" data-label="Hötorget" cx="11233.228" cy="5970.393" r="0.1" fill="green"></circle><circle class="station" data-id="4225502344" data-label="Kristineberg" cx="11229.873" cy="5970.757" r="0.1" fill="green"></circle><circle class="station" data-id="4225502345" data-label="Kärrtorp" cx="11236.142" cy="5976.135" r="0.1" fill="green"></circle><circle class="station" data-id="4225502349" data-label="Medborgarplatsen" cx="11233.792" cy="5972.689" r="0.1" fill="green"></circle><circle class="station" data-id="4225502357" data-label="Odenplan" cx="11232.477" cy="5969.587" r="0.1" fill="green"></circle><circle class="station" data-id="4225502363" data-label="Rådmansgatan" cx="11232.99" cy="5969.899" r="0.1" fill="green"></circle><circle class="station" data-id="4225502366" data-label="Sankt Eriksplan" cx="11231.751" cy="5969.869" r="0.1" fill="green"></circle><circle class="station" data-id="4225502367" data-label="Skanstull" cx="11233.948" cy="5973.409" r="0.1" fill="green"></circle><circle class="station" data-id="4225502368" data-label="Skarpnäck" cx="11237.188" cy="5978.102" r="0.1" fill="green"></circle><circle class="station transit" data-id="4225502370" data-label="Skärmarbrink" cx="11234.738" cy="5974.85" r="0.13" fill="#333"></circle><circle class="station" data-id="4225502377" data-label="Stora mossen" cx="11227.716" cy="5970.535" r="0.1" fill="green"></circle><circle class="station" data-id="4225502385" data-label="Thorildsplan" cx="11230.496" cy="5970.876" r="0.1" fill="green"></circle><circle class="station" data-id="4225503125" data-label="Åkeshov" cx="11225.342" cy="5969.691" r="0.1" fill="green"></circle><circle class="station" data-id="4225502319" data-label="Farsta strand" cx="11235.429" cy="5981.584" r="0.1" fill="green"></circle><circle class="station" data-id="4225502320" data-label="Farsta" cx="11234.968" cy="5980.663" r="0.1" fill="green"></circle><circle class="station" data-id="4225502325" data-label="Gubbängen" cx="11234.295" cy="5978.415" r="0.1" fill="green"></circle><circle class="station" data-id="4225502337" data-label="Hökarängen" cx="11234.339" cy="5979.114" r="0.1" fill="green"></circle><circle class="station" data-id="4225502365" data-label="Sandsborg" cx="11234.857" cy="5975.965" r="0.1" fill="green"></circle><circle class="station" data-id="4225502369" data-label="Skogskyrkogården" cx="11235.051" cy="5976.742" r="0.1" fill="green"></circle><circle class="station" data-id="4225502382" data-label="Tallkrogen" cx="11234.521" cy="5977.537" r="0.1" fill="green"></circle><circle class="station" data-id="60884889" data-label="Hagsätra" cx="11230.365" cy="5978.534" r="0.1" fill="green"></circle><circle class="station" data-id="2069718820" data-label="Högdalen" cx="11232.082" cy="5978.399" r="0.1" fill="green"></circle><circle class="station" data-id="4225502311" data-label="Bandhagen" cx="11232.453" cy="5977.673" r="0.1" fill="green"></circle><circle class="station" data-id="4225502313" data-label="Blackeberg" cx="11222.988" cy="5968.987" r="0.1" fill="green"></circle><circle class="station" data-id="4225502318" data-label="Enskede gård" cx="11233.622" cy="5975.565" r="0.1" fill="green"></circle><circle class="station" data-id="4225502324" data-label="Globen" cx="11233.995" cy="5975.036" r="0.1" fill="green"></circle><circle class="station" data-id="4225502335" data-label="Hässelby gård" cx="11220.788" cy="5966.929" r="0.1" fill="green"></circle><circle class="station" data-id="4225502336" data-label="Hässelby strand" cx="11220.133" cy="5967.553" r="0.1" fill="green"></circle><circle class="station" data-id="4225502339" data-label="Islandstorget" cx="11223.614" cy="5969.269" r="0.1" fill="green"></circle><circle class="station" data-id="4225502340" data-label="Johannelund" cx="11221.578" cy="5966.82" r="0.1" fill="green"></circle><circle class="station" data-id="4225502361" data-label="Råcksta" cx="11222.939" cy="5968.27" r="0.1" fill="green"></circle><circle class="station" data-id="4225502364" data-label="Rågsved" cx="11231.254" cy="5979.184" r="0.1" fill="green"></circle><circle class="station" data-id="4225502372" data-label="Sockenplan" cx="11233.626" cy="5976.264" r="0.1" fill="green"></circle><circle class="station" data-id="4225502378" data-label="Stureby" cx="11232.806" cy="5977.191" r="0.1" fill="green"></circle><circle class="station" data-id="4225502380" data-label="Svedmyra" cx="11233.448" cy="5976.875" r="0.1" fill="green"></circle><circle class="station" data-id="4225502387" data-label="Vällingby" cx="11222.315" cy="5967.267" r="0.1" fill="green"></circle><circle class="station" data-id="4225503124" data-label="Ängbyplan" cx="11224.389" cy="5969.719" r="0.1" fill="green"></circle></g></svg>