<svg xmlns="http://www.w3.org/2000/svg" width="483.74" height="449.7" viewBox="-15.925 -6.56 24.187 22.485"><style>
	.line {
		stroke: #333;
		stroke-width: .09;
		fill: none;
		stroke-linejoin: round;
		stroke-linecap: round;
	}
	.station {
		stroke: none;
	}
	.transit {
		stroke: #555;
		stroke-width: .05;
		fill: #fff;
	}
</style><g><path class="line U1" style="stroke: #E20613;" d="M-4.257 12.771L-5.108 11.919"></path><path class="line U1" style="stroke: #E20613;" d="M-5.108 11.919L-5.108 11.068"></path><path class="line U1" style="stroke: #E20613;" d="M-5.108 11.068L-5.108 10.217"></path><path class="line U1" style="stroke: #E20613;" d="M-5.108 10.217L-5.108 9.365"></path><path class="line U1" style="stroke: #E20613;" d="M-5.108 9.365L-5.108 8.514"></path><path class="line U1" style="stroke: #E20613;" d="M-5.108 8.514L-5.108 7.662"></path><path class="line U1" style="stroke: #E20613;" d="M-5.108 7.662L-5.108 6.811"></path><path class="line U1" style="stroke: #E20613;" d="M-5.108 6.811L-5.108 5.96"></path><path class="line U1" style="stroke: #E20613;" d="M-5.108 5.96L-5.108 5.108"></path><path class="line U1" style="stroke: #E20613;" d="M-5.108 5.108L-5.108 4.257"></path><path class="line U1" style="stroke: #E20613;" d="M-5.108 4.257L-4.257 3.406"></path><path class="line U1" style="stroke: #E20613;" d="M-4.257 3.406L-3.406 3.406"></path><path class="line U1" style="stroke: #E20613;" d="M-3.406 3.406L-2.554 2.554"></path><path class="line U1" style="stroke: #E20613;" d="M-2.554 2.554L-1.703 1.703"></path><path class="line U1" style="stroke: #E20613;" d="M-1.703 1.703L-0.851 0.851"></path><path class="line U1" style="stroke: #E20613;" d="M-0.851 0.851L0 0"></path><path class="line U1" style="stroke: #E20613;" d="M0 0L0.851 -0.851"></path><path class="line U1" style="stroke: #E20613;" d="M0.851 -0.851L1.703 -1.703"></path><path class="line U1" style="stroke: #E20613;" d="M1.703 -1.703L2.554 -2.554"></path><path class="line U1" style="stroke: #E20613;" d="M2.554 -2.554L3.406 -3.406"></path><path class="line U1" style="stroke: #E20613;" d="M3.406 -3.406L3.406 -4.257"></path><path class="line U1" style="stroke: #E20613;" d="M3.406 -4.257L3.406 -5.108"></path><path class="line U1" style="stroke: #E20613;" d="M3.406 -5.108L3.406 -5.96"></path><path class="line U2" style="stroke: #A762A4;" d="M7.662 1.703L6.811 0.851"></path><path class="line U2" style="stroke: #A762A4;" d="M6.811 0.851L5.96 0.851"></path><path class="line U2" style="stroke: #A762A4;" d="M5.96 0.851L5.108 1.703"></path><path class="line U2" style="stroke: #A762A4;" d="M5.108 1.703L4.257 1.703"></path><path class="line U2" style="stroke: #A762A4;" d="M4.257 1.703L3.406 1.703"></path><path class="line U2" style="stroke: #A762A4;" d="M3.406 1.703L2.554 1.703"></path><path class="line U2" style="stroke: #A762A4;" d="M2.554 1.703L1.703 2.554"></path><path class="line U2" style="stroke: #A762A4;" d="M1.703 2.554L0.851 2.554"></path><path class="line U2" style="stroke: #A762A4;" d="M0.851 2.554L0 2.554"></path><path class="line U2" style="stroke: #A762A4;" d="M0 2.554L-0.851 2.554"></path><path class="line U2" style="stroke: #A762A4;" d="M-0.851 2.554L-1.703 2.554"></path><path class="line U2" style="stroke: #A762A4;" d="M-1.703 2.554L-2.554 2.554"></path><path class="line U2" style="stroke: #A762A4;" d="M-2.554 2.554L-4.257 2.554"></path><path class="line U2" style="stroke: #A762A4;" d="M-4.257 2.554L-5.108 2.554"></path><path class="line U2" style="stroke: #A762A4;" d="M-5.108 2.554L-5.96 2.554"></path><path class="line U2" style="stroke: #A762A4;" d="M-5.96 2.554L-6.811 3.406"></path><path class="line U2" style="stroke: #A762A4;" d="M-6.811 3.406L-6.811 4.257"></path><path class="line U2" style="stroke: #A762A4;" d="M-6.811 4.257L-5.96 5.108"></path><path class="line U2" style="stroke: #A762A4;" d="M-5.96 5.108L-5.108 5.108"></path><path class="line U3" style="stroke: #EF7C00;" d="M-11.919 3.406L-11.919 4.257"></path><path class="line U3" style="stroke: #EF7C00;" d="M-11.919 4.257L-11.919 5.108"></path><path class="line U3" style="stroke: #EF7C00;" d="M-11.919 5.108L-11.068 5.96"></path><path class="line U3" style="stroke: #EF7C00;" d="M-11.068 5.96L-10.217 6.811"></path><path class="line U3" style="stroke: #EF7C00;" d="M-10.217 6.811L-9.365 6.811"></path><path class="line U3" style="stroke: #EF7C00;" d="M-9.365 6.811L-8.514 5.96"></path><path class="line U3" style="stroke: #EF7C00;" d="M-8.514 5.96L-7.662 5.108"></path><path class="line U3" style="stroke: #EF7C00;" d="M-7.662 5.108L-6.811 4.257"></path><path class="line U3" style="stroke: #EF7C00;" d="M-6.811 4.257L-5.96 4.257"></path><path class="line U3" style="stroke: #EF7C00;" d="M-5.96 4.257L-5.108 4.257"></path><path class="line U3" style="stroke: #EF7C00;" d="M-5.108 4.257L-4.257 4.257"></path><path class="line U3" style="stroke: #EF7C00;" d="M-4.257 4.257L-3.406 4.257"></path><path class="line U3" style="stroke: #EF7C00;" d="M-3.406 4.257L-2.554 4.257"></path><path class="line U3" style="stroke: #EF7C00;" d="M-2.554 4.257L-1.703 5.108"></path><path class="line U3" style="stroke: #EF7C00;" d="M-1.703 5.108L-0.851 5.96"></path><path class="line U3" style="stroke: #EF7C00;" d="M-0.851 5.96L0 6.811"></path><path class="line U3" style="stroke: #EF7C00;" d="M0 6.811L0 7.662"></path><path class="line U3" style="stroke: #EF7C00;" d="M0 7.662L0 8.514"></path><path class="line U3" style="stroke: #EF7C00;" d="M0 8.514L0 9.365"></path><path class="line U3" style="stroke: #EF7C00;" d="M0 9.365L0 10.217"></path><path class="line U4" style="stroke: #029540;" d="M-15.325 8.514L-14.473 8.514"></path><path class="line U4" style="stroke: #029540;" d="M-14.473 8.514L-13.622 8.514"></path><path class="line U4" style="stroke: #029540;" d="M-13.622 8.514L-12.771 8.514"></path><path class="line U4" style="stroke: #029540;" d="M-12.771 8.514L-11.919 8.514"></path><path class="line U4" style="stroke: #029540;" d="M-11.919 8.514L-11.068 8.514"></path><path class="line U4" style="stroke: #029540;" d="M-11.068 8.514L-10.217 8.514"></path><path class="line U4" style="stroke: #029540;" d="M-10.217 8.514L-9.365 8.514"></path><path class="line U4" style="stroke: #029540;" d="M-9.365 8.514L-8.514 8.514"></path><path class="line U4" style="stroke: #029540;" d="M-8.514 8.514L-7.379 7.379"></path><path class="line U4" style="stroke: #029540;" d="M-7.379 7.379L-6.243 6.243"></path><path class="line U4" style="stroke: #029540;" d="M-6.243 6.243L-5.108 5.108"></path><path class="line U4" style="stroke: #029540;" d="M-5.108 5.108L-4.257 5.108"></path><path class="line U4" style="stroke: #029540;" d="M-4.257 5.108L-3.406 4.257"></path><path class="line U4" style="stroke: #029540;" d="M-3.406 4.257L-4.257 3.406"></path><path class="line U4" style="stroke: #029540;" d="M-4.257 3.406L-5.108 2.554"></path><path class="line U4" style="stroke: #029540;" d="M-5.108 2.554L-5.96 1.703"></path><path class="line U4" style="stroke: #029540;" d="M-5.96 1.703L-6.811 0.851"></path><path class="line U4" style="stroke: #029540;" d="M-6.811 0.851L-7.662 0"></path><path class="line U4" style="stroke: #029540;" d="M-7.662 0L-7.662 -0.851"></path><path class="line U6" style="stroke: #9C6830;" d="M-9.365 15.325L-9.365 14.473"></path><path class="line U6" style="stroke: #9C6830;" d="M-9.365 14.473L-9.365 13.622"></path><path class="line U6" style="stroke: #9C6830;" d="M-9.365 13.622L-9.365 12.771"></path><path class="line U6" style="stroke: #9C6830;" d="M-9.365 12.771L-9.365 11.919"></path><path class="line U6" style="stroke: #9C6830;" d="M-9.365 11.919L-9.365 11.068"></path><path class="line U6" style="stroke: #9C6830;" d="M-9.365 11.068L-9.365 10.217"></path><path class="line U6" style="stroke: #9C6830;" d="M-9.365 10.217L-9.365 9.365"></path><path class="line U6" style="stroke: #9C6830;" d="M-9.365 9.365L-9.365 8.514"></path><path class="line U6" style="stroke: #9C6830;" d="M-9.365 8.514L-9.365 7.662"></path><path class="line U6" style="stroke: #9C6830;" d="M-9.365 7.662L-9.365 6.811"></path><path class="line U6" style="stroke: #9C6830;" d="M-9.365 6.811L-9.365 5.96"></path><path class="line U6" style="stroke: #9C6830;" d="M-9.365 5.96L-9.365 5.108"></path><path class="line U6" style="stroke: #9C6830;" d="M-9.365 5.108L-9.365 4.257"></path><path class="line U6" style="stroke: #9C6830;" d="M-9.365 4.257L-9.365 3.406"></path><path class="line U6" style="stroke: #9C6830;" d="M-9.365 3.406L-9.365 2.554"></path><path class="line U6" style="stroke: #9C6830;" d="M-9.365 2.554L-9.365 1.703"></path><path class="line U6" style="stroke: #9C6830;" d="M-9.365 1.703L-8.514 0.851"></path><path class="line U6" style="stroke: #9C6830;" d="M-8.514 0.851L-7.662 0"></path><path class="line U6" style="stroke: #9C6830;" d="M-7.662 0L-6.811 0"></path><path class="line U6" style="stroke: #9C6830;" d="M-6.811 0L-5.96 -0.851"></path><path class="line U6" style="stroke: #9C6830;" d="M-5.96 -0.851L-5.108 -1.703"></path><path class="line U6" style="stroke: #9C6830;" d="M-5.108 -1.703L-4.257 -2.554"></path><path class="line U6" style="stroke: #9C6830;" d="M-4.257 -2.554L-3.406 -3.406"></path><circle class="station" data-id="57592307" data-label="Kaisermühlen VIC" r="0.1" fill="#E20613"></circle><circle class="station" data-id="57592312" data-label="Alte Donau" cx="0.851" cy="-0.851" r="0.1" fill="#E20613"></circle><circle class="station" data-id="57592315" data-label="Kagran" cx="1.703" cy="-1.703" r="0.1" fill="#E20613"></circle><circle class="station" data-id="59838615" data-label="Taubstummengasse" cx="-5.108" cy="5.96" r="0.1" fill="#E20613"></circle><circle class="station" data-id="60825796" data-label="Keplerplatz" cx="-5.108" cy="7.662" r="0.1" fill="#E20613"></circle><circle class="station" data-id="61077005" data-label="Kagraner Platz" cx="2.554" cy="-2.554" r="0.1" fill="#E20613"></circle><circle class="station" data-id="1010572279" data-label="Südtiroler Platz-Hauptbahnhof" cx="-5.108" cy="6.811" r="0.1" fill="#E20613"></circle><circle class="station transit" data-id="1399692389" data-label="Schwedenplatz" cx="-4.257" cy="3.406" r="0.13" fill="#333"></circle><circle class="station" data-id="1862342812" data-label="Reumannplatz" cx="-5.108" cy="8.514" r="0.1" fill="#E20613"></circle><circle class="station transit" data-id="1993538250" data-label="Stephansplatz" cx="-5.108" cy="4.257" r="0.13" fill="#333"></circle><circle class="station transit" data-id="2525543991" data-label="Karlsplatz" cx="-5.108" cy="5.108" r="0.13" fill="#333"></circle><circle class="station" data-id="2781800961" data-label="Aderklaaer Straße" cx="3.406" cy="-4.257" r="0.1" fill="#E20613"></circle><circle class="station" data-id="2781801317" data-label="Rennbahnweg" cx="3.406" cy="-3.406" r="0.1" fill="#E20613"></circle><circle class="station transit" data-id="3725915785" data-label="Praterstern" cx="-2.554" cy="2.554" r="0.13" fill="#333"></circle><circle class="station" data-id="4140441195" data-label="Leopoldau" cx="3.406" cy="-5.96" r="0.1" fill="#E20613"></circle><circle class="station" data-id="4140676594" data-label="Großfeldsiedlung" cx="3.406" cy="-5.108" r="0.1" fill="#E20613"></circle><circle class="station" data-id="4169472789" data-label="Donauinsel" cx="-0.851" cy="0.851" r="0.1" fill="#E20613"></circle><circle class="station" data-id="4169762802" data-label="Vorgartenstraße" cx="-1.703" cy="1.703" r="0.1" fill="#E20613"></circle><circle class="station" data-id="4169992592" data-label="Nestroyplatz" cx="-3.406" cy="3.406" r="0.1" fill="#E20613"></circle><circle class="station" data-id="4725643935" data-label="Oberlaa" cx="-4.257" cy="12.771" r="0.1" fill="#E20613"></circle><circle class="station" data-id="5016149162" data-label="Neulaa" cx="-5.108" cy="11.919" r="0.1" fill="#E20613"></circle><circle class="station" data-id="5018582556" data-label="Alaudagasse" cx="-5.108" cy="11.068" r="0.1" fill="#E20613"></circle><circle class="station" data-id="5057951093" data-label="Troststraße" cx="-5.108" cy="9.365" r="0.1" fill="#E20613"></circle><circle class="station" data-id="5057951095" data-label="Altes Landgut" cx="-5.108" cy="10.217" r="0.1" fill="#E20613"></circle><circle class="station transit" data-id="60093481" data-label="Volkstheater" cx="-6.811" cy="4.257" r="0.13" fill="#333"></circle><circle class="station" data-id="60290336" data-label="Schottentor" cx="-5.96" cy="2.554" r="0.1" fill="#A762A4"></circle><circle class="station" data-id="62671830" data-label="Stadion" cy="2.554" r="0.1" fill="#A762A4"></circle><circle class="station" data-id="2006335300" data-label="Rathaus" cx="-6.811" cy="3.406" r="0.1" fill="#A762A4"></circle><circle class="station" data-id="2249118767" data-label="Hardeggasse" cx="3.406" cy="1.703" r="0.1" fill="#A762A4"></circle><circle class="station" data-id="2249118893" data-label="Stadlau" cx="2.554" cy="1.703" r="0.1" fill="#A762A4"></circle><circle class="station" data-id="2249118907" data-label="Seestadt" cx="7.662" cy="1.703" r="0.1" fill="#A762A4"></circle><circle class="station" data-id="2249118991" data-label="Donauspital" cx="4.257" cy="1.703" r="0.1" fill="#A762A4"></circle><circle class="station" data-id="2249119081" data-label="Aspern Nord" cx="6.811" cy="0.851" r="0.1" fill="#A762A4"></circle><circle class="station" data-id="2298795030" data-label="Aspernstraße" cx="5.108" cy="1.703" r="0.1" fill="#A762A4"></circle><circle class="station" data-id="2298795031" data-label="Donaustadtbrücke" cx="1.703" cy="2.554" r="0.1" fill="#A762A4"></circle><circle class="station" data-id="2298795032" data-label="Krieau" cx="-0.851" cy="2.554" r="0.1" fill="#A762A4"></circle><circle class="station" data-id="2437875978" data-label="Hausfeldstraße" cx="5.96" cy="0.851" r="0.1" fill="#A762A4"></circle><circle class="station" data-id="2482900070" data-label="Donaumarina" cx="0.851" cy="2.554" r="0.1" fill="#A762A4"></circle><circle class="station transit" data-id="2525338266" data-label="Schottenring" cx="-5.108" cy="2.554" r="0.13" fill="#333"></circle><circle class="station" data-id="2525408827" data-label="Messe-Prater" cx="-1.703" cy="2.554" r="0.1" fill="#A762A4"></circle><circle class="station" data-id="3378037094" data-label="Taborstraße" cx="-4.257" cy="2.554" r="0.1" fill="#A762A4"></circle><circle class="station" data-id="4123328089" data-label="Museumsquartier" cx="-5.96" cy="5.108" r="0.1" fill="#A762A4"></circle><circle class="station" data-id="2323609149" data-label="Erdberg" cy="6.811" r="0.1" fill="#EF7C00"></circle><circle class="station" data-id="2440606392" data-label="Ottakring" cx="-11.919" cy="3.406" r="0.1" fill="#EF7C00"></circle><circle class="station" data-id="2440652906" data-label="Kendlerstraße" cx="-11.919" cy="4.257" r="0.1" fill="#EF7C00"></circle><circle class="station" data-id="2440681196" data-label="Schweglerstraße" cx="-10.217" cy="6.811" r="0.1" fill="#EF7C00"></circle><circle class="station" data-id="2440684754" data-label="Johnstraße" cx="-11.068" cy="5.96" r="0.1" fill="#EF7C00"></circle><circle class="station transit" data-id="2440715710" data-label="Westbahnhof" cx="-9.365" cy="6.811" r="0.13" fill="#333"></circle><circle class="station" data-id="2769169147" data-label="Herrengasse" cx="-5.96" cy="4.257" r="0.1" fill="#EF7C00"></circle><circle class="station" data-id="2784233504" data-label="Stubentor" cx="-4.257" cy="4.257" r="0.1" fill="#EF7C00"></circle><circle class="station" data-id="2962398854" data-label="Hütteldorfer Straße" cx="-11.919" cy="5.108" r="0.1" fill="#EF7C00"></circle><circle class="station" data-id="4348361649" data-label="Enkplatz" cy="9.365" r="0.1" fill="#EF7C00"></circle><circle class="station" data-id="4348361652" data-label="Gasometer" cy="7.662" r="0.1" fill="#EF7C00"></circle><circle class="station" data-id="4348361818" data-label="Simmering" cy="10.217" r="0.1" fill="#EF7C00"></circle><circle class="station" data-id="4348361821" data-label="Zippererstraße" cy="8.514" r="0.1" fill="#EF7C00"></circle><circle class="station" data-id="4348401657" data-label="Kardinal-Nagl-Platz" cx="-1.703" cy="5.108" r="0.1" fill="#EF7C00"></circle><circle class="station transit" data-id="4348401659" data-label="Landstraße" cx="-3.406" cy="4.257" r="0.13" fill="#333"></circle><circle class="station" data-id="4348402507" data-label="Rochusgasse" cx="-2.554" cy="4.257" r="0.1" fill="#EF7C00"></circle><circle class="station" data-id="4348402509" data-label="Schlachthausgasse" cx="-0.851" cy="5.96" r="0.1" fill="#EF7C00"></circle><circle class="station" data-id="4348437214" data-label="Neubaugasse" cx="-7.662" cy="5.108" r="0.1" fill="#EF7C00"></circle><circle class="station" data-id="4348437230" data-label="Zieglergasse" cx="-8.514" cy="5.96" r="0.1" fill="#EF7C00"></circle><circle class="station" data-id="60291628" data-label="Friedensbrücke" cx="-6.811" cy="0.851" r="0.1" fill="#029540"></circle><circle class="station transit" data-id="60291638" data-label="Spittelau" cx="-7.662" r="0.13" fill="#333"></circle><circle class="station" data-id="105411815" data-label="Heiligenstadt" cx="-7.662" cy="-0.851" r="0.1" fill="#029540"></circle><circle class="station" data-id="1243189782" data-label="Braunschweiggasse" cx="-12.771" cy="8.514" r="0.1" fill="#029540"></circle><circle class="station" data-id="1243189796" data-label="Schönbrunn" cx="-11.068" cy="8.514" r="0.1" fill="#029540"></circle><circle class="station" data-id="1243190081" data-label="Hietzing" cx="-11.919" cy="8.514" r="0.1" fill="#029540"></circle><circle class="station" data-id="1243190167" data-label="Unter St. Veit" cx="-13.622" cy="8.514" r="0.1" fill="#029540"></circle><circle class="station" data-id="1243190224" data-label="Meidling Hauptstraße" cx="-10.217" cy="8.514" r="0.1" fill="#029540"></circle><circle class="station" data-id="1243190451" data-label="Ober St. Veit" cx="-14.473" cy="8.514" r="0.1" fill="#029540"></circle><circle class="station" data-id="1740822565" data-label="Hütteldorf" cx="-15.325" cy="8.514" r="0.1" fill="#029540"></circle><circle class="station" data-id="2214978287" data-label="Margaretengürtel" cx="-8.514" cy="8.514" r="0.1" fill="#029540"></circle><circle class="station transit" data-id="2241469646" data-label="Längenfeldgasse" cx="-9.365" cy="8.514" r="0.13" fill="#333"></circle><circle class="station" data-id="2241738995" data-label="Kettenbrückengasse" cx="-6.243" cy="6.243" r="0.1" fill="#029540"></circle><circle class="station" data-id="2241739000" data-label="Pilgramgasse" cx="-7.379" cy="7.379" r="0.1" fill="#029540"></circle><circle class="station" data-id="2525501991" data-label="Roßauer Lände" cx="-5.96" cy="1.703" r="0.1" fill="#029540"></circle><circle class="station" data-id="3966904573" data-label="Stadtpark" cx="-4.257" cy="5.108" r="0.1" fill="#029540"></circle><circle class="station" data-id="60091400" data-label="Nußdorfer Straße" cx="-8.514" cy="0.851" r="0.1" fill="#9C6830"></circle><circle class="station" data-id="60091638" data-label="Thaliastraße" cx="-9.365" cy="5.108" r="0.1" fill="#9C6830"></circle><circle class="station" data-id="60091642" data-label="Josefstädter Straße" cx="-9.365" cy="4.257" r="0.1" fill="#9C6830"></circle><circle class="station" data-id="60091648" data-label="Alser Straße" cx="-9.365" cy="3.406" r="0.1" fill="#9C6830"></circle><circle class="station" data-id="60091653" data-label="Michelbeuern-AKH" cx="-9.365" cy="2.554" r="0.1" fill="#9C6830"></circle><circle class="station" data-id="60091661" data-label="Währinger Straße-Volksoper" cx="-9.365" cy="1.703" r="0.1" fill="#9C6830"></circle><circle class="station" data-id="60091791" data-label="Burggasse-Stadthalle" cx="-9.365" cy="5.96" r="0.1" fill="#9C6830"></circle><circle class="station" data-id="60092321" data-label="Gumpendorfer Straße" cx="-9.365" cy="7.662" r="0.1" fill="#9C6830"></circle><circle class="station" data-id="61688590" data-label="Alterlaa" cx="-9.365" cy="12.771" r="0.1" fill="#9C6830"></circle><circle class="station" data-id="61688597" data-label="Erlaaer Straße" cx="-9.365" cy="13.622" r="0.1" fill="#9C6830"></circle><circle class="station" data-id="61688600" data-label="Perfektastraße" cx="-9.365" cy="14.473" r="0.1" fill="#9C6830"></circle><circle class="station" data-id="61688602" data-label="Siebenhirten" cx="-9.365" cy="15.325" r="0.1" fill="#9C6830"></circle><circle class="station" data-id="1378094193" data-label="Am Schöpfwerk" cx="-9.365" cy="11.919" r="0.1" fill="#9C6830"></circle><circle class="station" data-id="1378094234" data-label="Tscherttegasse" cx="-9.365" cy="11.068" r="0.1" fill="#9C6830"></circle><circle class="station" data-id="2211799727" data-label="Dresdner Straße" cx="-5.96" cy="-0.851" r="0.1" fill="#9C6830"></circle><circle class="station" data-id="2211799763" data-label="Jägerstraße" cx="-6.811" r="0.1" fill="#9C6830"></circle><circle class="station" data-id="2211799784" data-label="Floridsdorf" cx="-3.406" cy="-3.406" r="0.1" fill="#9C6830"></circle><circle class="station" data-id="2211815196" data-label="Handelskai" cx="-5.108" cy="-1.703" r="0.1" fill="#9C6830"></circle><circle class="station" data-id="2211815211" data-label="Neue Donau" cx="-4.257" cy="-2.554" r="0.1" fill="#9C6830"></circle><circle class="station" data-id="2211901245" data-label="Niederhofstraße" cx="-9.365" cy="9.365" r="0.1" fill="#9C6830"></circle><circle class="station" data-id="2211901255" data-label="Bahnhof Meidling" cx="-9.365" cy="10.217" r="0.1" fill="#9C6830"></circle></g></svg>