<svg xmlns="http://www.w3.org/2000/svg" width="501.44" height="449.24" viewBox="18916.097 11964.278 25.072 22.462"><style>
	.line {
		stroke: #333;
		stroke-width: .09;
		fill: none;
		stroke-linejoin: round;
		stroke-linecap: round;
	}
	.station {
		stroke: none;
	}
	.transit {
		stroke: #555;
		stroke-width: .05;
		fill: #fff;
	}
</style><g><path class="line U1" style="stroke: #E20613;" d="M18930.102 11984.427L18928.727 11983.928"></path><path class="line U1" style="stroke: #E20613;" d="M18928.727 11983.928L18928.42 11982.788"></path><path class="line U1" style="stroke: #E20613;" d="M18928.42 11982.788L18928.514 11981.539"></path><path class="line U1" style="stroke: #E20613;" d="M18928.514 11981.539L18928.228 11980.572"></path><path class="line U1" style="stroke: #E20613;" d="M18928.228 11980.572L18927.988 11979.718"></path><path class="line U1" style="stroke: #E20613;" d="M18927.988 11979.718L18927.816 11979.08"></path><path class="line U1" style="stroke: #E20613;" d="M18927.816 11979.08L18927.572 11977.964"></path><path class="line U1" style="stroke: #E20613;" d="M18927.572 11977.964L18927.266 11977.008"></path><path class="line U1" style="stroke: #E20613;" d="M18927.266 11977.008L18927.151 11975.862"></path><path class="line U1" style="stroke: #E20613;" d="M18927.151 11975.862L18927.411 11974.904"></path><path class="line U1" style="stroke: #E20613;" d="M18927.411 11974.904L18928.001 11974.392"></path><path class="line U1" style="stroke: #E20613;" d="M18928.001 11974.392L18928.723 11973.887"></path><path class="line U1" style="stroke: #E20613;" d="M18928.723 11973.887L18929.442 11973.249"></path><path class="line U1" style="stroke: #E20613;" d="M18929.442 11973.249L18930.215 11972.68"></path><path class="line U1" style="stroke: #E20613;" d="M18930.215 11972.68L18931.213 11971.875"></path><path class="line U1" style="stroke: #E20613;" d="M18931.213 11971.875L18931.695 11971.35"></path><path class="line U1" style="stroke: #E20613;" d="M18931.695 11971.35L18932.501 11970.562"></path><path class="line U1" style="stroke: #E20613;" d="M18932.501 11970.562L18933.291 11969.885"></path><path class="line U1" style="stroke: #E20613;" d="M18933.291 11969.885L18934.289 11968.834"></path><path class="line U1" style="stroke: #E20613;" d="M18934.289 11968.834L18934.903 11967.765"></path><path class="line U1" style="stroke: #E20613;" d="M18934.903 11967.765L18935.095 11966.92"></path><path class="line U1" style="stroke: #E20613;" d="M18935.095 11966.92L18934.733 11965.806"></path><path class="line U1" style="stroke: #E20613;" d="M18934.733 11965.806L18935.131 11964.878"></path><path class="line U2" style="stroke: #A762A4;" d="M18940.569 11972.3L18940.182 11971.096"></path><path class="line U2" style="stroke: #A762A4;" d="M18940.182 11971.096L18938.35 11971.257"></path><path class="line U2" style="stroke: #A762A4;" d="M18938.35 11971.257L18937.323 11972.828"></path><path class="line U2" style="stroke: #A762A4;" d="M18937.323 11972.828L18936.532 11973.278"></path><path class="line U2" style="stroke: #A762A4;" d="M18936.532 11973.278L18935.682 11973.066"></path><path class="line U2" style="stroke: #A762A4;" d="M18935.682 11973.066L18934.883 11973.229"></path><path class="line U2" style="stroke: #A762A4;" d="M18934.883 11973.229L18933.98 11974.389"></path><path class="line U2" style="stroke: #A762A4;" d="M18933.98 11974.389L18933.142 11975.171"></path><path class="line U2" style="stroke: #A762A4;" d="M18933.142 11975.171L18932.103 11974.57"></path><path class="line U2" style="stroke: #A762A4;" d="M18932.103 11974.57L18931.441 11973.965"></path><path class="line U2" style="stroke: #A762A4;" d="M18931.441 11973.965L18930.588 11973.517"></path><path class="line U2" style="stroke: #A762A4;" d="M18930.588 11973.517L18929.442 11973.249"></path><path class="line U2" style="stroke: #A762A4;" d="M18929.442 11973.249L18928.343 11973.288"></path><path class="line U2" style="stroke: #A762A4;" d="M18928.343 11973.288L18927.429 11973.568"></path><path class="line U2" style="stroke: #A762A4;" d="M18927.429 11973.568L18926.534 11973.915"></path><path class="line U2" style="stroke: #A762A4;" d="M18926.534 11973.915L18925.823 11974.543"></path><path class="line U2" style="stroke: #A762A4;" d="M18925.823 11974.543L18926.03 11975.32"></path><path class="line U2" style="stroke: #A762A4;" d="M18926.03 11975.32L18926.38 11975.721"></path><path class="line U2" style="stroke: #A762A4;" d="M18926.38 11975.721L18927.151 11975.862"></path><path class="line U3" style="stroke: #EF7C00;" d="M18921.565 11974.501L18921.344 11975.434"></path><path class="line U3" style="stroke: #EF7C00;" d="M18921.344 11975.434L18921.567 11976.134"></path><path class="line U3" style="stroke: #EF7C00;" d="M18921.567 11976.134L18922.413 11976.449"></path><path class="line U3" style="stroke: #EF7C00;" d="M18922.413 11976.449L18923.242 11976.458"></path><path class="line U3" style="stroke: #EF7C00;" d="M18923.242 11976.458L18924.129 11976.708"></path><path class="line U3" style="stroke: #EF7C00;" d="M18924.129 11976.708L18924.936 11976.514"></path><path class="line U3" style="stroke: #EF7C00;" d="M18924.936 11976.514L18925.536 11976.211"></path><path class="line U3" style="stroke: #EF7C00;" d="M18925.536 11976.211L18926.03 11975.32"></path><path class="line U3" style="stroke: #EF7C00;" d="M18926.03 11975.32L18926.751 11974.761"></path><path class="line U3" style="stroke: #EF7C00;" d="M18926.751 11974.761L18927.411 11974.904"></path><path class="line U3" style="stroke: #EF7C00;" d="M18927.411 11974.904L18928.105 11975.1"></path><path class="line U3" style="stroke: #EF7C00;" d="M18928.105 11975.1L18928.728 11975.267"></path><path class="line U3" style="stroke: #EF7C00;" d="M18928.728 11975.267L18929.361 11975.799"></path><path class="line U3" style="stroke: #EF7C00;" d="M18929.361 11975.799L18930.096 11976.453"></path><path class="line U3" style="stroke: #EF7C00;" d="M18930.096 11976.453L18930.757 11976.91"></path><path class="line U3" style="stroke: #EF7C00;" d="M18930.757 11976.91L18931.468 11977.339"></path><path class="line U3" style="stroke: #EF7C00;" d="M18931.468 11977.339L18931.792 11978.243"></path><path class="line U3" style="stroke: #EF7C00;" d="M18931.792 11978.243L18931.237 11978.938"></path><path class="line U3" style="stroke: #EF7C00;" d="M18931.237 11978.938L18931.516 11979.763"></path><path class="line U3" style="stroke: #EF7C00;" d="M18931.516 11979.763L18932.084 11980.471"></path><path class="line U4" style="stroke: #029540;" d="M18916.697 11976.544L18918.175 11977.221"></path><path class="line U4" style="stroke: #029540;" d="M18918.175 11977.221L18919.157 11977.39"></path><path class="line U4" style="stroke: #029540;" d="M18919.157 11977.39L18920.067 11977.63"></path><path class="line U4" style="stroke: #029540;" d="M18920.067 11977.63L18920.912 11977.894"></path><path class="line U4" style="stroke: #029540;" d="M18920.912 11977.894L18922.307 11978.12"></path><path class="line U4" style="stroke: #029540;" d="M18922.307 11978.12L18923.18 11978.474"></path><path class="line U4" style="stroke: #029540;" d="M18923.18 11978.474L18923.853 11978.279"></path><path class="line U4" style="stroke: #029540;" d="M18923.853 11978.279L18924.619 11977.763"></path><path class="line U4" style="stroke: #029540;" d="M18924.619 11977.763L18925.709 11977.232"></path><path class="line U4" style="stroke: #029540;" d="M18925.709 11977.232L18926.074 11976.585"></path><path class="line U4" style="stroke: #029540;" d="M18926.074 11976.585L18927.151 11975.862"></path><path class="line U4" style="stroke: #029540;" d="M18927.151 11975.862L18928.17 11975.67"></path><path class="line U4" style="stroke: #029540;" d="M18928.17 11975.67L18928.728 11975.267"></path><path class="line U4" style="stroke: #029540;" d="M18928.728 11975.267L18928.001 11974.392"></path><path class="line U4" style="stroke: #029540;" d="M18928.001 11974.392L18927.429 11973.568"></path><path class="line U4" style="stroke: #029540;" d="M18927.429 11973.568L18926.988 11972.866"></path><path class="line U4" style="stroke: #029540;" d="M18926.988 11972.866L18926.657 11972.079"></path><path class="line U4" style="stroke: #029540;" d="M18926.657 11972.079L18926.118 11971.026"></path><path class="line U4" style="stroke: #029540;" d="M18926.118 11971.026L18926.832 11969.052"></path><path class="line U6" style="stroke: #9C6830;" d="M18921.423 11986.14L18921.752 11985.258"></path><path class="line U6" style="stroke: #9C6830;" d="M18921.752 11985.258L18922.068 11984.481"></path><path class="line U6" style="stroke: #9C6830;" d="M18922.068 11984.481L18922.103 11983.251"></path><path class="line U6" style="stroke: #9C6830;" d="M18922.103 11983.251L18922.808 11981.782"></path><path class="line U6" style="stroke: #9C6830;" d="M18922.808 11981.782L18923.154 11981.16"></path><path class="line U6" style="stroke: #9C6830;" d="M18923.154 11981.16L18923.511 11979.924"></path><path class="line U6" style="stroke: #9C6830;" d="M18923.511 11979.924L18923.484 11978.879"></path><path class="line U6" style="stroke: #9C6830;" d="M18923.484 11978.879L18923.853 11978.279"></path><path class="line U6" style="stroke: #9C6830;" d="M18923.853 11978.279L18924.094 11977.437"></path><path class="line U6" style="stroke: #9C6830;" d="M18924.094 11977.437L18924.129 11976.708"></path><path class="line U6" style="stroke: #9C6830;" d="M18924.129 11976.708L18924.065 11975.667"></path><path class="line U6" style="stroke: #9C6830;" d="M18924.065 11975.667L18924.139 11974.97"></path><path class="line U6" style="stroke: #9C6830;" d="M18924.139 11974.97L18924.251 11974.439"></path><path class="line U6" style="stroke: #9C6830;" d="M18924.251 11974.439L18924.506 11973.673"></path><path class="line U6" style="stroke: #9C6830;" d="M18924.506 11973.673L18924.735 11973.039"></path><path class="line U6" style="stroke: #9C6830;" d="M18924.735 11973.039L18925.248 11972.391"></path><path class="line U6" style="stroke: #9C6830;" d="M18925.248 11972.391L18925.531 11971.567"></path><path class="line U6" style="stroke: #9C6830;" d="M18925.531 11971.567L18926.118 11971.026"></path><path class="line U6" style="stroke: #9C6830;" d="M18926.118 11971.026L18927.091 11971.012"></path><path class="line U6" style="stroke: #9C6830;" d="M18927.091 11971.012L18928.212 11970.706"></path><path class="line U6" style="stroke: #9C6830;" d="M18928.212 11970.706L18928.706 11970.064"></path><path class="line U6" style="stroke: #9C6830;" d="M18928.706 11970.064L18929.604 11969.4"></path><path class="line U6" style="stroke: #9C6830;" d="M18929.604 11969.4L18930.166 11967.971"></path><circle class="station" data-id="57592307" data-label="Kaisermühlen VIC" cx="18931.695" cy="11971.35" r="0.1" fill="#E20613"></circle><circle class="station" data-id="57592312" data-label="Alte Donau" cx="18932.501" cy="11970.562" r="0.1" fill="#E20613"></circle><circle class="station" data-id="57592315" data-label="Kagran" cx="18933.291" cy="11969.885" r="0.1" fill="#E20613"></circle><circle class="station" data-id="59838615" data-label="Taubstummengasse" cx="18927.266" cy="11977.008" r="0.1" fill="#E20613"></circle><circle class="station" data-id="60825796" data-label="Keplerplatz" cx="18927.816" cy="11979.08" r="0.1" fill="#E20613"></circle><circle class="station" data-id="61077005" data-label="Kagraner Platz" cx="18934.289" cy="11968.834" r="0.1" fill="#E20613"></circle><circle class="station" data-id="1010572279" data-label="Südtiroler Platz-Hauptbahnhof" cx="18927.572" cy="11977.964" r="0.1" fill="#E20613"></circle><circle class="station transit" data-id="1399692389" data-label="Schwedenplatz" cx="18928.001" cy="11974.392" r="0.13" fill="#333"></circle><circle class="station" data-id="1862342812" data-label="Reumannplatz" cx="18927.988" cy="11979.718" r="0.1" fill="#E20613"></circle><circle class="station transit" data-id="1993538250" data-label="Stephansplatz" cx="18927.411" cy="11974.904" r="0.13" fill="#333"></circle><circle class="station transit" data-id="2525543991" data-label="Karlsplatz" cx="18927.151" cy="11975.862" r="0.13" fill="#333"></circle><circle class="station" data-id="2781800961" data-label="Aderklaaer Straße" cx="18935.095" cy="11966.92" r="0.1" fill="#E20613"></circle><circle class="station" data-id="2781801317" data-label="Rennbahnweg" cx="18934.903" cy="11967.765" r="0.1" fill="#E20613"></circle><circle class="station transit" data-id="3725915785" data-label="Praterstern" cx="18929.442" cy="11973.249" r="0.13" fill="#333"></circle><circle class="station" data-id="4140441195" data-label="Leopoldau" cx="18935.131" cy="11964.878" r="0.1" fill="#E20613"></circle><circle class="station" data-id="4140676594" data-label="Großfeldsiedlung" cx="18934.733" cy="11965.806" r="0.1" fill="#E20613"></circle><circle class="station" data-id="4169472789" data-label="Donauinsel" cx="18931.213" cy="11971.875" r="0.1" fill="#E20613"></circle><circle class="station" data-id="4169762802" data-label="Vorgartenstraße" cx="18930.215" cy="11972.68" r="0.1" fill="#E20613"></circle><circle class="station" data-id="4169992592" data-label="Nestroyplatz" cx="18928.723" cy="11973.887" r="0.1" fill="#E20613"></circle><circle class="station" data-id="4725643935" data-label="Oberlaa" cx="18930.102" cy="11984.427" r="0.1" fill="#E20613"></circle><circle class="station" data-id="5016149162" data-label="Neulaa" cx="18928.727" cy="11983.928" r="0.1" fill="#E20613"></circle><circle class="station" data-id="5018582556" data-label="Alaudagasse" cx="18928.42" cy="11982.788" r="0.1" fill="#E20613"></circle><circle class="station" data-id="5057951093" data-label="Troststraße" cx="18928.228" cy="11980.572" r="0.1" fill="#E20613"></circle><circle class="station" data-id="5057951095" data-label="Altes Landgut" cx="18928.514" cy="11981.539" r="0.1" fill="#E20613"></circle><circle class="station transit" data-id="60093481" data-label="Volkstheater" cx="18926.03" cy="11975.32" r="0.13" fill="#333"></circle><circle class="station" data-id="60290336" data-label="Schottentor" cx="18926.534" cy="11973.915" r="0.1" fill="#A762A4"></circle><circle class="station" data-id="62671830" data-label="Stadion" cx="18932.103" cy="11974.57" r="0.1" fill="#A762A4"></circle><circle class="station" data-id="2006335300" data-label="Rathaus" cx="18925.823" cy="11974.543" r="0.1" fill="#A762A4"></circle><circle class="station" data-id="2249118767" data-label="Hardeggasse" cx="18935.682" cy="11973.066" r="0.1" fill="#A762A4"></circle><circle class="station" data-id="2249118893" data-label="Stadlau" cx="18934.883" cy="11973.229" r="0.1" fill="#A762A4"></circle><circle class="station" data-id="2249118907" data-label="Seestadt" cx="18940.569" cy="11972.3" r="0.1" fill="#A762A4"></circle><circle class="station" data-id="2249118991" data-label="Donauspital" cx="18936.532" cy="11973.278" r="0.1" fill="#A762A4"></circle><circle class="station" data-id="2249119081" data-label="Aspern Nord" cx="18940.182" cy="11971.096" r="0.1" fill="#A762A4"></circle><circle class="station" data-id="2298795030" data-label="Aspernstraße" cx="18937.323" cy="11972.828" r="0.1" fill="#A762A4"></circle><circle class="station" data-id="2298795031" data-label="Donaustadtbrücke" cx="18933.98" cy="11974.389" r="0.1" fill="#A762A4"></circle><circle class="station" data-id="2298795032" data-label="Krieau" cx="18931.441" cy="11973.965" r="0.1" fill="#A762A4"></circle><circle class="station" data-id="2437875978" data-label="Hausfeldstraße" cx="18938.35" cy="11971.257" r="0.1" fill="#A762A4"></circle><circle class="station" data-id="2482900070" data-label="Donaumarina" cx="18933.142" cy="11975.171" r="0.1" fill="#A762A4"></circle><circle class="station transit" data-id="2525338266" data-label="Schottenring" cx="18927.429" cy="11973.568" r="0.13" fill="#333"></circle><circle class="station" data-id="2525408827" data-label="Messe-Prater" cx="18930.588" cy="11973.517" r="0.1" fill="#A762A4"></circle><circle class="station" data-id="3378037094" data-label="Taborstraße" cx="18928.343" cy="11973.288" r="0.1" fill="#A762A4"></circle><circle class="station" data-id="4123328089" data-label="Museumsquartier" cx="18926.38" cy="11975.721" r="0.1" fill="#A762A4"></circle><circle class="station" data-id="2323609149" data-label="Erdberg" cx="18931.468" cy="11977.339" r="0.1" fill="#EF7C00"></circle><circle class="station" data-id="2440606392" data-label="Ottakring" cx="18921.565" cy="11974.501" r="0.1" fill="#EF7C00"></circle><circle class="station" data-id="2440652906" data-label="Kendlerstraße" cx="18921.344" cy="11975.434" r="0.1" fill="#EF7C00"></circle><circle class="station" data-id="2440681196" data-label="Schweglerstraße" cx="18923.242" cy="11976.458" r="0.1" fill="#EF7C00"></circle><circle class="station" data-id="2440684754" data-label="Johnstraße" cx="18922.413" cy="11976.449" r="0.1" fill="#EF7C00"></circle><circle class="station transit" data-id="2440715710" data-label="Westbahnhof" cx="18924.129" cy="11976.708" r="0.13" fill="#333"></circle><circle class="station" data-id="2769169147" data-label="Herrengasse" cx="18926.751" cy="11974.761" r="0.1" fill="#EF7C00"></circle><circle class="station" data-id="2784233504" data-label="Stubentor" cx="18928.105" cy="11975.1" r="0.1" fill="#EF7C00"></circle><circle class="station" data-id="2962398854" data-label="Hütteldorfer Straße" cx="18921.567" cy="11976.134" r="0.1" fill="#EF7C00"></circle><circle class="station" data-id="4348361649" data-label="Enkplatz" cx="18931.516" cy="11979.763" r="0.1" fill="#EF7C00"></circle><circle class="station" data-id="4348361652" data-label="Gasometer" cx="18931.792" cy="11978.243" r="0.1" fill="#EF7C00"></circle><circle class="station" data-id="4348361818" data-label="Simmering" cx="18932.084" cy="11980.471" r="0.1" fill="#EF7C00"></circle><circle class="station" data-id="4348361821" data-label="Zippererstraße" cx="18931.237" cy="11978.938" r="0.1" fill="#EF7C00"></circle><circle class="station" data-id="4348401657" data-label="Kardinal-Nagl-Platz" cx="18930.096" cy="11976.453" r="0.1" fill="#EF7C00"></circle><circle class="station transit" data-id="4348401659" data-label="Landstraße" cx="18928.728" cy="11975.267" r="0.13" fill="#333"></circle><circle class="station" data-id="4348402507" data-label="Rochusgasse" cx="18929.361" cy="11975.799" r="0.1" fill="#EF7C00"></circle><circle class="station" data-id="4348402509" data-label="Schlachthausgasse" cx="18930.757" cy="11976.91" r="0.1" fill="#EF7C00"></circle><circle class="station" data-id="4348437214" data-label="Neubaugasse" cx="18925.536" cy="11976.211" r="0.1" fill="#EF7C00"></circle><circle class="station" data-id="4348437230" data-label="Zieglergasse" cx="18924.936" cy="11976.514" r="0.1" fill="#EF7C00"></circle><circle class="station" data-id="60291628" data-label="Friedensbrücke" cx="18926.657" cy="11972.079" r="0.1" fill="#029540"></circle><circle class="station transit" data-id="60291638" data-label="Spittelau" cx="18926.118" cy="11971.026" r="0.13" fill="#333"></circle><circle class="station" data-id="105411815" data-label="Heiligenstadt" cx="18926.832" cy="11969.052" r="0.1" fill="#029540"></circle><circle class="station" data-id="1243189782" data-label="Braunschweiggasse" cx="18920.067" cy="11977.63" r="0.1" fill="#029540"></circle><circle class="station" data-id="1243189796" data-label="Schönbrunn" cx="18922.307" cy="11978.12" r="0.1" fill="#029540"></circle><circle class="station" data-id="1243190081" data-label="Hietzing" cx="18920.912" cy="11977.894" r="0.1" fill="#029540"></circle><circle class="station" data-id="1243190167" data-label="Unter St. Veit" cx="18919.157" cy="11977.39" r="0.1" fill="#029540"></circle><circle class="station" data-id="1243190224" data-label="Meidling Hauptstraße" cx="18923.18" cy="11978.474" r="0.1" fill="#029540"></circle><circle class="station" data-id="1243190451" data-label="Ober St. Veit" cx="18918.175" cy="11977.221" r="0.1" fill="#029540"></circle><circle class="station" data-id="1740822565" data-label="Hütteldorf" cx="18916.697" cy="11976.544" r="0.1" fill="#029540"></circle><circle class="station" data-id="2214978287" data-label="Margaretengürtel" cx="18924.619" cy="11977.763" r="0.1" fill="#029540"></circle><circle class="station transit" data-id="2241469646" data-label="Längenfeldgasse" cx="18923.853" cy="11978.279" r="0.13" fill="#333"></circle><circle class="station" data-id="2241738995" data-label="Kettenbrückengasse" cx="18926.074" cy="11976.585" r="0.1" fill="#029540"></circle><circle class="station" data-id="2241739000" data-label="Pilgramgasse" cx="18925.709" cy="11977.232" r="0.1" fill="#029540"></circle><circle class="station" data-id="2525501991" data-label="Roßauer Lände" cx="18926.988" cy="11972.866" r="0.1" fill="#029540"></circle><circle class="station" data-id="3966904573" data-label="Stadtpark" cx="18928.17" cy="11975.67" r="0.1" fill="#029540"></circle><circle class="station" data-id="60091400" data-label="Nußdorfer Straße" cx="18925.531" cy="11971.567" r="0.1" fill="#9C6830"></circle><circle class="station" data-id="60091638" data-label="Thaliastraße" cx="18924.139" cy="11974.97" r="0.1" fill="#9C6830"></circle><circle class="station" data-id="60091642" data-label="Josefstädter Straße" cx="18924.251" cy="11974.439" r="0.1" fill="#9C6830"></circle><circle class="station" data-id="60091648" data-label="Alser Straße" cx="18924.506" cy="11973.673" r="0.1" fill="#9C6830"></circle><circle class="station" data-id="60091653" data-label="Michelbeuern-AKH" cx="18924.735" cy="11973.039" r="0.1" fill="#9C6830"></circle><circle class="station" data-id="60091661" data-label="Währinger Straße-Volksoper" cx="18925.248" cy="11972.391" r="0.1" fill="#9C6830"></circle><circle class="station" data-id="60091791" data-label="Burggasse-Stadthalle" cx="18924.065" cy="11975.667" r="0.1" fill="#9C6830"></circle><circle class="station" data-id="60092321" data-label="Gumpendorfer Straße" cx="18924.094" cy="11977.437" r="0.1" fill="#9C6830"></circle><circle class="station" data-id="61688590" data-label="Alterlaa" cx="18922.103" cy="11983.251" r="0.1" fill="#9C6830"></circle><circle class="station" data-id="61688597" data-label="Erlaaer Straße" cx="18922.068" cy="11984.481" r="0.1" fill="#9C6830"></circle><circle class="station" data-id="61688600" data-label="Perfektastraße" cx="18921.752" cy="11985.258" r="0.1" fill="#9C6830"></circle><circle class="station" data-id="61688602" data-label="Siebenhirten" cx="18921.423" cy="11986.14" r="0.1" fill="#9C6830"></circle><circle class="station" data-id="1378094193" data-label="Am Schöpfwerk" cx="18922.808" cy="11981.782" r="0.1" fill="#9C6830"></circle><circle class="station" data-id="1378094234" data-label="Tscherttegasse" cx="18923.154" cy="11981.16" r="0.1" fill="#9C6830"></circle><circle class="station" data-id="2211799727" data-label="Dresdner Straße" cx="18928.212" cy="11970.706" r="0.1" fill="#9C6830"></circle><circle class="station" data-id="2211799763" data-label="Jägerstraße" cx="18927.091" cy="11971.012" r="0.1" fill="#9C6830"></circle><circle class="station" data-id="2211799784" data-label="Floridsdorf" cx="18930.166" cy="11967.971" r="0.1" fill="#9C6830"></circle><circle class="station" data-id="2211815196" data-label="Handelskai" cx="18928.706" cy="11970.064" r="0.1" fill="#9C6830"></circle><circle class="station" data-id="2211815211" data-label="Neue Donau" cx="18929.604" cy="11969.4" r="0.1" fill="#9C6830"></circle><circle class="station" data-id="2211901245" data-label="Niederhofstraße" cx="18923.484" cy="11978.879" r="0.1" fill="#9C6830"></circle><circle class="station" data-id="2211901255" data-label="Bahnhof Meidling" cx="18923.511" cy="11979.924" r="0.1" fill="#9C6830"></circle></g></svg>